<?xml version="1.0" encoding="utf-8"?>
<!-- Generator: Adobe Illustrator 19.0.0, SVG Export Plug-In . SVG Version: 6.00 Build 0)  -->
<svg version="1.1" id="Camada_1" xmlns="http://www.w3.org/2000/svg" xmlns:xlink="http://www.w3.org/1999/xlink" x="0px" y="0px"
	 viewBox="0 0 1920 721" style="enable-background:new 0 0 1920 721;" xml:space="preserve">
<style type="text/css">
	.st0{fill:#FFFFFF;}
</style>
<g id="XMLID_22_">
	<g id="XMLID_3_">
		<g id="XMLID_395_">
			<path id="XMLID_396_" class="st0" d="M160,286.5h-29.6v-28h87v28h-29.5v156.8H160V286.5z"/>
			<path id="XMLID_398_" class="st0" d="M287.9,445.3c-12.3,0-22.7-4.3-31.3-12.8c-8.6-8.6-12.8-18.9-12.8-31.1V258.4h27.3v142.6
				c0,4.4,1.6,8.2,4.7,11.3c3.1,3.1,6.9,4.6,11.4,4.6s8.2-1.5,11.3-4.6c3.1-3.1,4.6-6.9,4.6-11.3V258.4h29.1v142.9
				c0,12.4-4.3,22.8-13,31.3C310.5,441.1,300.1,445.3,287.9,445.3z"/>
			<path id="XMLID_400_" class="st0" d="M448.7,399c0,12.2-4.3,22.6-12.8,31.3c-8.6,8.7-18.9,13-31,13h-43.8v-185h43.8
				c12.2,0,22.5,4.3,31,13c8.5,8.7,12.8,19,12.8,31.1V399z M388.9,415.7h16.8c4.4,0,8.2-1.6,11.2-4.8c3-3.2,4.6-7,4.6-11.3v-96.8
				c0-4.4-1.5-8.2-4.6-11.4c-3.1-3.1-6.8-4.7-11.1-4.7h-16.8V415.7z"/>
			<path id="XMLID_403_" class="st0" d="M505.2,443.3h-27.9V258.4h27.9V443.3z"/>
			<path id="XMLID_405_" class="st0" d="M534.3,443.3v-185H576c11,0,20.9,2.9,29.8,8.7c7.6,4.9,13,12.5,16.2,22.9
				c1.8,5.5,2.7,12,2.7,19.6c0,12.4-3.3,22.3-9.9,29.8c-2.8,3.1-6,5.6-9.7,7.2c6.2,2.4,11.5,7,15.8,14c2.9,4.7,5,10.8,6.3,18.3
				c0.7,3.8,1,8.1,1,12.8c0,11.7-2.2,21.6-6.6,29.8c-3.4,6.4-8.3,11.5-14.6,15.3c-7.1,4.3-14.1,6.5-21.1,6.5H534.3z M564.4,333.8
				H576c8.7,0,14.5-4.2,17.4-12.7c1.1-3.1,1.6-7,1.6-11.7c0-7.7-1.9-13.5-5.6-17.4c-3.4-3.6-7.9-5.5-13.4-5.5h-11.7V333.8z
				 M564.4,415.7H576c9.4,0,16-4.9,19.6-14.6c1.3-3.3,1.9-7.2,1.9-11.5c0-10.3-2-17.8-5.9-22.6c-3.5-4.3-8.8-6.5-15.6-6.5h-11.7
				V415.7z"/>
			<path id="XMLID_409_" class="st0" d="M700.2,256.1c12.3,0,22.7,4.3,31.3,13c8.6,8.7,12.9,19.1,12.9,31.3v100.9
				c0,12.3-4.3,22.7-13,31.3c-8.7,8.6-19.1,12.9-31.3,12.9c-12.3,0-22.7-4.3-31.3-13c-8.6-8.7-12.8-19.1-12.8-31.3V300.3
				c0-12.3,4.3-22.7,13-31.3C677.8,260.4,688.1,256.1,700.2,256.1z M715.4,299.7c0-4.4-1.5-8.2-4.6-11.3c-3.1-3.1-6.9-4.6-11.3-4.6
				s-8.2,1.5-11.4,4.6c-3.1,3.1-4.7,6.9-4.7,11.3v101.2c0,4.4,1.6,8.2,4.7,11.3c3.1,3.1,6.9,4.6,11.4,4.6s8.2-1.5,11.3-4.6
				c3.1-3.1,4.6-6.9,4.6-11.3V299.7z"/>
			<path id="XMLID_412_" class="st0" d="M801,443.3h-27.9v-185h40l26,132.9l24.9-132.9h38.4v185h-27.9V327l-24.2,116.2H828
				l-27-115.9V443.3z"/>
			<path id="XMLID_414_" class="st0" d="M1060.1,399c0,12.2-4.3,22.6-12.8,31.3c-8.6,8.7-18.9,13-31,13h-43.8v-185h43.8
				c12.2,0,22.5,4.3,31,13c8.5,8.7,12.8,19,12.8,31.1V399z M1000.3,415.7h16.8c4.4,0,8.2-1.6,11.2-4.8c3-3.2,4.6-7,4.6-11.3v-96.8
				c0-4.4-1.5-8.2-4.6-11.4c-3.1-3.1-6.8-4.7-11.1-4.7h-16.8V415.7z"/>
			<path id="XMLID_417_" class="st0" d="M1088.7,443.3v-185h79.4v28h-51.5v50.4h37.6v28h-37.6v50.4h51.5v28H1088.7z"/>
			<path id="XMLID_419_" class="st0" d="M1267.4,443.3h-76V258.4h27.9v157.1h48.1V443.3z"/>
			<path id="XMLID_421_" class="st0" d="M1318.6,443.3h-27.9V258.4h27.9V443.3z"/>
			<path id="XMLID_423_" class="st0" d="M1379.1,443.3l-33-184.8h29.2l23.2,144.1l23.4-144.1h29.2l-33.6,184.8H1379.1z"/>
			<path id="XMLID_425_" class="st0" d="M1478.5,443.3v-185h79.4v28h-51.5v50.4h37.6v28h-37.6v50.4h51.5v28H1478.5z"/>
			<path id="XMLID_427_" class="st0" d="M1625.1,258.4c15.5,0,26.9,4.3,34.2,12.8c6.4,7.5,9.6,17.9,9.6,31.3v26.8
				c0,13.1-5,24.1-14.9,33.2l20.6,80.7h-30.1l-16.9-69.6c-0.8,0-1.6,0-2.5,0h-16.1v69.6h-27.9V258.4H1625.1z M1641.8,303
				c0-10.7-5.3-16.1-15.9-16.1h-16.8v59.1h16.8c4.4,0,8.2-1.6,11.3-4.7c3.1-3.1,4.6-6.9,4.6-11.4V303z"/>
			<path id="XMLID_430_" class="st0" d="M1723,365.8l-37.3-107.5h30.7l20.7,66.4l20.5-66.4h30.8l-37.5,107.5v77.4H1723V365.8z"/>
		</g>
		<g id="XMLID_270_">
			<path id="XMLID_271_" class="st0" d="M272.5,512.1c0-3.3,0.8-5.9,2.3-7.6c1.5-1.7,3.7-2.6,6.5-2.6c2.9,0,5.1,0.9,6.7,2.6
				c1.6,1.7,2.4,4.2,2.4,7.6c0,3.2-0.8,5.7-2.5,7.5c-1.6,1.7-3.9,2.6-6.7,2.6c-2.5,0-4.6-0.8-6.3-2.3
				C273.3,518.3,272.5,515.7,272.5,512.1z"/>
			<path id="XMLID_273_" class="st0" d="M326.7,512.1c0-3.3,0.8-5.9,2.3-7.6c1.5-1.7,3.7-2.6,6.5-2.6c2.9,0,5.1,0.9,6.7,2.6
				c1.6,1.7,2.4,4.2,2.4,7.6c0,3.2-0.8,5.7-2.5,7.5c-1.6,1.7-3.9,2.6-6.7,2.6c-2.5,0-4.6-0.8-6.3-2.3
				C327.5,518.3,326.7,515.7,326.7,512.1z"/>
			<path id="XMLID_275_" class="st0" d="M380.9,512.1c0-3.3,0.8-5.9,2.3-7.6c1.5-1.7,3.7-2.6,6.5-2.6c2.9,0,5.1,0.9,6.7,2.6
				c1.6,1.7,2.4,4.2,2.4,7.6c0,3.2-0.8,5.7-2.5,7.5c-1.6,1.7-3.9,2.6-6.7,2.6c-2.5,0-4.6-0.8-6.3-2.3
				C381.8,518.3,380.9,515.7,380.9,512.1z"/>
			<path id="XMLID_277_" class="st0" d="M435.2,512.1c0-3.3,0.8-5.9,2.3-7.6c1.5-1.7,3.7-2.6,6.5-2.6c2.9,0,5.1,0.9,6.7,2.6
				c1.6,1.7,2.4,4.2,2.4,7.6c0,3.2-0.8,5.7-2.5,7.5c-1.6,1.7-3.9,2.6-6.7,2.6c-2.5,0-4.6-0.8-6.3-2.3
				C436,518.3,435.2,515.7,435.2,512.1z"/>
			<path id="XMLID_279_" class="st0" d="M489.4,512.1c0-3.3,0.8-5.9,2.3-7.6c1.5-1.7,3.7-2.6,6.5-2.6c2.9,0,5.1,0.9,6.7,2.6
				c1.6,1.7,2.4,4.2,2.4,7.6c0,3.2-0.8,5.7-2.5,7.5c-1.6,1.7-3.9,2.6-6.7,2.6c-2.5,0-4.6-0.8-6.3-2.3
				C490.2,518.3,489.4,515.7,489.4,512.1z"/>
			<path id="XMLID_281_" class="st0" d="M543.6,512.1c0-3.3,0.8-5.9,2.3-7.6c1.5-1.7,3.7-2.6,6.5-2.6c2.9,0,5.1,0.9,6.7,2.6
				c1.6,1.7,2.4,4.2,2.4,7.6c0,3.2-0.8,5.7-2.5,7.5c-1.6,1.7-3.9,2.6-6.7,2.6c-2.5,0-4.6-0.8-6.3-2.3
				C544.5,518.3,543.6,515.7,543.6,512.1z"/>
			<path id="XMLID_283_" class="st0" d="M597.8,512.1c0-3.3,0.8-5.9,2.3-7.6c1.5-1.7,3.7-2.6,6.5-2.6c2.9,0,5.1,0.9,6.7,2.6
				c1.6,1.7,2.4,4.2,2.4,7.6c0,3.2-0.8,5.7-2.5,7.5c-1.6,1.7-3.9,2.6-6.7,2.6c-2.5,0-4.6-0.8-6.3-2.3
				C598.7,518.3,597.8,515.7,597.8,512.1z"/>
			<path id="XMLID_285_" class="st0" d="M652.1,512.1c0-3.3,0.8-5.9,2.3-7.6c1.5-1.7,3.7-2.6,6.5-2.6c2.9,0,5.1,0.9,6.7,2.6
				c1.6,1.7,2.4,4.2,2.4,7.6c0,3.2-0.8,5.7-2.5,7.5c-1.6,1.7-3.9,2.6-6.7,2.6c-2.5,0-4.6-0.8-6.3-2.3
				C652.9,518.3,652.1,515.7,652.1,512.1z"/>
			<path id="XMLID_287_" class="st0" d="M706.3,512.1c0-3.3,0.8-5.9,2.3-7.6c1.5-1.7,3.7-2.6,6.5-2.6c2.9,0,5.1,0.9,6.7,2.6
				c1.6,1.7,2.4,4.2,2.4,7.6c0,3.2-0.8,5.7-2.5,7.5c-1.6,1.7-3.9,2.6-6.7,2.6c-2.5,0-4.6-0.8-6.3-2.3
				C707.1,518.3,706.3,515.7,706.3,512.1z"/>
			<path id="XMLID_289_" class="st0" d="M760.5,512.1c0-3.3,0.8-5.9,2.3-7.6c1.5-1.7,3.7-2.6,6.5-2.6c2.9,0,5.1,0.9,6.7,2.6
				c1.6,1.7,2.4,4.2,2.4,7.6c0,3.2-0.8,5.7-2.5,7.5c-1.6,1.7-3.9,2.6-6.7,2.6c-2.5,0-4.6-0.8-6.3-2.3
				C761.4,518.3,760.5,515.7,760.5,512.1z"/>
			<path id="XMLID_291_" class="st0" d="M814.8,512.1c0-3.3,0.8-5.9,2.3-7.6c1.5-1.7,3.7-2.6,6.5-2.6c2.9,0,5.1,0.9,6.7,2.6
				c1.6,1.7,2.4,4.2,2.4,7.6c0,3.2-0.8,5.7-2.5,7.5c-1.6,1.7-3.9,2.6-6.7,2.6c-2.5,0-4.6-0.8-6.3-2.3
				C815.6,518.3,814.8,515.7,814.8,512.1z"/>
			<path id="XMLID_293_" class="st0" d="M869,512.1c0-3.3,0.8-5.9,2.3-7.6c1.5-1.7,3.7-2.6,6.5-2.6c2.9,0,5.1,0.9,6.7,2.6
				c1.6,1.7,2.4,4.2,2.4,7.6c0,3.2-0.8,5.7-2.5,7.5c-1.6,1.7-3.9,2.6-6.7,2.6c-2.5,0-4.6-0.8-6.3-2.3
				C869.8,518.3,869,515.7,869,512.1z"/>
			<path id="XMLID_295_" class="st0" d="M923.2,512.1c0-3.3,0.8-5.9,2.3-7.6c1.5-1.7,3.7-2.6,6.5-2.6c2.9,0,5.1,0.9,6.7,2.6
				c1.6,1.7,2.4,4.2,2.4,7.6c0,3.2-0.8,5.7-2.5,7.5c-1.6,1.7-3.9,2.6-6.7,2.6c-2.5,0-4.6-0.8-6.3-2.3
				C924.1,518.3,923.2,515.7,923.2,512.1z"/>
			<path id="XMLID_297_" class="st0" d="M977.5,512.1c0-3.3,0.8-5.9,2.3-7.6c1.5-1.7,3.7-2.6,6.5-2.6c2.9,0,5.1,0.9,6.7,2.6
				c1.6,1.7,2.4,4.2,2.4,7.6c0,3.2-0.8,5.7-2.5,7.5c-1.6,1.7-3.9,2.6-6.7,2.6c-2.5,0-4.6-0.8-6.3-2.3
				C978.3,518.3,977.5,515.7,977.5,512.1z"/>
			<path id="XMLID_299_" class="st0" d="M1031.7,512.1c0-3.3,0.8-5.9,2.3-7.6c1.5-1.7,3.7-2.6,6.5-2.6c2.9,0,5.1,0.9,6.7,2.6
				c1.6,1.7,2.4,4.2,2.4,7.6c0,3.2-0.8,5.7-2.5,7.5c-1.6,1.7-3.9,2.6-6.7,2.6c-2.5,0-4.6-0.8-6.3-2.3
				C1032.5,518.3,1031.7,515.7,1031.7,512.1z"/>
			<path id="XMLID_301_" class="st0" d="M1085.9,512.1c0-3.3,0.8-5.9,2.3-7.6c1.5-1.7,3.7-2.6,6.5-2.6c2.9,0,5.1,0.9,6.7,2.6
				c1.6,1.7,2.4,4.2,2.4,7.6c0,3.2-0.8,5.7-2.5,7.5c-1.6,1.7-3.9,2.6-6.7,2.6c-2.5,0-4.6-0.8-6.3-2.3
				C1086.7,518.3,1085.9,515.7,1085.9,512.1z"/>
			<path id="XMLID_303_" class="st0" d="M1140.1,512.1c0-3.3,0.8-5.9,2.3-7.6c1.5-1.7,3.7-2.6,6.5-2.6c2.9,0,5.1,0.9,6.7,2.6
				c1.6,1.7,2.4,4.2,2.4,7.6c0,3.2-0.8,5.7-2.5,7.5c-1.6,1.7-3.9,2.6-6.7,2.6c-2.5,0-4.6-0.8-6.3-2.3
				C1141,518.3,1140.1,515.7,1140.1,512.1z"/>
			<path id="XMLID_305_" class="st0" d="M1194.4,512.1c0-3.3,0.8-5.9,2.3-7.6c1.5-1.7,3.7-2.6,6.5-2.6c2.9,0,5.1,0.9,6.7,2.6
				c1.6,1.7,2.4,4.2,2.4,7.6c0,3.2-0.8,5.7-2.5,7.5c-1.6,1.7-3.9,2.6-6.7,2.6c-2.5,0-4.6-0.8-6.3-2.3
				C1195.2,518.3,1194.4,515.7,1194.4,512.1z"/>
			<path id="XMLID_307_" class="st0" d="M1248.6,512.1c0-3.3,0.8-5.9,2.3-7.6c1.5-1.7,3.7-2.6,6.5-2.6c2.9,0,5.1,0.9,6.7,2.6
				c1.6,1.7,2.4,4.2,2.4,7.6c0,3.2-0.8,5.7-2.5,7.5c-1.6,1.7-3.9,2.6-6.7,2.6c-2.5,0-4.6-0.8-6.3-2.3
				C1249.4,518.3,1248.6,515.7,1248.6,512.1z"/>
			<path id="XMLID_309_" class="st0" d="M1302.8,512.1c0-3.3,0.8-5.9,2.3-7.6c1.5-1.7,3.7-2.6,6.5-2.6c2.9,0,5.1,0.9,6.7,2.6
				c1.6,1.7,2.4,4.2,2.4,7.6c0,3.2-0.8,5.7-2.5,7.5c-1.6,1.7-3.9,2.6-6.7,2.6c-2.5,0-4.6-0.8-6.3-2.3
				C1303.7,518.3,1302.8,515.7,1302.8,512.1z"/>
			<path id="XMLID_311_" class="st0" d="M1357.1,512.1c0-3.3,0.8-5.9,2.3-7.6c1.5-1.7,3.7-2.6,6.5-2.6c2.9,0,5.1,0.9,6.7,2.6
				c1.6,1.7,2.4,4.2,2.4,7.6c0,3.2-0.8,5.7-2.5,7.5c-1.6,1.7-3.9,2.6-6.7,2.6c-2.5,0-4.6-0.8-6.3-2.3
				C1357.9,518.3,1357.1,515.7,1357.1,512.1z"/>
			<path id="XMLID_313_" class="st0" d="M1411.3,512.1c0-3.3,0.8-5.9,2.3-7.6c1.5-1.7,3.7-2.6,6.5-2.6c2.9,0,5.1,0.9,6.7,2.6
				c1.6,1.7,2.4,4.2,2.4,7.6c0,3.2-0.8,5.7-2.5,7.5c-1.6,1.7-3.9,2.6-6.7,2.6c-2.5,0-4.6-0.8-6.3-2.3
				C1412.1,518.3,1411.3,515.7,1411.3,512.1z"/>
			<path id="XMLID_315_" class="st0" d="M1465.5,512.1c0-3.3,0.8-5.9,2.3-7.6c1.5-1.7,3.7-2.6,6.5-2.6c2.9,0,5.1,0.9,6.7,2.6
				c1.6,1.7,2.4,4.2,2.4,7.6c0,3.2-0.8,5.7-2.5,7.5c-1.6,1.7-3.9,2.6-6.7,2.6c-2.5,0-4.6-0.8-6.3-2.3
				C1466.3,518.3,1465.5,515.7,1465.5,512.1z"/>
			<path id="XMLID_319_" class="st0" d="M1519.7,512.1c0-3.3,0.8-5.9,2.3-7.6c1.5-1.7,3.7-2.6,6.5-2.6c2.9,0,5.1,0.9,6.7,2.6
				c1.6,1.7,2.4,4.2,2.4,7.6c0,3.2-0.8,5.7-2.5,7.5c-1.6,1.7-3.9,2.6-6.7,2.6c-2.5,0-4.6-0.8-6.3-2.3
				C1520.6,518.3,1519.7,515.7,1519.7,512.1z"/>
			<path id="XMLID_321_" class="st0" d="M1574,512.1c0-3.3,0.8-5.9,2.3-7.6c1.5-1.7,3.7-2.6,6.5-2.6c2.9,0,5.1,0.9,6.7,2.6
				c1.6,1.7,2.4,4.2,2.4,7.6c0,3.2-0.8,5.7-2.5,7.5c-1.6,1.7-3.9,2.6-6.7,2.6c-2.5,0-4.6-0.8-6.3-2.3
				C1574.8,518.3,1574,515.7,1574,512.1z"/>
			<path id="XMLID_323_" class="st0" d="M1628.2,512.1c0-3.3,0.8-5.9,2.3-7.6c1.5-1.7,3.7-2.6,6.5-2.6c2.9,0,5.1,0.9,6.7,2.6
				c1.6,1.7,2.4,4.2,2.4,7.6c0,3.2-0.8,5.7-2.5,7.5c-1.6,1.7-3.9,2.6-6.7,2.6c-2.5,0-4.6-0.8-6.3-2.3
				C1629,518.3,1628.2,515.7,1628.2,512.1z"/>
		</g>
		<g id="XMLID_6_">
			<path id="XMLID_7_" class="st0" d="M272.5,206.7c0-3.3,0.8-5.9,2.3-7.6c1.5-1.7,3.7-2.6,6.5-2.6c2.9,0,5.1,0.9,6.7,2.6
				c1.6,1.7,2.4,4.2,2.4,7.6c0,3.2-0.8,5.7-2.5,7.5c-1.6,1.7-3.9,2.6-6.7,2.6c-2.5,0-4.6-0.8-6.3-2.3
				C273.3,212.8,272.5,210.3,272.5,206.7z"/>
			<path id="XMLID_10_" class="st0" d="M326.7,206.7c0-3.3,0.8-5.9,2.3-7.6c1.5-1.7,3.7-2.6,6.5-2.6c2.9,0,5.1,0.9,6.7,2.6
				c1.6,1.7,2.4,4.2,2.4,7.6c0,3.2-0.8,5.7-2.5,7.5c-1.6,1.7-3.9,2.6-6.7,2.6c-2.5,0-4.6-0.8-6.3-2.3
				C327.5,212.8,326.7,210.3,326.7,206.7z"/>
			<path id="XMLID_31_" class="st0" d="M380.9,206.7c0-3.3,0.8-5.9,2.3-7.6c1.5-1.7,3.7-2.6,6.5-2.6c2.9,0,5.1,0.9,6.7,2.6
				c1.6,1.7,2.4,4.2,2.4,7.6c0,3.2-0.8,5.7-2.5,7.5c-1.6,1.7-3.9,2.6-6.7,2.6c-2.5,0-4.6-0.8-6.3-2.3
				C381.8,212.8,380.9,210.3,380.9,206.7z"/>
			<path id="XMLID_33_" class="st0" d="M435.2,206.7c0-3.3,0.8-5.9,2.3-7.6c1.5-1.7,3.7-2.6,6.5-2.6c2.9,0,5.1,0.9,6.7,2.6
				c1.6,1.7,2.4,4.2,2.4,7.6c0,3.2-0.8,5.7-2.5,7.5c-1.6,1.7-3.9,2.6-6.7,2.6c-2.5,0-4.6-0.8-6.3-2.3
				C436,212.8,435.2,210.3,435.2,206.7z"/>
			<path id="XMLID_35_" class="st0" d="M489.4,206.7c0-3.3,0.8-5.9,2.3-7.6c1.5-1.7,3.7-2.6,6.5-2.6c2.9,0,5.1,0.9,6.7,2.6
				c1.6,1.7,2.4,4.2,2.4,7.6c0,3.2-0.8,5.7-2.5,7.5c-1.6,1.7-3.9,2.6-6.7,2.6c-2.5,0-4.6-0.8-6.3-2.3
				C490.2,212.8,489.4,210.3,489.4,206.7z"/>
			<path id="XMLID_37_" class="st0" d="M543.6,206.7c0-3.3,0.8-5.9,2.3-7.6c1.5-1.7,3.7-2.6,6.5-2.6c2.9,0,5.1,0.9,6.7,2.6
				c1.6,1.7,2.4,4.2,2.4,7.6c0,3.2-0.8,5.7-2.5,7.5c-1.6,1.7-3.9,2.6-6.7,2.6c-2.5,0-4.6-0.8-6.3-2.3
				C544.5,212.8,543.6,210.3,543.6,206.7z"/>
			<path id="XMLID_39_" class="st0" d="M597.8,206.7c0-3.3,0.8-5.9,2.3-7.6c1.5-1.7,3.7-2.6,6.5-2.6c2.9,0,5.1,0.9,6.7,2.6
				c1.6,1.7,2.4,4.2,2.4,7.6c0,3.2-0.8,5.7-2.5,7.5c-1.6,1.7-3.9,2.6-6.7,2.6c-2.5,0-4.6-0.8-6.3-2.3
				C598.7,212.8,597.8,210.3,597.8,206.7z"/>
			<path id="XMLID_41_" class="st0" d="M652.1,206.7c0-3.3,0.8-5.9,2.3-7.6c1.5-1.7,3.7-2.6,6.5-2.6c2.9,0,5.1,0.9,6.7,2.6
				c1.6,1.7,2.4,4.2,2.4,7.6c0,3.2-0.8,5.7-2.5,7.5c-1.6,1.7-3.9,2.6-6.7,2.6c-2.5,0-4.6-0.8-6.3-2.3
				C652.9,212.8,652.1,210.3,652.1,206.7z"/>
			<path id="XMLID_48_" class="st0" d="M706.3,206.7c0-3.3,0.8-5.9,2.3-7.6c1.5-1.7,3.7-2.6,6.5-2.6c2.9,0,5.1,0.9,6.7,2.6
				c1.6,1.7,2.4,4.2,2.4,7.6c0,3.2-0.8,5.7-2.5,7.5c-1.6,1.7-3.9,2.6-6.7,2.6c-2.5,0-4.6-0.8-6.3-2.3
				C707.1,212.8,706.3,210.3,706.3,206.7z"/>
			<path id="XMLID_50_" class="st0" d="M760.5,206.7c0-3.3,0.8-5.9,2.3-7.6c1.5-1.7,3.7-2.6,6.5-2.6c2.9,0,5.1,0.9,6.7,2.6
				c1.6,1.7,2.4,4.2,2.4,7.6c0,3.2-0.8,5.7-2.5,7.5c-1.6,1.7-3.9,2.6-6.7,2.6c-2.5,0-4.6-0.8-6.3-2.3
				C761.4,212.8,760.5,210.3,760.5,206.7z"/>
			<path id="XMLID_52_" class="st0" d="M814.8,206.7c0-3.3,0.8-5.9,2.3-7.6c1.5-1.7,3.7-2.6,6.5-2.6c2.9,0,5.1,0.9,6.7,2.6
				c1.6,1.7,2.4,4.2,2.4,7.6c0,3.2-0.8,5.7-2.5,7.5c-1.6,1.7-3.9,2.6-6.7,2.6c-2.5,0-4.6-0.8-6.3-2.3
				C815.6,212.8,814.8,210.3,814.8,206.7z"/>
			<path id="XMLID_60_" class="st0" d="M869,206.7c0-3.3,0.8-5.9,2.3-7.6c1.5-1.7,3.7-2.6,6.5-2.6c2.9,0,5.1,0.9,6.7,2.6
				c1.6,1.7,2.4,4.2,2.4,7.6c0,3.2-0.8,5.7-2.5,7.5c-1.6,1.7-3.9,2.6-6.7,2.6c-2.5,0-4.6-0.8-6.3-2.3
				C869.8,212.8,869,210.3,869,206.7z"/>
			<path id="XMLID_62_" class="st0" d="M923.2,206.7c0-3.3,0.8-5.9,2.3-7.6c1.5-1.7,3.7-2.6,6.5-2.6c2.9,0,5.1,0.9,6.7,2.6
				c1.6,1.7,2.4,4.2,2.4,7.6c0,3.2-0.8,5.7-2.5,7.5c-1.6,1.7-3.9,2.6-6.7,2.6c-2.5,0-4.6-0.8-6.3-2.3
				C924.1,212.8,923.2,210.3,923.2,206.7z"/>
			<path id="XMLID_64_" class="st0" d="M977.5,206.7c0-3.3,0.8-5.9,2.3-7.6c1.5-1.7,3.7-2.6,6.5-2.6c2.9,0,5.1,0.9,6.7,2.6
				c1.6,1.7,2.4,4.2,2.4,7.6c0,3.2-0.8,5.7-2.5,7.5c-1.6,1.7-3.9,2.6-6.7,2.6c-2.5,0-4.6-0.8-6.3-2.3
				C978.3,212.8,977.5,210.3,977.5,206.7z"/>
			<path id="XMLID_66_" class="st0" d="M1031.7,206.7c0-3.3,0.8-5.9,2.3-7.6c1.5-1.7,3.7-2.6,6.5-2.6c2.9,0,5.1,0.9,6.7,2.6
				c1.6,1.7,2.4,4.2,2.4,7.6c0,3.2-0.8,5.7-2.5,7.5c-1.6,1.7-3.9,2.6-6.7,2.6c-2.5,0-4.6-0.8-6.3-2.3
				C1032.5,212.8,1031.7,210.3,1031.7,206.7z"/>
			<path id="XMLID_68_" class="st0" d="M1085.9,206.7c0-3.3,0.8-5.9,2.3-7.6c1.5-1.7,3.7-2.6,6.5-2.6c2.9,0,5.1,0.9,6.7,2.6
				c1.6,1.7,2.4,4.2,2.4,7.6c0,3.2-0.8,5.7-2.5,7.5c-1.6,1.7-3.9,2.6-6.7,2.6c-2.5,0-4.6-0.8-6.3-2.3
				C1086.7,212.8,1085.9,210.3,1085.9,206.7z"/>
			<path id="XMLID_70_" class="st0" d="M1140.1,206.7c0-3.3,0.8-5.9,2.3-7.6c1.5-1.7,3.7-2.6,6.5-2.6c2.9,0,5.1,0.9,6.7,2.6
				c1.6,1.7,2.4,4.2,2.4,7.6c0,3.2-0.8,5.7-2.5,7.5c-1.6,1.7-3.9,2.6-6.7,2.6c-2.5,0-4.6-0.8-6.3-2.3
				C1141,212.8,1140.1,210.3,1140.1,206.7z"/>
			<path id="XMLID_72_" class="st0" d="M1194.4,206.7c0-3.3,0.8-5.9,2.3-7.6c1.5-1.7,3.7-2.6,6.5-2.6c2.9,0,5.1,0.9,6.7,2.6
				c1.6,1.7,2.4,4.2,2.4,7.6c0,3.2-0.8,5.7-2.5,7.5c-1.6,1.7-3.9,2.6-6.7,2.6c-2.5,0-4.6-0.8-6.3-2.3
				C1195.2,212.8,1194.4,210.3,1194.4,206.7z"/>
			<path id="XMLID_75_" class="st0" d="M1248.6,206.7c0-3.3,0.8-5.9,2.3-7.6c1.5-1.7,3.7-2.6,6.5-2.6c2.9,0,5.1,0.9,6.7,2.6
				c1.6,1.7,2.4,4.2,2.4,7.6c0,3.2-0.8,5.7-2.5,7.5c-1.6,1.7-3.9,2.6-6.7,2.6c-2.5,0-4.6-0.8-6.3-2.3
				C1249.4,212.8,1248.6,210.3,1248.6,206.7z"/>
			<path id="XMLID_77_" class="st0" d="M1302.8,206.7c0-3.3,0.8-5.9,2.3-7.6c1.5-1.7,3.7-2.6,6.5-2.6c2.9,0,5.1,0.9,6.7,2.6
				c1.6,1.7,2.4,4.2,2.4,7.6c0,3.2-0.8,5.7-2.5,7.5c-1.6,1.7-3.9,2.6-6.7,2.6c-2.5,0-4.6-0.8-6.3-2.3
				C1303.7,212.8,1302.8,210.3,1302.8,206.7z"/>
			<path id="XMLID_79_" class="st0" d="M1357.1,206.7c0-3.3,0.8-5.9,2.3-7.6c1.5-1.7,3.7-2.6,6.5-2.6c2.9,0,5.1,0.9,6.7,2.6
				c1.6,1.7,2.4,4.2,2.4,7.6c0,3.2-0.8,5.7-2.5,7.5c-1.6,1.7-3.9,2.6-6.7,2.6c-2.5,0-4.6-0.8-6.3-2.3
				C1357.9,212.8,1357.1,210.3,1357.1,206.7z"/>
			<path id="XMLID_87_" class="st0" d="M1411.3,206.7c0-3.3,0.8-5.9,2.3-7.6c1.5-1.7,3.7-2.6,6.5-2.6c2.9,0,5.1,0.9,6.7,2.6
				c1.6,1.7,2.4,4.2,2.4,7.6c0,3.2-0.8,5.7-2.5,7.5c-1.6,1.7-3.9,2.6-6.7,2.6c-2.5,0-4.6-0.8-6.3-2.3
				C1412.1,212.8,1411.3,210.3,1411.3,206.7z"/>
			<path id="XMLID_231_" class="st0" d="M1465.5,206.7c0-3.3,0.8-5.9,2.3-7.6c1.5-1.7,3.7-2.6,6.5-2.6c2.9,0,5.1,0.9,6.7,2.6
				c1.6,1.7,2.4,4.2,2.4,7.6c0,3.2-0.8,5.7-2.5,7.5c-1.6,1.7-3.9,2.6-6.7,2.6c-2.5,0-4.6-0.8-6.3-2.3
				C1466.3,212.8,1465.5,210.3,1465.5,206.7z"/>
			<path id="XMLID_239_" class="st0" d="M1519.7,206.7c0-3.3,0.8-5.9,2.3-7.6c1.5-1.7,3.7-2.6,6.5-2.6c2.9,0,5.1,0.9,6.7,2.6
				c1.6,1.7,2.4,4.2,2.4,7.6c0,3.2-0.8,5.7-2.5,7.5c-1.6,1.7-3.9,2.6-6.7,2.6c-2.5,0-4.6-0.8-6.3-2.3
				C1520.6,212.8,1519.7,210.3,1519.7,206.7z"/>
			<path id="XMLID_241_" class="st0" d="M1574,206.7c0-3.3,0.8-5.9,2.3-7.6c1.5-1.7,3.7-2.6,6.5-2.6c2.9,0,5.1,0.9,6.7,2.6
				c1.6,1.7,2.4,4.2,2.4,7.6c0,3.2-0.8,5.7-2.5,7.5c-1.6,1.7-3.9,2.6-6.7,2.6c-2.5,0-4.6-0.8-6.3-2.3
				C1574.8,212.8,1574,210.3,1574,206.7z"/>
			<path id="XMLID_243_" class="st0" d="M1628.2,206.7c0-3.3,0.8-5.9,2.3-7.6c1.5-1.7,3.7-2.6,6.5-2.6c2.9,0,5.1,0.9,6.7,2.6
				c1.6,1.7,2.4,4.2,2.4,7.6c0,3.2-0.8,5.7-2.5,7.5c-1.6,1.7-3.9,2.6-6.7,2.6c-2.5,0-4.6-0.8-6.3-2.3
				C1629,212.8,1628.2,210.3,1628.2,206.7z"/>
		</g>
	</g>
</g>
</svg>
