<?xml version="1.0" encoding="utf-8"?>
<!-- Generator: Adobe Illustrator 19.0.0, SVG Export Plug-In . SVG Version: 6.00 Build 0)  -->
<svg version="1.1" id="Camada_1" xmlns="http://www.w3.org/2000/svg" xmlns:xlink="http://www.w3.org/1999/xlink" x="0px" y="0px"
	 viewBox="0 0 280 120" style="enable-background:new 0 0 280 120;" xml:space="preserve">
<style type="text/css">
	.st0{fill:#BDA882;}
</style>
<g id="XMLID_4_">
	<path id="XMLID_5_" class="st0" d="M51.2,40.1c0,0.2-0.1,0.3-0.2,0.4c-0.1,0.1-0.2,0.2-0.3,0.3c-0.1,0.1-0.2,0.2-0.3,0.3
		c-0.1,0.1-0.2,0.3-0.2,0.4c0,0.4-0.2,0.7-0.6,0.9c-0.3,0.2-0.7,0.4-1.2,0.4c-0.4,0-1,0-2-0.1c-0.9,0-2-0.1-3.1-0.1
		c-1.3,0-2.6,0-4,0.1c-1.4,0.1-2.7,0.2-4,0.5c-1.3,0.2-2.5,0.5-3.7,0.8c-1.2,0.3-2.2,0.8-3,1.3c-0.9,0.5-1.5,1.1-2.1,1.8
		c-0.5,0.7-0.8,1.5-0.8,2.3c0,0.8,0.1,1.6,0.4,2.3s0.6,1.4,1,2.1c0.4,0.6,0.8,1.2,1.2,1.6c0.4,0.5,0.7,0.8,0.9,1
		c0.2,0.1,0.2,0.3,0.2,0.5c0,0.3-0.4,0.5-1.2,0.5c-0.2,0-0.5,0-0.9-0.1c-0.4-0.1-0.8-0.2-1.2-0.4s-0.9-0.5-1.4-0.8s-0.9-0.8-1.3-1.3
		c-0.4-0.5-0.7-1.1-0.9-1.9c-0.2-0.7-0.4-1.6-0.4-2.5c0-1.4,0.4-2.8,1.1-4.1c0.7-1.3,1.7-2.5,2.9-3.5s2.6-1.9,4.3-2.6
		c1.6-0.7,3.4-1.2,5.2-1.4c0.9-0.1,1.7-0.3,2.6-0.4s1.8-0.2,2.7-0.2c0.9-0.1,1.7-0.1,2.6-0.1c0.8,0,1.6,0,2.3,0c1.3,0,2.3,0,3.1,0.1
		c0.7,0.1,1.3,0.2,1.7,0.3c0.4,0.1,0.6,0.3,0.7,0.4c0.1,0.2,0.1,0.3,0.1,0.4c0,0.1,0,0.2-0.1,0.3S51.2,39.9,51.2,40.1z M40.4,44.3
		c0,0.1,0,0.6,0,1.4c0,0.8-0.1,1.9-0.1,3.2c-0.1,1.3-0.1,2.7-0.2,4.4c-0.1,1.6-0.1,3.3-0.2,5c-0.1,1.7-0.1,3.4-0.2,5.1
		s-0.1,3.2-0.2,4.6s-0.1,2.6-0.1,3.6c0,1,0,1.6,0,2c0,0.2,0,0.4-0.1,0.5s-0.1,0.4-0.2,0.5c-0.1,0.2-0.3,0.3-0.5,0.5
		c-0.2,0.1-0.5,0.2-0.8,0.3c-0.3,0-0.6,0.1-0.8,0.3s-0.4,0.2-0.6,0.4c-0.2,0.1-0.4,0.2-0.5,0.3s-0.3,0.1-0.4,0.1
		c-0.1,0-0.1,0-0.2-0.1c0-0.1-0.1-0.2-0.1-0.3c0-0.1,0-0.2,0-0.3s0-0.2,0-0.3c0-1,0.1-2.7,0.1-5.1c0-1,0.1-2.2,0.1-3.6
		c0.1-1.4,0.1-3.1,0.2-5c0.1-1.9,0.2-4.1,0.3-6.5c0.1-2.4,0.2-5.1,0.4-8.2c0-0.7,0.2-1.3,0.4-1.8c0.2-0.5,0.6-0.8,1.2-0.9
		c0.3-0.1,0.6-0.2,0.8-0.3c0.2-0.2,0.5-0.3,0.6-0.5c0.2-0.2,0.4-0.3,0.5-0.4c0.1-0.1,0.3-0.2,0.4-0.2c0.1,0,0.2,0.1,0.2,0.4
		C40.4,43.6,40.4,43.9,40.4,44.3z"/>
	<path id="XMLID_8_" class="st0" d="M61.3,64.8c-0.5,1.4-1,2.7-1.4,3.8s-0.8,2-1.3,2.8c-0.4,0.7-0.9,1.3-1.4,1.7s-1.1,0.6-1.7,0.6
		c-0.6,0-1-0.2-1.4-0.5c-0.4-0.3-0.7-0.8-0.9-1.3c-0.2-0.5-0.4-1.1-0.5-1.7s-0.1-1.2-0.1-1.8c0-0.4,0-0.8,0-1.2s0-0.8,0-1.1
		c-0.4,1.4-0.7,2.7-1.1,3.6s-0.7,1.8-1.1,2.3c-0.4,0.6-0.8,1-1.2,1.3s-0.9,0.4-1.3,0.4c-0.3,0-0.7-0.1-1-0.3s-0.7-0.5-1-1
		s-0.5-1.2-0.7-2.1c-0.2-0.9-0.3-2.1-0.3-3.5c0-0.4,0-0.8,0-1.3c0-0.5,0-1,0.1-1.6s0.1-1.1,0.2-1.7c0.1-0.5,0.2-1,0.3-1.5
		c0-0.2,0.1-0.4,0.2-0.7c0.1-0.3,0.2-0.5,0.2-0.5c0.2-0.2,0.3-0.3,0.5-0.4c0.1-0.1,0.2-0.2,0.3-0.2c0.1,0,0.2,0,0.3,0.1
		c0.1,0.1,0.2,0.1,0.2,0.1c0,0,0.1,0,0.3-0.1c0.1-0.1,0.3-0.2,0.5-0.3c0.2-0.1,0.3-0.2,0.5-0.3c0.2-0.1,0.3-0.1,0.3-0.1
		c0.2,0,0.3,0.2,0.3,0.5c0,0.1,0,0.2,0,0.3c0,0.1,0,0.3-0.1,0.5c-0.1,1-0.2,2-0.3,3c-0.1,1-0.1,2-0.1,3.1c0,0.6,0,1.2,0,1.7
		c0,0.5,0.1,0.9,0.1,1.3s0.2,0.7,0.3,0.9c0.1,0.2,0.3,0.3,0.5,0.3c0.3,0,0.6-0.2,0.9-0.6c0.3-0.4,0.5-1,0.8-1.7s0.5-1.4,0.7-2.3
		c0.2-0.8,0.4-1.6,0.6-2.4c0.2-0.8,0.4-1.5,0.6-2.2s0.4-1.2,0.6-1.5c0.2-0.3,0.5-0.6,0.8-0.8c0.3-0.2,0.7-0.3,1-0.3
		c0.4,0,0.6,0.1,0.8,0.4s0.2,0.8,0.2,1.6c0,0.6,0,1.1,0,1.6c0,0.5-0.1,1-0.1,1.5c0,0.5-0.1,1.1-0.1,1.7c0,0.6,0,1.3,0,2
		c0,0.7,0,1.2,0.1,1.6s0.1,0.7,0.2,1s0.2,0.4,0.3,0.5c0.1,0.1,0.2,0.1,0.3,0.1c0.3,0,0.5-0.1,0.8-0.4s0.5-0.6,0.7-1.1s0.5-1,0.8-1.7
		s0.6-1.4,0.9-2.3c0.1-0.2,0.2-0.3,0.3-0.5c0.1-0.1,0.2-0.2,0.4-0.2c0.1,0,0.2,0,0.3,0.1s0.1,0.2,0.1,0.3
		C61.4,64.6,61.4,64.7,61.3,64.8z"/>
	<path id="XMLID_10_" class="st0" d="M76.1,64.1c0.1,0,0.2,0,0.3,0.1s0.1,0.2,0.1,0.3c0,0.1,0,0.2-0.1,0.3c-0.4,1.3-0.8,2.4-1.2,3.4
		s-0.8,1.9-1.1,2.6c-0.4,0.8-0.9,1.5-1.4,2.1c-0.5,0.5-1.2,0.8-2.1,0.8c-0.3,0-0.7-0.1-1-0.2s-0.6-0.3-0.9-0.7
		c-0.3-0.3-0.5-0.8-0.8-1.3c-0.2-0.6-0.4-1.3-0.5-2.1c-0.3,0.5-0.5,1-0.9,1.6s-0.7,1-1.1,1.4s-0.8,0.7-1.3,1c-0.5,0.3-1,0.4-1.6,0.4
		c-0.4,0-0.8-0.1-1.2-0.4s-0.7-0.6-1-1.1c-0.3-0.5-0.5-1.1-0.6-1.7c-0.2-0.7-0.2-1.4-0.2-2.2c0-0.9,0.1-1.7,0.2-2.5
		c0.2-0.8,0.4-1.6,0.6-2.4s0.6-1.5,1-2.1c0.4-0.6,0.8-1.2,1.3-1.7c0.8-0.8,1.6-1.4,2.4-1.8c0.8-0.4,1.4-0.6,2-0.6c0.1,0,0.1,0,0.2,0
		s0.1,0,0.2,0c0.1-0.8,0.1-1.6,0.2-2.5c0.1-0.9,0.2-1.8,0.3-2.8c0.2-1.3,0.3-2.3,0.4-3.2c0.1-0.9,0.3-1.6,0.4-2.3
		c0.1-0.6,0.3-1.2,0.4-1.6c0.1-0.4,0.3-0.9,0.5-1.3c0.1-0.2,0.2-0.4,0.4-0.6c0.1-0.2,0.3-0.3,0.4-0.4c0.2-0.1,0.3-0.3,0.5-0.4
		c0.2-0.2,0.4-0.3,0.6-0.6c0.4-0.4,0.8-0.7,1-0.9s0.5-0.3,0.7-0.3c0.2,0,0.3,0,0.5,0.1C74,40.6,74,40.8,74,41c0,0.1,0,0.2,0,0.3
		c0,0.1,0,0.2-0.1,0.3c-0.1,0.2-0.2,0.7-0.3,1.3c-0.1,0.6-0.3,1.4-0.5,2.3c-0.2,0.9-0.4,1.9-0.6,3c-0.2,1.1-0.4,2.3-0.5,3.5
		c-0.2,1.4-0.3,2.7-0.5,4.1c-0.1,1.4-0.3,2.7-0.3,3.9c-0.1,1.3-0.2,2.4-0.2,3.6s-0.1,2.1-0.1,3c0,0.6,0,1.1,0.1,1.6
		c0,0.5,0.1,0.9,0.2,1.3s0.2,0.6,0.4,0.8s0.4,0.3,0.6,0.3c0.3,0,0.5-0.1,0.8-0.4c0.2-0.2,0.5-0.6,0.7-1s0.5-1,0.8-1.7
		c0.3-0.7,0.6-1.4,0.9-2.3C75.6,64.3,75.8,64.1,76.1,64.1z M67.3,60.2c0-0.7-0.3-1-0.9-1c-0.5,0-0.9,0.2-1.3,0.5
		c-0.4,0.3-0.8,0.8-1.1,1.4c-0.3,0.6-0.6,1.3-0.8,2.1s-0.3,1.7-0.3,2.7c0,1.1,0.2,1.9,0.5,2.6c0.3,0.7,0.9,1,1.6,1
		c0.4,0,0.7-0.1,1-0.3c0.3-0.2,0.5-0.5,0.7-0.9s0.3-0.7,0.4-1.2s0.2-0.8,0.2-1.2c0-0.6,0-1.1,0-1.6c0-0.5,0-1.1,0-1.6
		c0-0.5,0-1,0-1.4C67.3,60.9,67.3,60.5,67.3,60.2z"/>
	<path id="XMLID_13_" class="st0" d="M85.1,64.1c0.1,0,0.2,0,0.3,0.1c0.1,0.1,0.1,0.2,0.1,0.3c0,0.1,0,0.2-0.1,0.3
		c-0.4,1.1-0.7,2.1-1,2.9c-0.3,0.9-0.6,1.7-1,2.3c-0.5,1-0.9,1.8-1.4,2.4c-0.4,0.5-0.9,0.9-1.5,1.1c-0.1,0-0.3,0.1-0.4,0.1
		c-0.2,0-0.3,0-0.5,0c-0.4,0-0.8-0.1-1.3-0.2c-0.5-0.2-0.9-0.5-1.3-0.9s-0.7-1.1-1-1.9c-0.3-0.8-0.4-1.9-0.4-3.2
		c0-1.2,0-2.3,0.1-3.4c0.1-1.1,0.2-2.2,0.4-3.3c0.2-0.5,0.5-1,0.9-1.4s0.7-0.8,1.1-1.1c0.4-0.3,0.7-0.5,1-0.7
		c0.3-0.2,0.5-0.2,0.7-0.2c0.1,0,0.1,0.1,0.1,0.2c0,0.1,0,0.4-0.1,0.7s-0.1,0.8-0.1,1.3c0,0.6-0.1,1.3-0.2,2.2
		c-0.1,0.9-0.1,2-0.1,3.2c0,0.7,0,1.4,0.1,2s0.2,1.2,0.4,1.6s0.4,0.8,0.6,1.1c0.2,0.3,0.5,0.4,0.8,0.4c0.3,0,0.5-0.1,0.8-0.4
		s0.5-0.6,0.7-1.1c0.2-0.5,0.5-1,0.8-1.7c0.3-0.7,0.5-1.4,0.8-2.1C84.6,64.3,84.8,64.1,85.1,64.1z M81.9,47.8c0,0.1,0.1,0.2,0.1,0.3
		c0,0.3-0.2,0.6-0.6,1c-0.3,0.3-0.6,0.6-0.9,0.9c-0.3,0.3-0.5,0.5-0.8,0.7c-0.2,0.2-0.4,0.4-0.6,0.5c-0.2,0.1-0.3,0.2-0.4,0.2
		c-0.1,0-0.2,0-0.2,0c-0.1,0-0.1-0.1-0.2-0.2c-0.2-0.4-0.4-0.8-0.6-1.2c-0.2-0.4-0.4-0.8-0.5-1.1c-0.2-0.4-0.3-0.7-0.4-0.9
		s-0.1-0.5-0.1-0.5c0-0.2,0.1-0.4,0.2-0.6c0.1-0.1,0.2-0.3,0.5-0.6c0.2-0.3,0.5-0.6,0.8-0.9c0.3-0.3,0.5-0.6,0.8-0.9
		c0.2-0.3,0.4-0.4,0.5-0.5c0.2-0.2,0.4-0.3,0.5-0.3c0.1,0,0.3,0.1,0.3,0.3c0,0.1,0.2,0.4,0.3,0.7c0.2,0.4,0.4,0.8,0.5,1.2
		c0.2,0.4,0.4,0.8,0.6,1.2C81.7,47.5,81.8,47.7,81.9,47.8z"/>
	<path id="XMLID_16_" class="st0" d="M99,64.1c0.1,0,0.2,0,0.3,0.1c0.1,0.1,0.1,0.2,0.1,0.3c0,0.1,0,0.3-0.1,0.4
		c-0.4,1-0.9,1.7-1.7,2.2c-0.7,0.5-1.5,0.7-2.4,0.7h0c-0.3,0.8-0.6,1.5-1,2.3c-0.4,0.7-0.8,1.3-1.3,1.9c-0.5,0.5-1.1,1-1.7,1.3
		c-0.6,0.3-1.3,0.5-2.1,0.5c-0.7,0-1.3-0.1-1.8-0.4s-0.9-0.7-1.2-1.1c-0.3-0.5-0.6-1-0.8-1.6c-0.2-0.6-0.3-1.2-0.4-1.9
		c-0.1-0.7-0.1-1.3-0.2-2c0-0.7,0-1.3,0-1.8c0-0.5,0-1.2,0.1-2.2c0-1,0.1-2.1,0.2-3.2c0.1-1.2,0.2-2.5,0.3-3.8
		c0.1-1.3,0.3-2.6,0.4-3.9c0.2-1.3,0.3-2.3,0.4-3.2c0.1-0.9,0.3-1.6,0.4-2.3c0.1-0.6,0.2-1.2,0.4-1.6c0.1-0.4,0.3-0.8,0.4-1.2
		c0.1-0.2,0.2-0.4,0.3-0.6c0.1-0.1,0.3-0.3,0.4-0.4c0.2-0.1,0.3-0.3,0.5-0.4c0.2-0.1,0.4-0.3,0.6-0.5c0.4-0.4,0.7-0.7,1-0.8
		c0.3-0.1,0.5-0.2,0.7-0.2c0.3,0,0.5,0.2,0.5,0.7c0,0.1,0,0.3,0,0.4c0,0.1,0,0.3-0.1,0.4c-0.1,0.5-0.3,1.2-0.5,2.1
		c-0.2,0.9-0.4,2-0.6,3.2c-0.2,1.2-0.4,2.5-0.7,4c-0.2,1.5-0.4,3-0.6,4.6c-0.2,1.6-0.3,3.3-0.5,5c-0.1,1.7-0.2,3.4-0.2,5.1
		c0,1,0,1.9,0.1,2.6c0.1,0.7,0.2,1.3,0.4,1.7c0.2,0.4,0.3,0.8,0.6,1c0.2,0.2,0.5,0.3,0.7,0.3c0.4,0,0.7-0.1,1-0.4
		c0.3-0.3,0.5-0.6,0.7-1s0.4-0.9,0.5-1.5c0.1-0.6,0.2-1.1,0.3-1.8c-0.5-0.3-0.9-0.7-1.3-1.2c-0.4-0.5-0.7-0.9-1-1.5
		c-0.3-0.5-0.5-1.1-0.7-1.6c-0.2-0.6-0.2-1.1-0.2-1.6c0-0.5,0.1-1,0.2-1.5s0.4-0.9,0.6-1.2c0.3-0.4,0.6-0.6,1.1-0.8
		c0.4-0.2,0.9-0.3,1.5-0.3c0.5,0,0.9,0.1,1.3,0.3c0.4,0.2,0.8,0.5,1.1,0.9c0.3,0.4,0.6,0.9,0.7,1.5c0.2,0.6,0.3,1.3,0.3,2.1
		c0,0.7,0,1.5-0.1,2.2c-0.1,0.8-0.3,1.6-0.5,2.3c0.6,0,1.2-0.2,1.7-0.6c0.5-0.4,0.9-0.8,1.1-1.4C98.5,64.3,98.7,64.1,99,64.1z
		 M92.1,64.7c0.1,0.1,0.2,0.3,0.2,0.4c0.1,0.1,0.2,0.2,0.2,0.3c0-0.1,0-0.3,0-0.4s0-0.3,0-0.4c0-0.8,0-1.5-0.1-2.1
		c-0.1-0.6-0.2-1-0.3-1.4c-0.1-0.3-0.3-0.6-0.5-0.8c-0.2-0.2-0.4-0.3-0.6-0.3c-0.2,0.3-0.3,0.7-0.3,1.1c0,0.6,0.1,1.2,0.4,1.8
		C91.4,63.6,91.7,64.1,92.1,64.7z"/>
	<path id="XMLID_19_" class="st0" d="M103.7,71.6c0.4,0,0.7-0.1,1-0.4s0.5-0.6,0.7-1c0.2-0.4,0.4-0.9,0.5-1.5
		c0.1-0.6,0.2-1.1,0.3-1.7c-0.5-0.3-0.9-0.7-1.4-1.3c-0.4-0.5-0.9-1.2-1.2-1.9c-0.2-0.4-0.4-0.9-0.5-1.4s-0.1-0.9-0.1-1.3
		c0-0.5,0.1-1,0.2-1.5c0.1-0.5,0.4-0.9,0.6-1.2c0.3-0.3,0.6-0.6,1.1-0.8c0.4-0.2,0.9-0.3,1.5-0.3c0.7,0,1.3,0.2,1.7,0.5
		c0.4,0.3,0.8,0.8,1.1,1.3c0.3,0.5,0.4,1.1,0.5,1.7c0.1,0.6,0.2,1.2,0.2,1.7c0,0.7,0,1.4-0.1,2.1c-0.1,0.7-0.2,1.4-0.4,2.2
		c0.6,0,1.1-0.2,1.6-0.5c0.5-0.3,0.9-0.8,1.2-1.5c0.2-0.4,0.4-0.6,0.6-0.6c0.1,0,0.2,0,0.3,0.1c0.1,0.1,0.1,0.2,0.1,0.3
		c0,0.1,0,0.2-0.1,0.3c-0.3,0.9-0.9,1.7-1.6,2.2c-0.8,0.5-1.6,0.8-2.5,0.8c-0.3,0.8-0.6,1.5-1,2.3c-0.4,0.7-0.9,1.3-1.4,1.9
		s-1.1,1-1.8,1.3c-0.7,0.3-1.4,0.5-2.3,0.5c-0.4,0-0.9-0.1-1.5-0.2c-0.6-0.1-1.1-0.4-1.6-0.8s-0.9-1-1.2-1.8c-0.3-0.8-0.5-1.8-0.5-3
		c0-1,0.2-2.1,0.6-3.2c0.4-1.1,1-2.3,1.9-3.4c0.3-0.4,0.7-0.7,0.9-0.9c0.3-0.2,0.5-0.3,0.7-0.3c0.4,0,0.5,0.2,0.5,0.7
		c0,0.2-0.1,0.4-0.2,0.7c-0.1,0.3-0.3,0.7-0.4,1.1s-0.3,1-0.4,1.6c-0.1,0.6-0.2,1.4-0.2,2.2c0,1.6,0.2,2.9,0.7,3.8
		C102.3,71.1,102.9,71.6,103.7,71.6z M106.4,64.4c0-1.7-0.2-2.9-0.5-3.6c-0.3-0.7-0.7-1-1-0.9c-0.2,0.1-0.3,0.2-0.3,0.4
		c0,0.2,0,0.4,0,0.7c0,0.4,0,0.7,0.1,1.1s0.2,0.8,0.4,1.2c0.2,0.4,0.3,0.8,0.6,1.1c0.2,0.4,0.5,0.7,0.7,1c0-0.2,0-0.3,0-0.5
		S106.4,64.6,106.4,64.4z"/>
	<path id="XMLID_22_" class="st0" d="M135.6,64.1c0.2,0,0.3,0.1,0.3,0.4c0,0.1,0,0.2-0.1,0.4c-0.4,1.1-0.7,2.1-1.1,3
		c-0.3,0.9-0.7,1.7-1,2.4c-0.2,0.4-0.4,0.9-0.6,1.3c-0.2,0.4-0.5,0.8-0.8,1.1s-0.6,0.6-1,0.8c-0.4,0.2-0.8,0.3-1.3,0.3
		c-0.3,0-0.6,0-1-0.1c-0.3-0.1-0.6-0.3-0.9-0.5c-0.3-0.2-0.5-0.5-0.7-0.9c-0.2-0.4-0.3-0.9-0.4-1.5c0-0.4-0.1-0.7-0.1-1.1
		c0-0.4,0-0.8,0-1.2c0-0.9,0-1.7,0.1-2.5c0-0.8,0.1-1.4,0.1-1.8c0-0.3-0.1-0.6-0.2-0.7c-0.1-0.1-0.2-0.2-0.4-0.2
		c-0.2,0-0.3,0.1-0.4,0.2c-0.1,0.1-0.2,0.3-0.2,0.5c-0.1,0.2-0.2,0.5-0.4,1c-0.2,0.5-0.3,1-0.5,1.6c-0.2,0.6-0.4,1.2-0.6,1.9
		c-0.2,0.7-0.4,1.3-0.6,1.8c-0.2,0.7-0.5,1.3-0.7,1.7c-0.2,0.4-0.4,0.8-0.6,1c-0.2,0.2-0.4,0.4-0.6,0.5s-0.4,0.1-0.6,0.1
		c-0.2,0-0.3,0-0.5-0.1c-0.2-0.1-0.3-0.2-0.5-0.3c-0.2-0.1-0.3-0.3-0.4-0.6c-0.1-0.3-0.2-0.6-0.2-0.9c0-0.3,0-0.5,0-0.8s0-0.5,0-0.8
		c0-0.6,0-1.2,0-1.8c0-0.6,0-1.2,0.1-1.7c0-0.5,0-1,0.1-1.4c0-0.4,0-0.7,0-1c0-0.3-0.1-0.6-0.2-0.7c-0.1-0.1-0.2-0.2-0.4-0.2
		c-0.1,0-0.3,0.1-0.4,0.2c-0.1,0.1-0.2,0.3-0.3,0.5c-0.1,0.2-0.2,0.5-0.4,1c-0.2,0.5-0.3,1.1-0.5,1.7c-0.2,0.6-0.4,1.3-0.6,2
		c-0.2,0.7-0.4,1.3-0.6,1.8c-0.3,0.7-0.5,1.3-0.7,1.8c-0.2,0.4-0.4,0.8-0.6,1c-0.2,0.2-0.4,0.4-0.6,0.5c-0.2,0.1-0.4,0.1-0.6,0.1
		c-0.2,0-0.3,0-0.5-0.1c-0.2-0.1-0.3-0.2-0.5-0.3c-0.2-0.2-0.3-0.4-0.4-0.6c-0.1-0.3-0.2-0.6-0.2-0.9c0-0.5,0-0.9,0-1.3s0-0.8,0-1.2
		c0-0.6,0-1.2,0-1.8c0-0.6,0-1.3,0.1-2.2c0-0.7,0.1-1.4,0.2-2.1c0.1-0.7,0.2-1.2,0.3-1.7c0.1-0.5,0.2-0.9,0.3-1.2
		c0.1-0.3,0.2-0.5,0.3-0.6c0.1-0.1,0.2-0.3,0.4-0.4c0.1-0.1,0.3-0.2,0.4-0.2c0.1,0,0.2,0,0.3,0.1c0.1,0.1,0.1,0.1,0.2,0.1
		c0.1,0,0.2,0,0.4-0.1c0.1-0.1,0.3-0.2,0.5-0.3c0.1-0.1,0.2-0.1,0.3-0.2c0.1-0.1,0.2-0.1,0.4-0.1c0.2,0,0.3,0.2,0.3,0.6
		c0,0.1,0,0.4-0.1,0.8c0,0.4-0.1,0.8-0.1,1.2c0,0.7-0.1,1.4-0.1,2.1c0,0.7-0.1,1.3-0.1,1.9c0,0.6-0.1,1.1-0.1,1.5c0,0.4,0,0.7,0,0.9
		c0,0.3,0,0.4,0,0.4c0,0,0.1-0.2,0.2-0.5c0.1-0.3,0.3-0.7,0.5-1.2c0.2-0.5,0.4-1.1,0.6-1.7c0.2-0.6,0.5-1.3,0.7-1.9
		c0.3-0.6,0.5-1.2,0.8-1.8c0.3-0.6,0.5-1,0.8-1.4c0.3-0.5,0.7-0.8,1-1c0.4-0.2,0.7-0.4,1-0.4c0.7,0,1.1,0.4,1.3,1.3
		c0.2,0.9,0.3,2.1,0.3,3.8c0,0.7,0,1.5,0,2.3c0,0.8,0,1.6,0,2.3c0,0.1,0,0.1,0,0.1c0,0,0.1-0.2,0.2-0.5c0.1-0.3,0.3-0.7,0.5-1.2
		c0.2-0.5,0.4-1.1,0.6-1.7s0.5-1.3,0.8-1.9c0.3-0.6,0.5-1.2,0.8-1.8c0.3-0.6,0.5-1,0.8-1.4c0.3-0.4,0.7-0.8,1-1
		c0.4-0.2,0.7-0.4,1-0.4c0.3,0,0.5,0.1,0.8,0.3c0.2,0.2,0.4,0.4,0.5,0.8c0.1,0.3,0.2,0.7,0.3,1.2c0.1,0.4,0.1,0.9,0.1,1.5
		c0,0.3,0,0.7,0,1.1c0,0.4,0,0.9-0.1,1.3c0,0.5,0,1-0.1,1.5c0,0.5,0,0.9,0,1.4c0,0.6,0,1.2,0.1,1.6c0.1,0.4,0.1,0.7,0.2,1
		s0.2,0.4,0.3,0.5c0.1,0.1,0.3,0.1,0.4,0.1c0.3,0,0.6-0.1,0.8-0.4c0.2-0.3,0.5-0.6,0.7-1.1c0.2-0.5,0.5-1,0.7-1.7
		c0.2-0.6,0.5-1.3,0.8-2.1C135,64.3,135.3,64.1,135.6,64.1z"/>
	<path id="XMLID_24_" class="st0" d="M174.3,56.9c0,2.2-0.2,4.3-0.6,6.1s-0.9,3.5-1.6,4.9c-0.7,1.4-1.4,2.7-2.3,3.7
		c-0.9,1.1-1.8,1.9-2.7,2.6c-1,0.7-1.9,1.2-2.9,1.5s-1.9,0.5-2.8,0.5c-0.7,0-1.3-0.1-1.9-0.4c-0.6-0.2-1.1-0.6-1.6-1
		c-0.5-0.4-0.8-1-1.1-1.6c-0.3-0.6-0.4-1.3-0.4-2.1c0-0.3,0-0.6,0.1-0.7c0.1-0.1,0.2-0.2,0.3-0.2c0.2,0,0.3,0.2,0.4,0.5
		c0.3,1,0.8,1.7,1.5,2.2c0.6,0.5,1.4,0.8,2.4,0.8c1.2,0,2.4-0.4,3.4-1.2c1-0.8,1.9-2,2.6-3.6c0.7-1.6,1.3-3.5,1.6-5.8
		s0.6-4.9,0.6-7.8c0-1.9-0.2-3.7-0.6-5.3c-0.4-1.6-1.1-3-1.9-4.2c-0.9-1.2-2-2.1-3.3-2.7c-1.3-0.7-3-1-4.8-1c-1.2,0-2.3,0.1-3.5,0.4
		c-1.2,0.3-2.2,0.7-3.2,1.3c-1,0.6-1.7,1.4-2.3,2.3c-0.6,0.9-0.9,2.1-0.9,3.3c0,0.7,0.1,1.4,0.3,2.1c0.2,0.7,0.4,1.3,0.7,1.8
		c0.3,0.6,0.5,1,0.8,1.4c0.3,0.4,0.4,0.7,0.5,0.8c0.2,0.2,0.2,0.4,0.2,0.6c0,0.1-0.1,0.2-0.2,0.3c-0.1,0.1-0.3,0.1-0.6,0.1
		c-0.1,0-0.2,0-0.2,0c-0.1,0-0.2,0-0.3,0c-0.3,0-0.8-0.2-1.4-0.5c-0.6-0.3-1.1-0.7-1.7-1.3c-0.6-0.6-1.1-1.2-1.5-2.1
		c-0.4-0.8-0.6-1.8-0.6-2.9c0-0.7,0.1-1.6,0.4-2.5c0.3-0.9,0.7-1.8,1.2-2.6c0.5-0.9,1.2-1.7,2-2.5c0.8-0.8,1.7-1.5,2.8-2.2
		c1.1-0.6,2.2-1.1,3.5-1.5c1.3-0.4,2.7-0.6,4.3-0.6c2.3,0,4.2,0.3,5.9,1c1.6,0.7,3,1.5,4.2,2.6c1.1,1.1,2.1,2.3,2.7,3.6
		c0.7,1.4,1.2,2.7,1.6,4.1c0.4,1.4,0.6,2.7,0.8,4C174.3,54.9,174.3,56,174.3,56.9z M155.9,46.3c0.2-0.4,0.4-0.6,0.7-0.9
		s0.6-0.3,1-0.3c0.1,0,0.3,0,0.5,0.1c0.2,0.1,0.3,0.2,0.3,0.4c0,0.1,0,0.2,0,0.4c0,0.1-0.1,0.2-0.1,0.4c-0.3,1.4-0.5,2.8-0.8,4.2
		c-0.2,1.4-0.4,2.8-0.6,4.2c-0.2,1.4-0.3,2.7-0.4,4c-0.1,1.3-0.2,2.5-0.2,3.6c-0.1,1.1-0.1,2.1-0.1,2.9c0,0.8,0,1.5,0,2
		c0,1.6,0,2.9,0,3.9c0,1,0,1.7,0,2.2c0,0.1,0,0.2,0,0.3c0,0.1,0,0.2,0,0.3c0,0.1-0.1,0.2-0.2,0.3c-0.1,0.1-0.2,0.1-0.3,0.1
		c-0.2,0-0.4,0-0.6-0.1c-0.2-0.1-0.4-0.2-0.5-0.3c-0.2-0.1-0.3-0.2-0.5-0.3c-0.2-0.1-0.3-0.1-0.5-0.1c-0.2,0-0.3,0.1-0.4,0.2
		c-0.1,0.1-0.3,0.2-0.4,0.2c-0.2,0-0.4,0-0.5-0.1c-0.1-0.1-0.2-0.2-0.2-0.4s-0.1-0.3-0.1-0.5c0-0.2,0-0.3,0-0.4c0-0.6,0-1.5,0.1-2.7
		c0-1.2,0.1-2.6,0.2-4.2c0-0.9,0.1-2,0.2-3c0.1-1.1,0.2-2.2,0.3-3.2s0.2-2.1,0.3-3.1c0.1-1,0.2-1.9,0.3-2.8c0.1-0.8,0.2-1.6,0.2-2.1
		c0.1-0.6,0.1-1,0.2-1.2c0.1-0.7,0.2-1.3,0.4-1.8c0.1-0.5,0.3-0.8,0.4-1c0.1-0.1,0.3-0.3,0.4-0.4c0.1-0.1,0.3-0.2,0.5-0.3
		C155.4,46.3,155.7,46.3,155.9,46.3z"/>
	<path id="XMLID_27_" class="st0" d="M187.8,64.1c0.1,0,0.2,0,0.3,0.1c0.1,0.1,0.1,0.2,0.1,0.3s0,0.3-0.1,0.4
		c-0.2,0.7-0.5,1.3-0.8,1.9c-0.3,0.6-0.5,1.1-0.8,1.6c-0.3,0.5-0.6,1-0.9,1.5c-0.3,0.5-0.7,1-1.1,1.5c-0.4,0.5-0.9,0.9-1.4,1.3
		s-1,0.7-1.6,0.9c-0.6,0.2-1.2,0.3-1.8,0.3c-0.5,0-1-0.1-1.6-0.2c-0.6-0.2-1.1-0.5-1.6-0.9c-0.5-0.4-0.9-1-1.2-1.8
		c-0.3-0.8-0.5-1.8-0.5-3c0-0.6,0.1-1.1,0.2-1.7c0.1-0.6,0.3-1.1,0.4-1.6c0.2-0.5,0.4-1,0.6-1.5c0.2-0.5,0.5-0.9,0.7-1.2
		c0.4-0.6,0.9-1.1,1.3-1.6c0.5-0.5,0.9-1,1.4-1.3c0.5-0.4,0.9-0.7,1.4-0.9c0.5-0.2,0.9-0.3,1.3-0.3c0.6,0,1.2,0.2,1.6,0.7
		c0.5,0.5,0.7,1.1,0.7,2c0,0.8-0.2,1.6-0.6,2.4c-0.4,0.8-0.9,1.6-1.5,2.4s-1.2,1.5-1.9,2.2c-0.7,0.7-1.3,1.2-1.8,1.7
		c0.3,0.7,0.7,1.3,1.1,1.6c0.5,0.3,0.9,0.5,1.4,0.5c0.7,0,1.4-0.2,2-0.7c0.6-0.5,1.1-1,1.6-1.7c0.5-0.7,0.9-1.4,1.2-2.1
		c0.3-0.7,0.7-1.4,0.9-2c0.1-0.2,0.2-0.3,0.3-0.5C187.5,64.1,187.6,64.1,187.8,64.1z M178.3,65.2c0,1,0.1,1.8,0.2,2.5
		c0.3-0.3,0.7-0.7,1-1.1c0.3-0.4,0.6-0.8,0.9-1.3c0.3-0.4,0.5-0.9,0.7-1.3c0.2-0.5,0.3-0.9,0.3-1.3c0-0.7-0.1-1.2-0.4-1.5
		c-0.3-0.4-0.6-0.5-0.8-0.5c-0.2,0-0.3,0.1-0.5,0.3c-0.2,0.2-0.4,0.5-0.6,0.9c-0.2,0.4-0.3,0.9-0.5,1.4
		C178.4,63.8,178.3,64.5,178.3,65.2z"/>
	<path id="XMLID_30_" class="st0" d="M196.3,64.1c0.1,0,0.2,0,0.3,0.1c0.1,0.1,0.1,0.2,0.1,0.3c0,0.1,0,0.2-0.1,0.3
		c-0.3,0.9-0.6,1.8-0.9,2.6c-0.3,0.8-0.6,1.5-0.9,2.2c-0.3,0.6-0.5,1.2-0.8,1.6c-0.3,0.5-0.5,0.8-0.7,1.1c-0.2,0.3-0.5,0.6-0.7,0.7
		c-0.2,0.2-0.5,0.3-0.7,0.4c-0.2,0.1-0.5,0.1-0.9,0.1c-0.4,0-0.7-0.1-1.2-0.2c-0.4-0.2-0.8-0.5-1.2-0.9c-0.4-0.4-0.7-1.1-0.9-1.8
		c-0.2-0.8-0.4-1.8-0.4-3.1c0-0.3,0-0.9,0.1-1.7c0-0.8,0.1-1.8,0.2-2.9c0.1-1.1,0.2-2.4,0.3-3.9c0.1-1.4,0.2-3,0.4-4.6
		c0.1-1,0.2-2.1,0.3-3.3c0.1-1.2,0.2-2.3,0.4-3.5c0.1-1.1,0.3-2.2,0.4-3.1c0.1-0.9,0.2-1.7,0.3-2.2c0.1-0.6,0.3-1,0.7-1.3
		c0.3-0.3,0.7-0.7,1.1-1c0.1-0.1,0.3-0.3,0.5-0.5c0.2-0.2,0.3-0.3,0.5-0.5c0.2-0.1,0.3-0.3,0.5-0.4c0.2-0.1,0.3-0.2,0.5-0.2
		c0.2,0,0.3,0.1,0.3,0.3c0,0.2,0,0.5-0.1,1c-0.1,0.5-0.2,1.2-0.3,2.3c-0.1,1-0.3,2.4-0.5,4.2c-0.2,1.8-0.4,4-0.6,6.8
		c0,0.6-0.1,1.2-0.2,2c-0.1,0.8-0.1,1.6-0.2,2.4c-0.1,0.9-0.1,1.7-0.2,2.6c-0.1,0.9-0.1,1.7-0.2,2.5c0,0.8-0.1,1.5-0.1,2.2
		c0,0.7,0,1.2,0,1.6c0,1.1,0.1,2,0.4,2.6c0.2,0.6,0.6,1,1.2,1c0.3,0,0.6-0.1,0.8-0.4s0.5-0.7,0.7-1.1c0.2-0.5,0.5-1,0.7-1.7
		c0.2-0.6,0.5-1.3,0.8-2.1c0.1-0.2,0.2-0.3,0.3-0.5C196.1,64.1,196.2,64.1,196.3,64.1z"/>
	<path id="XMLID_32_" class="st0" d="M205.4,64.1c0.1,0,0.2,0,0.3,0.1c0.1,0.1,0.1,0.2,0.1,0.3c0,0.1,0,0.2-0.1,0.3
		c-0.4,1.1-0.7,2.1-1,2.9c-0.3,0.9-0.6,1.7-1,2.3c-0.5,1-0.9,1.8-1.4,2.4c-0.4,0.5-0.9,0.9-1.5,1.1c-0.1,0-0.3,0.1-0.4,0.1
		c-0.2,0-0.3,0-0.5,0c-0.4,0-0.8-0.1-1.3-0.2c-0.5-0.2-0.9-0.5-1.3-0.9c-0.4-0.5-0.7-1.1-1-1.9c-0.3-0.8-0.4-1.9-0.4-3.2
		c0-1.2,0-2.3,0.1-3.4c0.1-1.1,0.2-2.2,0.4-3.3c0.2-0.5,0.5-1,0.9-1.4c0.4-0.4,0.7-0.8,1.1-1.1c0.4-0.3,0.7-0.5,1-0.7
		c0.3-0.2,0.5-0.2,0.7-0.2c0.1,0,0.1,0.1,0.1,0.2c0,0.1,0,0.4-0.1,0.7c0,0.3-0.1,0.8-0.1,1.3c0,0.6-0.1,1.3-0.2,2.2
		c-0.1,0.9-0.1,2-0.1,3.2c0,0.7,0,1.4,0.1,2c0.1,0.6,0.2,1.2,0.4,1.6c0.2,0.5,0.4,0.8,0.6,1.1c0.2,0.3,0.5,0.4,0.8,0.4
		c0.3,0,0.5-0.1,0.8-0.4s0.5-0.6,0.7-1.1c0.2-0.5,0.5-1,0.8-1.7c0.3-0.7,0.5-1.4,0.8-2.1C204.9,64.3,205.1,64.1,205.4,64.1z
		 M202.1,47.8c0,0.1,0.1,0.2,0.1,0.3c0,0.3-0.2,0.6-0.6,1c-0.3,0.3-0.6,0.6-0.9,0.9c-0.3,0.3-0.5,0.5-0.8,0.7
		c-0.2,0.2-0.4,0.4-0.6,0.5c-0.2,0.1-0.3,0.2-0.4,0.2c-0.1,0-0.2,0-0.2,0c-0.1,0-0.1-0.1-0.2-0.2c-0.2-0.4-0.4-0.8-0.6-1.2
		c-0.2-0.4-0.4-0.8-0.5-1.1c-0.2-0.4-0.3-0.7-0.4-0.9s-0.1-0.5-0.1-0.5c0-0.2,0.1-0.4,0.2-0.6c0.1-0.1,0.2-0.3,0.5-0.6
		c0.2-0.3,0.5-0.6,0.8-0.9c0.3-0.3,0.5-0.6,0.8-0.9c0.2-0.3,0.4-0.4,0.5-0.5c0.2-0.2,0.4-0.3,0.5-0.3c0.1,0,0.3,0.1,0.3,0.3
		c0,0.1,0.2,0.4,0.3,0.7c0.2,0.4,0.4,0.8,0.5,1.2c0.2,0.4,0.4,0.8,0.6,1.2C202,47.5,202.1,47.7,202.1,47.8z"/>
	<path id="XMLID_35_" class="st0" d="M219.8,64.8c-0.3,0.9-0.8,1.7-1.5,2.2c-0.7,0.5-1.4,0.8-2.2,0.8c-0.4,0-0.8-0.1-1.2-0.2
		c-0.4,0.9-0.9,1.7-1.4,2.5s-1.1,1.4-1.7,1.9c-0.6,0.5-1.2,1-1.7,1.3c-0.6,0.3-1.1,0.5-1.6,0.5c-0.2,0-0.4-0.1-0.6-0.2
		s-0.3-0.3-0.5-0.5c-0.2-0.3-0.4-0.7-0.7-1.2s-0.6-1.2-0.8-2c-0.3-0.8-0.5-1.8-0.7-2.9c-0.2-1.1-0.3-2.4-0.3-3.8
		c0-0.7,0-1.2,0.1-1.7c0.1-0.4,0.2-0.8,0.3-1.1s0.2-0.5,0.3-0.7c0.1-0.2,0.2-0.3,0.3-0.4s0.2-0.2,0.3-0.3c0.1-0.1,0.2-0.1,0.2-0.1
		c0.1,0,0.2,0,0.3,0.1c0.1,0.1,0.2,0.1,0.2,0.1c0.1,0,0.2,0,0.3-0.1c0.1-0.1,0.3-0.2,0.4-0.3c0.1-0.1,0.3-0.2,0.4-0.3
		c0.1-0.1,0.2-0.1,0.3-0.1c0.1,0,0.2,0,0.2,0.1c0.1,0.1,0.1,0.2,0.1,0.5c0,0.2,0,0.4,0,0.6c0,0.2-0.1,0.4-0.1,0.7
		c0,0.3-0.1,0.6-0.1,1c0,0.4,0,0.9,0,1.5c0,1.8,0.2,3.5,0.6,5.1c0.4,1.6,0.9,2.9,1.6,3.9c0.2-0.2,0.3-0.5,0.5-0.8
		c0.2-0.3,0.4-0.7,0.6-1.1c0.2-0.4,0.4-1,0.6-1.6c0.2-0.6,0.3-1.3,0.5-2.1c-0.3-0.3-0.6-0.7-0.9-1.1c-0.3-0.4-0.5-0.9-0.8-1.4
		c-0.2-0.4-0.4-0.9-0.5-1.4s-0.1-0.9-0.1-1.3c0-0.5,0.1-1,0.2-1.4c0.1-0.5,0.3-0.9,0.6-1.2c0.2-0.3,0.5-0.6,0.8-0.8
		c0.3-0.2,0.7-0.3,1-0.3c0.9,0,1.6,0.4,2.2,1.2c0.6,0.8,0.9,1.9,0.9,3.4c0,0.8-0.1,1.6-0.2,2.4c-0.2,0.8-0.4,1.5-0.6,2.3
		c0.3,0.1,0.6,0.1,0.8,0.1c0.6,0,1.1-0.2,1.6-0.5c0.5-0.3,0.8-0.9,1.1-1.5c0.1-0.4,0.3-0.6,0.6-0.6c0.1,0,0.2,0,0.3,0.1
		c0.1,0.1,0.1,0.2,0.1,0.3C219.8,64.5,219.8,64.7,219.8,64.8z M211.7,61.1c0,0.5,0.1,1.1,0.3,1.7c0.2,0.6,0.5,1.2,0.9,1.7
		c0-0.3,0.1-0.7,0.1-1c0-0.4,0-0.8,0-1.2c0-0.8,0-1.5-0.1-2c-0.1-0.5-0.3-0.8-0.5-0.8c-0.1,0-0.2,0.1-0.3,0.2
		c-0.1,0.1-0.1,0.2-0.2,0.4c0,0.2-0.1,0.3-0.1,0.5C211.7,60.8,211.7,60.9,211.7,61.1z"/>
	<path id="XMLID_38_" class="st0" d="M231,64.1c0.1,0,0.2,0,0.3,0.1c0.1,0.1,0.1,0.2,0.1,0.3s0,0.3-0.1,0.4
		c-0.2,0.7-0.5,1.3-0.8,1.9c-0.3,0.6-0.5,1.1-0.8,1.6c-0.3,0.5-0.6,1-0.9,1.5c-0.3,0.5-0.7,1-1.1,1.5c-0.4,0.5-0.9,0.9-1.4,1.3
		s-1,0.7-1.6,0.9c-0.6,0.2-1.2,0.3-1.8,0.3c-0.5,0-1-0.1-1.6-0.2c-0.6-0.2-1.1-0.5-1.6-0.9c-0.5-0.4-0.9-1-1.2-1.8
		c-0.3-0.8-0.5-1.8-0.5-3c0-0.6,0.1-1.1,0.2-1.7c0.1-0.6,0.3-1.1,0.4-1.6c0.2-0.5,0.4-1,0.6-1.5c0.2-0.5,0.5-0.9,0.7-1.2
		c0.4-0.6,0.9-1.1,1.3-1.6c0.5-0.5,0.9-1,1.4-1.3c0.5-0.4,0.9-0.7,1.4-0.9c0.5-0.2,0.9-0.3,1.3-0.3c0.6,0,1.2,0.2,1.6,0.7
		c0.5,0.5,0.7,1.1,0.7,2c0,0.8-0.2,1.6-0.6,2.4c-0.4,0.8-0.9,1.6-1.5,2.4s-1.2,1.5-1.9,2.2c-0.7,0.7-1.3,1.2-1.8,1.7
		c0.3,0.7,0.7,1.3,1.1,1.6c0.5,0.3,0.9,0.5,1.4,0.5c0.7,0,1.4-0.2,2-0.7c0.6-0.5,1.1-1,1.6-1.7c0.5-0.7,0.9-1.4,1.2-2.1
		c0.3-0.7,0.7-1.4,0.9-2c0.1-0.2,0.2-0.3,0.3-0.5C230.7,64.1,230.8,64.1,231,64.1z M221.5,65.2c0,1,0.1,1.8,0.2,2.5
		c0.3-0.3,0.7-0.7,1-1.1c0.3-0.4,0.6-0.8,0.9-1.3c0.3-0.4,0.5-0.9,0.7-1.3c0.2-0.5,0.3-0.9,0.3-1.3c0-0.7-0.1-1.2-0.4-1.5
		c-0.3-0.4-0.6-0.5-0.8-0.5c-0.2,0-0.3,0.1-0.5,0.3c-0.2,0.2-0.4,0.5-0.6,0.9c-0.2,0.4-0.3,0.9-0.5,1.4
		C221.5,63.8,221.5,64.5,221.5,65.2z"/>
	<path id="XMLID_41_" class="st0" d="M242.2,64.8c-0.4,1.3-0.8,2.4-1.1,3.5s-0.8,2-1.2,2.8s-0.9,1.4-1.5,1.8
		c-0.5,0.4-1.1,0.7-1.8,0.7c-0.8,0-1.5-0.4-2-1.2c-0.5-0.8-0.7-1.9-0.7-3.3c0-0.6,0-1.1,0.1-1.7c0.1-0.5,0.1-1,0.2-1.5
		c0.1-0.5,0.1-1,0.2-1.4c0.1-0.5,0.1-0.9,0.1-1.3c0-0.5-0.1-0.8-0.2-0.9c-0.1-0.1-0.3-0.2-0.4-0.2c0,0-0.1,0-0.1,0c0,0-0.1,0-0.2,0
		c-0.1,0-0.2,0-0.4,0c-0.2,0-0.4,0.1-0.7,0.1c-0.2,0.4-0.3,0.7-0.4,1c-0.1,0.3-0.2,0.5-0.3,0.7c-0.1,0.2-0.2,0.4-0.2,0.5
		c-0.1,0.1-0.1,0.3-0.2,0.4c-0.1,0.3-0.2,0.5-0.3,0.6s-0.2,0.1-0.3,0.1c-0.1,0-0.2,0-0.3-0.1c-0.1-0.1-0.1-0.2-0.1-0.3
		c0-0.1,0-0.2,0.1-0.4c0-0.1,0.1-0.3,0.2-0.5c0.1-0.2,0.2-0.5,0.2-0.8c0.1-0.3,0.2-0.8,0.3-1.3c-0.3-0.1-0.6-0.5-0.8-1
		c-0.2-0.5-0.4-1.2-0.4-1.9c0-0.6,0.1-1.2,0.3-1.8c0.2-0.6,0.5-1.2,0.8-1.7c0.3-0.5,0.6-0.9,1-1.3c0.3-0.3,0.7-0.5,0.9-0.5
		c0.4,0,0.7,0.2,0.9,0.6c0.3,0.4,0.4,0.9,0.4,1.5c0,0.3,0,0.6-0.1,0.9c-0.1,0.3-0.1,0.6-0.2,0.8c-0.1,0.3-0.1,0.5-0.2,0.7
		c-0.1,0.2-0.1,0.4-0.1,0.5c0,0.1,0.1,0.2,0.2,0.2c0.1,0,0.2,0,0.4-0.1l1.2-0.5c0.4-0.2,0.8-0.3,1.1-0.3c0.5,0,0.9,0.2,1,0.5
		c0.2,0.3,0.3,0.8,0.3,1.4c0,0.3,0,0.8-0.1,1.5c-0.1,0.7-0.1,1.5-0.2,2.3c-0.1,0.8-0.1,1.7-0.2,2.5c-0.1,0.8-0.1,1.5-0.1,2
		c0,0.6,0.1,1,0.2,1.3c0.1,0.3,0.4,0.4,0.8,0.4c0.3,0,0.6-0.2,0.9-0.5c0.3-0.3,0.6-0.8,0.8-1.3c0.3-0.5,0.5-1.1,0.7-1.7
		c0.2-0.6,0.5-1.2,0.6-1.8c0.1-0.4,0.4-0.6,0.6-0.6c0.3,0,0.4,0.1,0.4,0.4c0,0,0,0.1,0,0.1C242.3,64.7,242.3,64.7,242.2,64.8z"/>
	<path id="XMLID_43_" class="st0" d="M258.3,64.7c-0.3,1-0.7,1.9-1,2.7c-0.4,0.9-0.8,1.7-1.2,2.5c-0.5,0.8-1,1.5-1.6,2.3
		c-0.6,0.7-1.3,1.4-2.1,2.1c0,0.8-0.1,1.6-0.2,2.4c-0.1,0.8-0.2,1.6-0.3,2.3c-0.3,2-0.6,3.6-1,4.8c-0.4,1.2-0.8,2.2-1.3,3
		c-0.5,0.7-0.9,1.3-1.4,1.7c-0.5,0.4-0.9,0.6-1.2,0.8c-0.8,0.4-1.5,0.6-2.1,0.6c-0.7,0-1.3-0.4-1.7-1.1c-0.4-0.8-0.6-1.7-0.6-2.9
		c0-1.1,0.2-2.2,0.6-3.2c0.4-1,0.9-1.9,1.5-2.8c0.6-0.9,1.3-1.7,2-2.5c0.7-0.8,1.5-1.5,2.2-2.1c0-0.6,0.1-1.2,0.1-1.7
		c0-0.5,0.1-1,0.1-1.4c0-1,0.1-2,0.1-3c0-1.1,0-2.1,0.1-3c-0.4,1.4-0.7,2.6-1.1,3.6c-0.4,0.9-0.8,1.7-1.1,2.2
		c-0.4,0.6-0.8,0.9-1.2,1.2c-0.4,0.2-0.8,0.3-1.3,0.3c-0.3,0-0.7-0.1-1-0.3c-0.3-0.2-0.7-0.5-0.9-1c-0.3-0.5-0.5-1.2-0.7-2.1
		c-0.2-0.9-0.3-2.1-0.3-3.6c0-0.6,0-1.2,0.1-1.8c0-0.6,0.1-1.2,0.2-1.8c0.1-0.6,0.2-1.1,0.3-1.6c0.1-0.5,0.2-1,0.3-1.4
		c0.1-0.2,0.1-0.3,0.2-0.5c0.1-0.1,0.2-0.2,0.2-0.3c0.1-0.1,0.2-0.2,0.2-0.3c0.1-0.1,0.1-0.1,0.2-0.1c0.1,0,0.2,0,0.3,0.1
		c0,0.1,0.1,0.1,0.3,0.1c0,0,0.1,0,0.3-0.1c0.1-0.1,0.3-0.2,0.4-0.3s0.3-0.2,0.4-0.3s0.3-0.1,0.4-0.1c0.2,0,0.3,0.1,0.3,0.4
		c0,0.1,0,0.2,0,0.4c0,0.1-0.1,0.3-0.1,0.5c-0.2,0.7-0.3,1.5-0.3,2.4c0,0.8-0.1,1.8-0.1,2.8c0,0.7,0,1.4,0,2c0,0.6,0,1.1,0.1,1.6
		c0.1,0.4,0.2,0.8,0.3,1c0.1,0.2,0.3,0.4,0.6,0.4c0.3,0,0.6-0.2,0.8-0.6c0.3-0.4,0.5-1,0.7-1.6c0.2-0.7,0.4-1.4,0.7-2.2
		c0.2-0.8,0.4-1.6,0.6-2.4c0.2-0.8,0.4-1.5,0.6-2.2c0.2-0.7,0.4-1.2,0.6-1.6c0.2-0.3,0.5-0.5,0.8-0.8c0.4-0.2,0.7-0.3,1-0.3
		c0.2,0,0.3,0,0.4,0.1c0.1,0,0.2,0.1,0.3,0.2c0.1,0.1,0.1,0.3,0.2,0.5c0,0.2,0.1,0.5,0.1,0.9c0,0.7,0,1.4,0,2.2
		c0,0.8-0.1,1.6-0.1,2.3c0,0.7-0.1,1.4-0.1,2c0,0.6-0.1,1-0.1,1.3c0,0.4-0.1,1-0.1,1.8c0,0.9-0.1,1.8-0.2,2.9c0.6-0.5,1.1-1,1.6-1.6
		c0.5-0.6,0.9-1.2,1.3-1.8c0.4-0.6,0.7-1.3,1-2.1c0.3-0.7,0.6-1.5,1-2.4c0.2-0.4,0.4-0.7,0.7-0.7c0.2,0,0.3,0.1,0.3,0.3
		c0,0,0,0.1,0,0.2C258.3,64.6,258.3,64.6,258.3,64.7z M248.2,79.7c0-0.3,0.1-0.6,0.1-0.9c0-0.3,0.1-0.6,0.1-1
		c-0.5,0.5-0.9,1.1-1.3,1.7c-0.4,0.6-0.7,1.3-1,2c-0.3,0.7-0.5,1.5-0.6,2.3c-0.2,0.8-0.2,1.7-0.2,2.7c0,0.6,0,0.9,0.1,1.2
		c0.1,0.2,0.2,0.3,0.3,0.3c0.2,0,0.3-0.2,0.5-0.5c0.2-0.3,0.3-0.7,0.5-1.2c0.2-0.5,0.3-1,0.5-1.6c0.1-0.6,0.3-1.2,0.4-1.8
		c0.1-0.6,0.2-1.2,0.3-1.8S248.2,80,248.2,79.7z"/>
</g>
</svg>
