<?xml version="1.0" encoding="utf-8"?>
<!-- Generator: Adobe Illustrator 19.0.0, SVG Export Plug-In . SVG Version: 6.00 Build 0)  -->
<svg version="1.1" id="Camada_1" xmlns="http://www.w3.org/2000/svg" xmlns:xlink="http://www.w3.org/1999/xlink" x="0px" y="0px"
	 viewBox="0 0 280 120" style="enable-background:new 0 0 280 120;" xml:space="preserve">
<style type="text/css">
	.st0{fill:#BDA882;}
	.st1{fill:#FFFFFF;}
	.st2{fill:#FFFFFF;stroke:#FFFFFF;stroke-width:2;stroke-miterlimit:10;}
</style>
<g id="XMLID_11_">
	<path id="XMLID_12_" class="st0" d="M51.2,26.1c0,0.2-0.1,0.3-0.2,0.4c-0.1,0.1-0.2,0.2-0.3,0.3c-0.1,0.1-0.2,0.2-0.3,0.3
		c-0.1,0.1-0.2,0.3-0.2,0.4c0,0.4-0.2,0.7-0.6,0.9c-0.3,0.2-0.7,0.4-1.2,0.4c-0.4,0-1,0-2-0.1c-0.9,0-2-0.1-3.1-0.1
		c-1.3,0-2.6,0-4,0.1c-1.4,0.1-2.7,0.2-4,0.5c-1.3,0.2-2.5,0.5-3.7,0.8c-1.2,0.3-2.2,0.8-3,1.3c-0.9,0.5-1.5,1.1-2.1,1.8
		c-0.5,0.7-0.8,1.5-0.8,2.3c0,0.8,0.1,1.6,0.4,2.3c0.3,0.8,0.6,1.4,1,2.1c0.4,0.6,0.8,1.2,1.2,1.6c0.4,0.5,0.7,0.8,0.9,1
		c0.2,0.1,0.2,0.3,0.2,0.5c0,0.3-0.4,0.5-1.2,0.5c-0.2,0-0.5,0-0.9-0.1c-0.4-0.1-0.8-0.2-1.2-0.4s-0.9-0.5-1.4-0.8s-0.9-0.8-1.3-1.3
		c-0.4-0.5-0.7-1.1-0.9-1.9c-0.2-0.7-0.4-1.6-0.4-2.5c0-1.4,0.4-2.8,1.1-4.1c0.7-1.3,1.7-2.5,2.9-3.5c1.2-1,2.6-1.9,4.3-2.6
		c1.6-0.7,3.4-1.2,5.2-1.4c0.9-0.1,1.7-0.3,2.6-0.4s1.8-0.2,2.7-0.2c0.9-0.1,1.7-0.1,2.6-0.1c0.8,0,1.6,0,2.3,0c1.3,0,2.3,0,3.1,0.1
		c0.7,0.1,1.3,0.2,1.7,0.3c0.4,0.1,0.6,0.3,0.7,0.4c0.1,0.2,0.1,0.3,0.1,0.4c0,0.1,0,0.2-0.1,0.3C51.3,25.8,51.2,25.9,51.2,26.1z
		 M40.4,30.3c0,0.1,0,0.6,0,1.4c0,0.8-0.1,1.9-0.1,3.2c-0.1,1.3-0.1,2.7-0.2,4.4c-0.1,1.6-0.1,3.3-0.2,5c-0.1,1.7-0.1,3.4-0.2,5.1
		c-0.1,1.7-0.1,3.2-0.2,4.6c-0.1,1.4-0.1,2.6-0.1,3.6c0,1,0,1.6,0,2c0,0.2,0,0.4-0.1,0.5c0,0.2-0.1,0.4-0.2,0.5
		c-0.1,0.2-0.3,0.3-0.5,0.5c-0.2,0.1-0.5,0.2-0.8,0.3c-0.3,0-0.6,0.1-0.8,0.3c-0.2,0.1-0.4,0.2-0.6,0.4c-0.2,0.1-0.4,0.2-0.5,0.3
		s-0.3,0.1-0.4,0.1c-0.1,0-0.1,0-0.2-0.1c0-0.1-0.1-0.2-0.1-0.3c0-0.1,0-0.2,0-0.3s0-0.2,0-0.3c0-1,0.1-2.7,0.1-5.1
		c0-1,0.1-2.2,0.1-3.6c0.1-1.4,0.1-3.1,0.2-5c0.1-1.9,0.2-4.1,0.3-6.5c0.1-2.4,0.2-5.1,0.4-8.2c0-0.7,0.2-1.3,0.4-1.8
		c0.2-0.5,0.6-0.8,1.2-0.9c0.3-0.1,0.6-0.2,0.8-0.3c0.2-0.2,0.5-0.3,0.6-0.5c0.2-0.2,0.4-0.3,0.5-0.4c0.1-0.1,0.3-0.2,0.4-0.2
		c0.1,0,0.2,0.1,0.2,0.4C40.4,29.6,40.4,29.9,40.4,30.3z"/>
	<path id="XMLID_15_" class="st0" d="M61.3,50.8c-0.5,1.4-1,2.7-1.4,3.8s-0.8,2-1.3,2.8c-0.4,0.7-0.9,1.3-1.4,1.7
		c-0.5,0.4-1.1,0.6-1.7,0.6c-0.6,0-1-0.2-1.4-0.5s-0.7-0.8-0.9-1.3c-0.2-0.5-0.4-1.1-0.5-1.7c-0.1-0.6-0.1-1.2-0.1-1.8
		c0-0.4,0-0.8,0-1.2s0-0.8,0-1.1c-0.4,1.4-0.7,2.7-1.1,3.6s-0.7,1.8-1.1,2.3c-0.4,0.6-0.8,1-1.2,1.3s-0.9,0.4-1.3,0.4
		c-0.3,0-0.7-0.1-1-0.3c-0.4-0.2-0.7-0.5-1-1s-0.5-1.2-0.7-2.1c-0.2-0.9-0.3-2.1-0.3-3.5c0-0.4,0-0.8,0-1.3c0-0.5,0-1,0.1-1.6
		s0.1-1.1,0.2-1.7c0.1-0.5,0.2-1,0.3-1.5c0-0.2,0.1-0.4,0.2-0.7c0.1-0.3,0.2-0.5,0.2-0.5c0.2-0.2,0.3-0.3,0.5-0.4
		c0.1-0.1,0.2-0.2,0.3-0.2c0.1,0,0.2,0,0.3,0.1c0.1,0.1,0.2,0.1,0.2,0.1c0,0,0.1,0,0.3-0.1c0.1-0.1,0.3-0.2,0.5-0.3
		c0.2-0.1,0.3-0.2,0.5-0.3c0.2-0.1,0.3-0.1,0.3-0.1c0.2,0,0.3,0.2,0.3,0.5c0,0.1,0,0.2,0,0.3c0,0.1,0,0.3-0.1,0.5
		c-0.1,1-0.2,2-0.3,3c-0.1,1-0.1,2-0.1,3.1c0,0.6,0,1.2,0,1.7c0,0.5,0.1,0.9,0.1,1.3c0.1,0.4,0.2,0.7,0.3,0.9
		c0.1,0.2,0.3,0.3,0.5,0.3c0.3,0,0.6-0.2,0.9-0.6c0.3-0.4,0.5-1,0.8-1.7c0.2-0.7,0.5-1.4,0.7-2.3c0.2-0.8,0.4-1.6,0.6-2.4
		c0.2-0.8,0.4-1.5,0.6-2.2c0.2-0.7,0.4-1.2,0.6-1.5c0.2-0.3,0.5-0.6,0.8-0.8c0.3-0.2,0.7-0.3,1-0.3c0.4,0,0.6,0.1,0.8,0.4
		c0.2,0.3,0.2,0.8,0.2,1.6c0,0.6,0,1.1,0,1.6c0,0.5-0.1,1-0.1,1.5c0,0.5-0.1,1.1-0.1,1.7c0,0.6,0,1.3,0,2c0,0.7,0,1.2,0.1,1.6
		c0.1,0.4,0.1,0.7,0.2,1c0.1,0.2,0.2,0.4,0.3,0.5c0.1,0.1,0.2,0.1,0.3,0.1c0.3,0,0.5-0.1,0.8-0.4s0.5-0.6,0.7-1.1
		c0.3-0.5,0.5-1,0.8-1.7c0.3-0.7,0.6-1.4,0.9-2.3c0.1-0.2,0.2-0.3,0.3-0.5c0.1-0.1,0.2-0.2,0.4-0.2c0.1,0,0.2,0,0.3,0.1
		s0.1,0.2,0.1,0.3C61.4,50.6,61.4,50.7,61.3,50.8z"/>
	<path id="XMLID_17_" class="st0" d="M76.1,50.1c0.1,0,0.2,0,0.3,0.1c0.1,0.1,0.1,0.2,0.1,0.3c0,0.1,0,0.2-0.1,0.3
		c-0.4,1.3-0.8,2.4-1.2,3.4c-0.4,1-0.8,1.9-1.1,2.6c-0.4,0.8-0.9,1.5-1.4,2.1c-0.5,0.5-1.2,0.8-2.1,0.8c-0.3,0-0.7-0.1-1-0.2
		c-0.3-0.1-0.6-0.3-0.9-0.7c-0.3-0.3-0.5-0.8-0.8-1.3c-0.2-0.6-0.4-1.3-0.5-2.1c-0.3,0.5-0.5,1-0.9,1.6c-0.3,0.5-0.7,1-1.1,1.4
		c-0.4,0.4-0.8,0.7-1.3,1c-0.5,0.3-1,0.4-1.6,0.4c-0.4,0-0.8-0.1-1.2-0.4s-0.7-0.6-1-1.1c-0.3-0.5-0.5-1.1-0.6-1.7
		c-0.2-0.7-0.2-1.4-0.2-2.2c0-0.9,0.1-1.7,0.2-2.5c0.2-0.8,0.4-1.6,0.6-2.4s0.6-1.5,1-2.1c0.4-0.6,0.8-1.2,1.3-1.7
		c0.8-0.8,1.6-1.4,2.4-1.8c0.8-0.4,1.4-0.6,2-0.6c0.1,0,0.1,0,0.2,0s0.1,0,0.2,0c0.1-0.8,0.1-1.6,0.2-2.5c0.1-0.9,0.2-1.8,0.3-2.8
		c0.2-1.3,0.3-2.3,0.4-3.2c0.1-0.9,0.3-1.6,0.4-2.3c0.1-0.6,0.3-1.2,0.4-1.6c0.1-0.4,0.3-0.9,0.5-1.3c0.1-0.2,0.2-0.4,0.4-0.6
		c0.1-0.2,0.3-0.3,0.4-0.4c0.2-0.1,0.3-0.3,0.5-0.4c0.2-0.2,0.4-0.3,0.6-0.6c0.4-0.4,0.8-0.7,1-0.9c0.3-0.2,0.5-0.3,0.7-0.3
		c0.2,0,0.3,0,0.5,0.1C74,26.6,74,26.8,74,27c0,0.1,0,0.2,0,0.3c0,0.1,0,0.2-0.1,0.3c-0.1,0.2-0.2,0.7-0.3,1.3
		c-0.1,0.6-0.3,1.4-0.5,2.3c-0.2,0.9-0.4,1.9-0.6,3c-0.2,1.1-0.4,2.3-0.5,3.5c-0.2,1.4-0.3,2.7-0.5,4.1c-0.1,1.4-0.3,2.7-0.3,3.9
		c-0.1,1.3-0.2,2.4-0.2,3.6c0,1.1-0.1,2.1-0.1,3c0,0.6,0,1.1,0.1,1.6c0,0.5,0.1,0.9,0.2,1.3c0.1,0.4,0.2,0.6,0.4,0.8
		s0.4,0.3,0.6,0.3c0.3,0,0.5-0.1,0.8-0.4c0.2-0.2,0.5-0.6,0.7-1s0.5-1,0.8-1.7c0.3-0.7,0.6-1.4,0.9-2.3
		C75.6,50.3,75.8,50.1,76.1,50.1z M67.3,46.2c0-0.7-0.3-1-0.9-1c-0.5,0-0.9,0.2-1.3,0.5c-0.4,0.3-0.8,0.8-1.1,1.4
		c-0.3,0.6-0.6,1.3-0.8,2.1c-0.2,0.8-0.3,1.7-0.3,2.7c0,1.1,0.2,1.9,0.5,2.6c0.3,0.7,0.9,1,1.6,1c0.4,0,0.7-0.1,1-0.3
		c0.3-0.2,0.5-0.5,0.7-0.9c0.2-0.4,0.3-0.7,0.4-1.2c0.1-0.4,0.2-0.8,0.2-1.2c0-0.6,0-1.1,0-1.6c0-0.5,0-1.1,0-1.6c0-0.5,0-1,0-1.4
		C67.3,46.9,67.3,46.5,67.3,46.2z"/>
	<path id="XMLID_20_" class="st0" d="M85.1,50.1c0.1,0,0.2,0,0.3,0.1c0.1,0.1,0.1,0.2,0.1,0.3c0,0.1,0,0.2-0.1,0.3
		c-0.4,1.1-0.7,2.1-1,2.9c-0.3,0.9-0.6,1.7-1,2.3c-0.5,1-0.9,1.8-1.4,2.4c-0.4,0.5-0.9,0.9-1.5,1.1c-0.1,0-0.3,0.1-0.4,0.1
		c-0.2,0-0.3,0-0.5,0c-0.4,0-0.8-0.1-1.3-0.2s-0.9-0.5-1.3-0.9c-0.4-0.5-0.7-1.1-1-1.9c-0.3-0.8-0.4-1.9-0.4-3.2
		c0-1.2,0-2.3,0.1-3.4c0.1-1.1,0.2-2.2,0.4-3.3c0.2-0.5,0.5-1,0.9-1.4c0.3-0.4,0.7-0.8,1.1-1.1c0.4-0.3,0.7-0.5,1-0.7
		c0.3-0.2,0.5-0.2,0.7-0.2c0.1,0,0.1,0.1,0.1,0.2c0,0.1,0,0.4-0.1,0.7c0,0.3-0.1,0.8-0.1,1.3c0,0.6-0.1,1.3-0.2,2.2
		c-0.1,0.9-0.1,2-0.1,3.2c0,0.7,0,1.4,0.1,2c0.1,0.6,0.2,1.2,0.4,1.6c0.2,0.5,0.4,0.8,0.6,1.1c0.2,0.3,0.5,0.4,0.8,0.4
		c0.3,0,0.5-0.1,0.8-0.4s0.5-0.6,0.7-1.1c0.2-0.5,0.5-1,0.8-1.7c0.3-0.7,0.5-1.4,0.8-2.1C84.6,50.3,84.8,50.1,85.1,50.1z M81.9,33.8
		c0,0.1,0.1,0.2,0.1,0.3c0,0.3-0.2,0.6-0.6,1c-0.3,0.3-0.6,0.6-0.9,0.9c-0.3,0.3-0.5,0.5-0.8,0.7c-0.2,0.2-0.4,0.4-0.6,0.5
		c-0.2,0.1-0.3,0.2-0.4,0.2c-0.1,0-0.2,0-0.2,0c-0.1,0-0.1-0.1-0.2-0.2c-0.2-0.4-0.4-0.8-0.6-1.2c-0.2-0.4-0.4-0.8-0.5-1.1
		c-0.2-0.4-0.3-0.7-0.4-0.9s-0.1-0.5-0.1-0.5c0-0.2,0.1-0.4,0.2-0.6c0.1-0.1,0.2-0.3,0.5-0.6c0.2-0.3,0.5-0.6,0.8-0.9
		c0.3-0.3,0.5-0.6,0.8-0.9c0.2-0.3,0.4-0.4,0.5-0.5c0.2-0.2,0.4-0.3,0.5-0.3c0.1,0,0.3,0.1,0.3,0.3c0,0.1,0.2,0.4,0.3,0.7
		c0.2,0.4,0.4,0.8,0.5,1.2c0.2,0.4,0.4,0.8,0.6,1.2C81.7,33.5,81.8,33.7,81.9,33.8z"/>
	<path id="XMLID_23_" class="st0" d="M99,50.1c0.1,0,0.2,0,0.3,0.1c0.1,0.1,0.1,0.2,0.1,0.3c0,0.1,0,0.3-0.1,0.4
		c-0.4,1-0.9,1.7-1.7,2.2c-0.7,0.5-1.5,0.7-2.4,0.7h0c-0.3,0.8-0.6,1.6-1,2.3c-0.4,0.7-0.8,1.3-1.3,1.9c-0.5,0.5-1.1,1-1.7,1.3
		c-0.6,0.3-1.3,0.5-2.1,0.5c-0.7,0-1.3-0.1-1.8-0.4s-0.9-0.7-1.2-1.1c-0.3-0.5-0.6-1-0.8-1.6c-0.2-0.6-0.3-1.2-0.4-1.9
		c-0.1-0.7-0.1-1.3-0.2-2c0-0.7,0-1.3,0-1.8c0-0.5,0-1.2,0.1-2.2c0-1,0.1-2.1,0.2-3.2c0.1-1.2,0.2-2.5,0.3-3.8
		c0.1-1.3,0.3-2.6,0.4-3.9c0.2-1.3,0.3-2.3,0.4-3.2c0.1-0.9,0.3-1.6,0.4-2.3c0.1-0.6,0.2-1.2,0.4-1.6c0.1-0.4,0.3-0.8,0.4-1.2
		c0.1-0.2,0.2-0.4,0.3-0.6c0.1-0.1,0.3-0.3,0.4-0.4c0.2-0.1,0.3-0.3,0.5-0.4c0.2-0.1,0.4-0.3,0.6-0.5c0.4-0.4,0.7-0.7,1-0.8
		c0.3-0.1,0.5-0.2,0.7-0.2c0.3,0,0.5,0.2,0.5,0.7c0,0.1,0,0.3,0,0.4c0,0.1,0,0.3-0.1,0.4c-0.1,0.5-0.3,1.2-0.5,2.1
		c-0.2,0.9-0.4,2-0.6,3.2c-0.2,1.2-0.4,2.5-0.7,4c-0.2,1.5-0.4,3-0.6,4.6c-0.2,1.6-0.3,3.3-0.5,5c-0.1,1.7-0.2,3.4-0.2,5.1
		c0,1,0,1.9,0.1,2.6c0.1,0.7,0.2,1.3,0.4,1.7c0.2,0.4,0.3,0.8,0.6,1c0.2,0.2,0.5,0.3,0.7,0.3c0.4,0,0.7-0.1,1-0.4
		c0.3-0.3,0.5-0.6,0.7-1c0.2-0.4,0.4-0.9,0.5-1.5c0.1-0.6,0.2-1.1,0.3-1.8c-0.5-0.3-0.9-0.7-1.3-1.2c-0.4-0.5-0.7-0.9-1-1.5
		c-0.3-0.5-0.5-1.1-0.7-1.6c-0.2-0.6-0.2-1.1-0.2-1.6c0-0.5,0.1-1,0.2-1.5s0.4-0.9,0.6-1.2c0.3-0.4,0.6-0.6,1.1-0.8
		c0.4-0.2,0.9-0.3,1.5-0.3c0.5,0,0.9,0.1,1.3,0.3c0.4,0.2,0.8,0.5,1.1,0.9c0.3,0.4,0.6,0.9,0.7,1.5c0.2,0.6,0.3,1.3,0.3,2.1
		c0,0.7,0,1.5-0.1,2.2c-0.1,0.8-0.3,1.6-0.5,2.3c0.6,0,1.2-0.2,1.7-0.6c0.5-0.4,0.9-0.8,1.1-1.4C98.5,50.3,98.7,50.1,99,50.1z
		 M92.1,50.7c0.1,0.1,0.2,0.3,0.2,0.4c0.1,0.1,0.2,0.2,0.2,0.3c0-0.1,0-0.3,0-0.4s0-0.3,0-0.4c0-0.8,0-1.5-0.1-2.1
		c-0.1-0.6-0.2-1-0.3-1.4c-0.1-0.3-0.3-0.6-0.5-0.8c-0.2-0.2-0.4-0.3-0.6-0.3c-0.2,0.3-0.3,0.7-0.3,1.1c0,0.6,0.1,1.2,0.4,1.8
		C91.4,49.6,91.7,50.1,92.1,50.7z"/>
	<path id="XMLID_26_" class="st0" d="M103.7,57.6c0.4,0,0.7-0.1,1-0.4c0.3-0.3,0.5-0.6,0.7-1c0.2-0.4,0.4-0.9,0.5-1.5
		c0.1-0.6,0.2-1.1,0.3-1.7c-0.5-0.3-0.9-0.7-1.4-1.3c-0.4-0.5-0.9-1.2-1.2-1.9c-0.2-0.4-0.4-0.9-0.5-1.4s-0.1-0.9-0.1-1.3
		c0-0.5,0.1-1,0.2-1.5c0.1-0.5,0.4-0.9,0.6-1.2c0.3-0.3,0.6-0.6,1.1-0.8c0.4-0.2,0.9-0.3,1.5-0.3c0.7,0,1.3,0.2,1.7,0.5
		c0.4,0.3,0.8,0.8,1.1,1.3c0.3,0.5,0.4,1.1,0.5,1.7c0.1,0.6,0.2,1.2,0.2,1.7c0,0.7,0,1.4-0.1,2.1c-0.1,0.7-0.2,1.4-0.4,2.2
		c0.6,0,1.1-0.2,1.6-0.5c0.5-0.3,0.9-0.8,1.2-1.5c0.2-0.4,0.4-0.6,0.6-0.6c0.1,0,0.2,0,0.3,0.1c0.1,0.1,0.1,0.2,0.1,0.3
		c0,0.1,0,0.2-0.1,0.3c-0.3,0.9-0.9,1.7-1.6,2.2c-0.8,0.5-1.6,0.8-2.5,0.8c-0.3,0.8-0.6,1.6-1,2.3c-0.4,0.7-0.9,1.3-1.4,1.9
		s-1.1,1-1.8,1.3s-1.4,0.5-2.3,0.5c-0.4,0-0.9-0.1-1.5-0.2c-0.6-0.1-1.1-0.4-1.6-0.8s-0.9-1-1.2-1.8c-0.3-0.8-0.5-1.8-0.5-3
		c0-1,0.2-2.1,0.6-3.2c0.4-1.1,1-2.3,1.9-3.4c0.3-0.4,0.7-0.7,0.9-0.9c0.3-0.2,0.5-0.3,0.7-0.3c0.4,0,0.5,0.2,0.5,0.7
		c0,0.2-0.1,0.4-0.2,0.7c-0.1,0.3-0.3,0.7-0.4,1.1c-0.1,0.5-0.3,1-0.4,1.6c-0.1,0.6-0.2,1.4-0.2,2.2c0,1.6,0.2,2.9,0.7,3.8
		C102.3,57.1,102.9,57.6,103.7,57.6z M106.4,50.4c0-1.7-0.2-2.9-0.5-3.6c-0.3-0.7-0.7-1-1-0.9c-0.2,0.1-0.3,0.2-0.3,0.4
		c0,0.2,0,0.4,0,0.7c0,0.4,0,0.7,0.1,1.1s0.2,0.8,0.4,1.2c0.2,0.4,0.3,0.8,0.6,1.1c0.2,0.4,0.5,0.7,0.7,1c0-0.2,0-0.3,0-0.5
		C106.4,50.7,106.4,50.6,106.4,50.4z"/>
	<path id="XMLID_29_" class="st0" d="M135.6,50.1c0.2,0,0.3,0.1,0.3,0.4c0,0.1,0,0.2-0.1,0.4c-0.4,1.1-0.7,2.1-1.1,3
		c-0.3,0.9-0.7,1.7-1,2.4c-0.2,0.4-0.4,0.9-0.6,1.3c-0.2,0.4-0.5,0.8-0.8,1.1s-0.6,0.6-1,0.8c-0.4,0.2-0.8,0.3-1.3,0.3
		c-0.3,0-0.6,0-1-0.1c-0.3-0.1-0.6-0.3-0.9-0.5c-0.3-0.2-0.5-0.5-0.7-0.9c-0.2-0.4-0.3-0.9-0.4-1.5c0-0.4-0.1-0.7-0.1-1.1
		c0-0.4,0-0.8,0-1.2c0-0.9,0-1.7,0.1-2.5c0-0.8,0.1-1.4,0.1-1.8c0-0.3-0.1-0.6-0.2-0.7c-0.1-0.1-0.2-0.2-0.4-0.2
		c-0.2,0-0.3,0.1-0.4,0.2c-0.1,0.1-0.2,0.3-0.2,0.5c-0.1,0.2-0.2,0.5-0.4,1c-0.2,0.5-0.3,1-0.5,1.6c-0.2,0.6-0.4,1.2-0.6,1.9
		c-0.2,0.7-0.4,1.3-0.6,1.8c-0.2,0.7-0.5,1.3-0.7,1.7c-0.2,0.4-0.4,0.8-0.6,1c-0.2,0.2-0.4,0.4-0.6,0.5s-0.4,0.1-0.6,0.1
		c-0.2,0-0.3,0-0.5-0.1c-0.2-0.1-0.3-0.2-0.5-0.3c-0.2-0.1-0.3-0.3-0.4-0.6c-0.1-0.3-0.2-0.6-0.2-0.9c0-0.3,0-0.5,0-0.8s0-0.5,0-0.8
		c0-0.6,0-1.2,0-1.8c0-0.6,0-1.2,0.1-1.7c0-0.5,0-1,0.1-1.4c0-0.4,0-0.7,0-1c0-0.3-0.1-0.6-0.2-0.7c-0.1-0.1-0.2-0.2-0.4-0.2
		c-0.1,0-0.3,0.1-0.4,0.2c-0.1,0.1-0.2,0.3-0.3,0.5c-0.1,0.2-0.2,0.5-0.4,1c-0.2,0.5-0.3,1.1-0.5,1.7c-0.2,0.6-0.4,1.3-0.6,2
		c-0.2,0.7-0.4,1.3-0.6,1.8c-0.3,0.7-0.5,1.3-0.7,1.8c-0.2,0.4-0.4,0.8-0.6,1c-0.2,0.2-0.4,0.4-0.6,0.5c-0.2,0.1-0.4,0.1-0.6,0.1
		c-0.2,0-0.3,0-0.5-0.1c-0.2-0.1-0.3-0.2-0.5-0.3c-0.2-0.2-0.3-0.4-0.4-0.6c-0.1-0.3-0.2-0.6-0.2-0.9c0-0.5,0-0.9,0-1.3
		c0-0.4,0-0.8,0-1.2c0-0.6,0-1.2,0-1.8c0-0.6,0-1.3,0.1-2.2c0-0.7,0.1-1.4,0.2-2.1c0.1-0.7,0.2-1.2,0.3-1.7c0.1-0.5,0.2-0.9,0.3-1.2
		c0.1-0.3,0.2-0.5,0.3-0.6c0.1-0.1,0.2-0.3,0.4-0.4c0.1-0.1,0.3-0.2,0.4-0.2c0.1,0,0.2,0,0.3,0.1c0.1,0.1,0.1,0.1,0.2,0.1
		c0.1,0,0.2,0,0.4-0.1c0.1-0.1,0.3-0.2,0.5-0.3c0.1-0.1,0.2-0.1,0.3-0.2c0.1-0.1,0.2-0.1,0.4-0.1c0.2,0,0.3,0.2,0.3,0.6
		c0,0.1,0,0.4-0.1,0.8c0,0.4-0.1,0.8-0.1,1.2c0,0.7-0.1,1.4-0.1,2.1c0,0.7-0.1,1.3-0.1,1.9c0,0.6-0.1,1.1-0.1,1.5c0,0.4,0,0.7,0,0.9
		c0,0.3,0,0.4,0,0.4c0,0,0.1-0.2,0.2-0.5c0.1-0.3,0.3-0.7,0.5-1.2c0.2-0.5,0.4-1.1,0.6-1.7c0.2-0.6,0.5-1.3,0.7-1.9
		c0.3-0.6,0.5-1.2,0.8-1.8c0.3-0.6,0.5-1,0.8-1.4c0.3-0.5,0.7-0.8,1-1c0.4-0.2,0.7-0.4,1-0.4c0.7,0,1.1,0.4,1.3,1.3
		c0.2,0.9,0.3,2.1,0.3,3.8c0,0.7,0,1.5,0,2.3c0,0.8,0,1.6,0,2.3c0,0.1,0,0.1,0,0.1c0,0,0.1-0.2,0.2-0.5c0.1-0.3,0.3-0.7,0.5-1.2
		c0.2-0.5,0.4-1.1,0.6-1.7s0.5-1.3,0.8-1.9c0.3-0.6,0.5-1.2,0.8-1.8c0.3-0.6,0.5-1,0.8-1.4c0.3-0.4,0.7-0.8,1-1
		c0.4-0.2,0.7-0.4,1-0.4c0.3,0,0.5,0.1,0.8,0.3c0.2,0.2,0.4,0.4,0.5,0.8c0.1,0.3,0.2,0.7,0.3,1.2c0.1,0.4,0.1,0.9,0.1,1.5
		c0,0.3,0,0.7,0,1.1c0,0.4,0,0.9-0.1,1.3c0,0.5,0,1-0.1,1.5c0,0.5,0,0.9,0,1.4c0,0.6,0,1.2,0.1,1.6c0.1,0.4,0.1,0.7,0.2,1
		c0.1,0.2,0.2,0.4,0.3,0.5c0.1,0.1,0.3,0.1,0.4,0.1c0.3,0,0.6-0.1,0.8-0.4c0.2-0.3,0.5-0.6,0.7-1.1c0.2-0.5,0.5-1,0.7-1.7
		c0.2-0.6,0.5-1.3,0.8-2.1C135,50.3,135.3,50.1,135.6,50.1z"/>
	<path id="XMLID_31_" class="st0" d="M174.3,42.9c0,2.2-0.2,4.3-0.6,6.1c-0.4,1.8-0.9,3.5-1.6,4.9c-0.7,1.4-1.4,2.7-2.3,3.7
		c-0.9,1.1-1.8,1.9-2.7,2.6c-1,0.7-1.9,1.2-2.9,1.5s-1.9,0.5-2.8,0.5c-0.7,0-1.3-0.1-1.9-0.4c-0.6-0.2-1.1-0.6-1.6-1
		c-0.5-0.4-0.8-1-1.1-1.6c-0.3-0.6-0.4-1.3-0.4-2.1c0-0.3,0-0.6,0.1-0.7c0.1-0.1,0.2-0.2,0.3-0.2c0.2,0,0.3,0.2,0.4,0.5
		c0.3,1,0.8,1.7,1.5,2.2c0.6,0.5,1.4,0.8,2.4,0.8c1.2,0,2.4-0.4,3.4-1.2c1-0.8,1.9-2,2.6-3.6c0.7-1.6,1.3-3.5,1.6-5.8
		c0.4-2.3,0.6-4.9,0.6-7.8c0-1.9-0.2-3.7-0.6-5.3c-0.4-1.6-1.1-3-1.9-4.2c-0.9-1.2-2-2.1-3.3-2.7c-1.3-0.7-3-1-4.8-1
		c-1.2,0-2.3,0.1-3.5,0.4c-1.2,0.3-2.2,0.7-3.2,1.3c-1,0.6-1.7,1.4-2.3,2.3c-0.6,0.9-0.9,2.1-0.9,3.3c0,0.7,0.1,1.4,0.3,2.1
		c0.2,0.7,0.4,1.3,0.7,1.8c0.3,0.6,0.5,1,0.8,1.4c0.3,0.4,0.4,0.7,0.5,0.8c0.2,0.2,0.2,0.4,0.2,0.6c0,0.1-0.1,0.2-0.2,0.3
		c-0.1,0.1-0.3,0.1-0.6,0.1c-0.1,0-0.2,0-0.2,0c-0.1,0-0.2,0-0.3,0c-0.3,0-0.8-0.2-1.4-0.5c-0.6-0.3-1.1-0.7-1.7-1.3
		c-0.6-0.6-1.1-1.2-1.5-2.1c-0.4-0.8-0.6-1.8-0.6-2.9c0-0.7,0.1-1.6,0.4-2.5c0.3-0.9,0.7-1.8,1.2-2.6c0.5-0.9,1.2-1.7,2-2.5
		c0.8-0.8,1.7-1.5,2.8-2.2c1.1-0.6,2.2-1.1,3.5-1.5c1.3-0.4,2.7-0.6,4.3-0.6c2.3,0,4.2,0.3,5.9,1c1.6,0.7,3,1.5,4.2,2.6
		c1.1,1.1,2.1,2.3,2.7,3.6c0.7,1.4,1.2,2.7,1.6,4.1c0.4,1.4,0.6,2.7,0.8,4C174.3,40.9,174.3,42,174.3,42.9z M155.9,32.3
		c0.2-0.4,0.4-0.6,0.7-0.9s0.6-0.3,1-0.3c0.1,0,0.3,0,0.5,0.1c0.2,0.1,0.3,0.2,0.3,0.4c0,0.1,0,0.2,0,0.4c0,0.1-0.1,0.2-0.1,0.4
		c-0.3,1.4-0.5,2.8-0.8,4.2c-0.2,1.4-0.4,2.8-0.6,4.2c-0.2,1.4-0.3,2.7-0.4,4c-0.1,1.3-0.2,2.5-0.2,3.6c-0.1,1.1-0.1,2.1-0.1,2.9
		c0,0.8,0,1.5,0,2c0,1.6,0,2.9,0,3.9c0,1,0,1.7,0,2.2c0,0.1,0,0.2,0,0.3c0,0.1,0,0.2,0,0.3c0,0.1-0.1,0.2-0.2,0.3
		c-0.1,0.1-0.2,0.1-0.3,0.1c-0.2,0-0.4,0-0.6-0.1c-0.2-0.1-0.4-0.2-0.5-0.3c-0.2-0.1-0.3-0.2-0.5-0.3c-0.2-0.1-0.3-0.1-0.5-0.1
		c-0.2,0-0.3,0.1-0.4,0.2c-0.1,0.1-0.3,0.2-0.4,0.2c-0.2,0-0.4,0-0.5-0.1c-0.1-0.1-0.2-0.2-0.2-0.4s-0.1-0.3-0.1-0.5
		c0-0.2,0-0.3,0-0.4c0-0.6,0-1.5,0.1-2.7c0-1.2,0.1-2.6,0.2-4.2c0-0.9,0.1-2,0.2-3c0.1-1.1,0.2-2.2,0.3-3.2s0.2-2.1,0.3-3.1
		c0.1-1,0.2-1.9,0.3-2.8c0.1-0.8,0.2-1.6,0.2-2.1c0.1-0.6,0.1-1,0.2-1.2c0.1-0.7,0.2-1.3,0.4-1.8c0.1-0.5,0.3-0.8,0.4-1
		c0.1-0.1,0.3-0.3,0.4-0.4c0.1-0.1,0.3-0.2,0.5-0.3C155.4,32.3,155.7,32.3,155.9,32.3z"/>
	<path id="XMLID_34_" class="st0" d="M187.8,50.1c0.1,0,0.2,0,0.3,0.1c0.1,0.1,0.1,0.2,0.1,0.3c0,0.1,0,0.3-0.1,0.4
		c-0.2,0.7-0.5,1.3-0.8,1.9c-0.3,0.6-0.5,1.1-0.8,1.6c-0.3,0.5-0.6,1-0.9,1.5c-0.3,0.5-0.7,1-1.1,1.5c-0.4,0.5-0.9,0.9-1.4,1.3
		s-1,0.7-1.6,0.9c-0.6,0.2-1.2,0.3-1.8,0.3c-0.5,0-1-0.1-1.6-0.2c-0.6-0.2-1.1-0.5-1.6-0.9c-0.5-0.4-0.9-1-1.2-1.8
		c-0.3-0.8-0.5-1.7-0.5-3c0-0.6,0.1-1.1,0.2-1.7c0.1-0.6,0.3-1.1,0.4-1.6c0.2-0.5,0.4-1,0.6-1.5c0.2-0.5,0.5-0.9,0.7-1.2
		c0.4-0.6,0.9-1.1,1.3-1.6c0.5-0.5,0.9-1,1.4-1.3c0.5-0.4,0.9-0.7,1.4-0.9c0.5-0.2,0.9-0.3,1.3-0.3c0.6,0,1.2,0.2,1.6,0.7
		c0.5,0.5,0.7,1.1,0.7,2c0,0.8-0.2,1.6-0.6,2.4c-0.4,0.8-0.9,1.6-1.5,2.4s-1.2,1.5-1.9,2.2c-0.7,0.7-1.3,1.2-1.8,1.7
		c0.3,0.7,0.7,1.3,1.1,1.6c0.5,0.3,0.9,0.5,1.4,0.5c0.7,0,1.4-0.2,2-0.7c0.6-0.5,1.1-1,1.6-1.7c0.5-0.7,0.9-1.4,1.2-2.1
		c0.3-0.7,0.7-1.4,0.9-2c0.1-0.2,0.2-0.3,0.3-0.5C187.5,50.1,187.6,50.1,187.8,50.1z M178.3,51.2c0,1,0.1,1.8,0.2,2.5
		c0.3-0.3,0.7-0.7,1-1.1c0.3-0.4,0.6-0.8,0.9-1.3c0.3-0.4,0.5-0.9,0.7-1.3c0.2-0.5,0.3-0.9,0.3-1.3c0-0.7-0.1-1.2-0.4-1.5
		c-0.3-0.4-0.6-0.5-0.8-0.5c-0.2,0-0.3,0.1-0.5,0.3c-0.2,0.2-0.4,0.5-0.6,0.9c-0.2,0.4-0.3,0.9-0.5,1.4
		C178.4,49.8,178.3,50.5,178.3,51.2z"/>
	<path id="XMLID_37_" class="st0" d="M196.3,50.1c0.1,0,0.2,0,0.3,0.1c0.1,0.1,0.1,0.2,0.1,0.3c0,0.1,0,0.2-0.1,0.3
		c-0.3,0.9-0.6,1.8-0.9,2.6c-0.3,0.8-0.6,1.5-0.9,2.2c-0.3,0.6-0.5,1.2-0.8,1.6c-0.3,0.5-0.5,0.8-0.7,1.1c-0.2,0.3-0.5,0.6-0.7,0.7
		c-0.2,0.2-0.5,0.3-0.7,0.4c-0.2,0.1-0.5,0.1-0.9,0.1c-0.4,0-0.7-0.1-1.2-0.2c-0.4-0.2-0.8-0.5-1.2-0.9c-0.4-0.4-0.7-1.1-0.9-1.8
		c-0.2-0.8-0.4-1.8-0.4-3.1c0-0.3,0-0.9,0.1-1.7c0-0.8,0.1-1.8,0.2-2.9c0.1-1.1,0.2-2.4,0.3-3.9c0.1-1.4,0.2-3,0.4-4.6
		c0.1-1,0.2-2.1,0.3-3.3c0.1-1.2,0.2-2.3,0.4-3.5c0.1-1.1,0.3-2.2,0.4-3.1c0.1-0.9,0.2-1.7,0.3-2.2c0.1-0.6,0.3-1,0.7-1.3
		c0.3-0.3,0.7-0.7,1.1-1c0.1-0.1,0.3-0.3,0.5-0.5c0.2-0.2,0.3-0.3,0.5-0.5c0.2-0.1,0.3-0.3,0.5-0.4c0.2-0.1,0.3-0.2,0.5-0.2
		c0.2,0,0.3,0.1,0.3,0.3c0,0.2,0,0.5-0.1,1c-0.1,0.5-0.2,1.2-0.3,2.3c-0.1,1-0.3,2.4-0.5,4.2c-0.2,1.8-0.4,4-0.6,6.8
		c0,0.6-0.1,1.2-0.2,2c-0.1,0.8-0.1,1.6-0.2,2.4c-0.1,0.9-0.1,1.7-0.2,2.6c-0.1,0.9-0.1,1.7-0.2,2.5c0,0.8-0.1,1.5-0.1,2.2
		c0,0.7,0,1.2,0,1.6c0,1.1,0.1,2,0.4,2.6c0.2,0.6,0.6,1,1.2,1c0.3,0,0.6-0.1,0.8-0.4c0.2-0.3,0.5-0.7,0.7-1.1c0.2-0.5,0.5-1,0.7-1.7
		c0.2-0.6,0.5-1.3,0.8-2.1c0.1-0.2,0.2-0.3,0.3-0.5C196.1,50.1,196.2,50.1,196.3,50.1z"/>
	<path id="XMLID_39_" class="st0" d="M205.4,50.1c0.1,0,0.2,0,0.3,0.1c0.1,0.1,0.1,0.2,0.1,0.3c0,0.1,0,0.2-0.1,0.3
		c-0.4,1.1-0.7,2.1-1,2.9c-0.3,0.9-0.6,1.7-1,2.3c-0.5,1-0.9,1.8-1.4,2.4c-0.4,0.5-0.9,0.9-1.5,1.1c-0.1,0-0.3,0.1-0.4,0.1
		c-0.2,0-0.3,0-0.5,0c-0.4,0-0.8-0.1-1.3-0.2c-0.5-0.2-0.9-0.5-1.3-0.9c-0.4-0.5-0.7-1.1-1-1.9c-0.3-0.8-0.4-1.9-0.4-3.2
		c0-1.2,0-2.3,0.1-3.4c0.1-1.1,0.2-2.2,0.4-3.3c0.2-0.5,0.5-1,0.9-1.4c0.4-0.4,0.7-0.8,1.1-1.1c0.4-0.3,0.7-0.5,1-0.7
		c0.3-0.2,0.5-0.2,0.7-0.2c0.1,0,0.1,0.1,0.1,0.2c0,0.1,0,0.4-0.1,0.7c0,0.3-0.1,0.8-0.1,1.3c0,0.6-0.1,1.3-0.2,2.2
		c-0.1,0.9-0.1,2-0.1,3.2c0,0.7,0,1.4,0.1,2c0.1,0.6,0.2,1.2,0.4,1.6c0.2,0.5,0.4,0.8,0.6,1.1c0.2,0.3,0.5,0.4,0.8,0.4
		c0.3,0,0.5-0.1,0.8-0.4s0.5-0.6,0.7-1.1c0.2-0.5,0.5-1,0.8-1.7c0.3-0.7,0.5-1.4,0.8-2.1C204.9,50.3,205.1,50.1,205.4,50.1z
		 M202.1,33.8c0,0.1,0.1,0.2,0.1,0.3c0,0.3-0.2,0.6-0.6,1c-0.3,0.3-0.6,0.6-0.9,0.9c-0.3,0.3-0.5,0.5-0.8,0.7
		c-0.2,0.2-0.4,0.4-0.6,0.5c-0.2,0.1-0.3,0.2-0.4,0.2c-0.1,0-0.2,0-0.2,0c-0.1,0-0.1-0.1-0.2-0.2c-0.2-0.4-0.4-0.8-0.6-1.2
		c-0.2-0.4-0.4-0.8-0.5-1.1c-0.2-0.4-0.3-0.7-0.4-0.9s-0.1-0.5-0.1-0.5c0-0.2,0.1-0.4,0.2-0.6c0.1-0.1,0.2-0.3,0.5-0.6
		c0.2-0.3,0.5-0.6,0.8-0.9c0.3-0.3,0.5-0.6,0.8-0.9c0.2-0.3,0.4-0.4,0.5-0.5c0.2-0.2,0.4-0.3,0.5-0.3c0.1,0,0.3,0.1,0.3,0.3
		c0,0.1,0.2,0.4,0.3,0.7c0.2,0.4,0.4,0.8,0.5,1.2c0.2,0.4,0.4,0.8,0.6,1.2C202,33.5,202.1,33.7,202.1,33.8z"/>
	<path id="XMLID_42_" class="st0" d="M219.8,50.8c-0.3,0.9-0.8,1.7-1.5,2.2c-0.7,0.5-1.4,0.8-2.2,0.8c-0.4,0-0.8-0.1-1.2-0.2
		c-0.4,0.9-0.9,1.7-1.4,2.5c-0.5,0.7-1.1,1.4-1.7,1.9c-0.6,0.5-1.2,1-1.7,1.3c-0.6,0.3-1.1,0.5-1.6,0.5c-0.2,0-0.4-0.1-0.6-0.2
		s-0.3-0.3-0.5-0.5c-0.2-0.3-0.4-0.7-0.7-1.2s-0.6-1.2-0.8-2c-0.3-0.8-0.5-1.8-0.7-2.9c-0.2-1.1-0.3-2.4-0.3-3.8
		c0-0.7,0-1.2,0.1-1.7c0.1-0.4,0.2-0.8,0.3-1.1s0.2-0.5,0.3-0.7c0.1-0.2,0.2-0.3,0.3-0.4s0.2-0.2,0.3-0.3c0.1-0.1,0.2-0.1,0.2-0.1
		c0.1,0,0.2,0,0.3,0.1c0.1,0.1,0.2,0.1,0.2,0.1c0.1,0,0.2,0,0.3-0.1c0.1-0.1,0.3-0.2,0.4-0.3c0.1-0.1,0.3-0.2,0.4-0.3
		c0.1-0.1,0.2-0.1,0.3-0.1c0.1,0,0.2,0,0.2,0.1c0.1,0.1,0.1,0.2,0.1,0.5c0,0.2,0,0.4,0,0.6c0,0.2-0.1,0.4-0.1,0.7
		c0,0.3-0.1,0.6-0.1,1c0,0.4,0,0.9,0,1.5c0,1.8,0.2,3.5,0.6,5.1c0.4,1.6,0.9,2.9,1.6,3.9c0.2-0.2,0.3-0.5,0.5-0.8
		c0.2-0.3,0.4-0.7,0.6-1.1c0.2-0.4,0.4-1,0.6-1.6c0.2-0.6,0.3-1.3,0.5-2.1c-0.3-0.3-0.6-0.7-0.9-1.1c-0.3-0.4-0.5-0.9-0.8-1.4
		c-0.2-0.4-0.4-0.9-0.5-1.4s-0.1-0.9-0.1-1.3c0-0.5,0.1-1,0.2-1.4c0.1-0.5,0.3-0.9,0.6-1.2c0.2-0.3,0.5-0.6,0.8-0.8
		c0.3-0.2,0.7-0.3,1-0.3c0.9,0,1.6,0.4,2.2,1.2c0.6,0.8,0.9,1.9,0.9,3.4c0,0.8-0.1,1.6-0.2,2.4c-0.2,0.8-0.4,1.5-0.6,2.3
		c0.3,0.1,0.6,0.1,0.8,0.1c0.6,0,1.1-0.2,1.6-0.5c0.5-0.3,0.8-0.9,1.1-1.5c0.1-0.4,0.3-0.6,0.6-0.6c0.1,0,0.2,0,0.3,0.1
		c0.1,0.1,0.1,0.2,0.1,0.3C219.8,50.5,219.8,50.7,219.8,50.8z M211.7,47.1c0,0.5,0.1,1.1,0.3,1.7c0.2,0.6,0.5,1.2,0.9,1.7
		c0-0.3,0.1-0.7,0.1-1c0-0.4,0-0.8,0-1.2c0-0.8,0-1.5-0.1-2c-0.1-0.5-0.3-0.8-0.5-0.8c-0.1,0-0.2,0.1-0.3,0.2
		c-0.1,0.1-0.1,0.2-0.2,0.4c0,0.2-0.1,0.3-0.1,0.5C211.7,46.8,211.7,46.9,211.7,47.1z"/>
	<path id="XMLID_45_" class="st0" d="M231,50.1c0.1,0,0.2,0,0.3,0.1c0.1,0.1,0.1,0.2,0.1,0.3c0,0.1,0,0.3-0.1,0.4
		c-0.2,0.7-0.5,1.3-0.8,1.9c-0.3,0.6-0.5,1.1-0.8,1.6c-0.3,0.5-0.6,1-0.9,1.5c-0.3,0.5-0.7,1-1.1,1.5c-0.4,0.5-0.9,0.9-1.4,1.3
		s-1,0.7-1.6,0.9c-0.6,0.2-1.2,0.3-1.8,0.3c-0.5,0-1-0.1-1.6-0.2c-0.6-0.2-1.1-0.5-1.6-0.9c-0.5-0.4-0.9-1-1.2-1.8
		c-0.3-0.8-0.5-1.7-0.5-3c0-0.6,0.1-1.1,0.2-1.7c0.1-0.6,0.3-1.1,0.4-1.6c0.2-0.5,0.4-1,0.6-1.5c0.2-0.5,0.5-0.9,0.7-1.2
		c0.4-0.6,0.9-1.1,1.3-1.6c0.5-0.5,0.9-1,1.4-1.3c0.5-0.4,0.9-0.7,1.4-0.9c0.5-0.2,0.9-0.3,1.3-0.3c0.6,0,1.2,0.2,1.6,0.7
		c0.5,0.5,0.7,1.1,0.7,2c0,0.8-0.2,1.6-0.6,2.4c-0.4,0.8-0.9,1.6-1.5,2.4s-1.2,1.5-1.9,2.2c-0.7,0.7-1.3,1.2-1.8,1.7
		c0.3,0.7,0.7,1.3,1.1,1.6c0.5,0.3,0.9,0.5,1.4,0.5c0.7,0,1.4-0.2,2-0.7c0.6-0.5,1.1-1,1.6-1.7c0.5-0.7,0.9-1.4,1.2-2.1
		c0.3-0.7,0.7-1.4,0.9-2c0.1-0.2,0.2-0.3,0.3-0.5C230.7,50.1,230.8,50.1,231,50.1z M221.5,51.2c0,1,0.1,1.8,0.2,2.5
		c0.3-0.3,0.7-0.7,1-1.1c0.3-0.4,0.6-0.8,0.9-1.3c0.3-0.4,0.5-0.9,0.7-1.3c0.2-0.5,0.3-0.9,0.3-1.3c0-0.7-0.1-1.2-0.4-1.5
		c-0.3-0.4-0.6-0.5-0.8-0.5c-0.2,0-0.3,0.1-0.5,0.3c-0.2,0.2-0.4,0.5-0.6,0.9c-0.2,0.4-0.3,0.9-0.5,1.4
		C221.5,49.8,221.5,50.5,221.5,51.2z"/>
	<path id="XMLID_48_" class="st0" d="M242.2,50.8c-0.4,1.3-0.8,2.4-1.1,3.5s-0.8,2-1.2,2.8s-0.9,1.4-1.5,1.8
		c-0.5,0.4-1.1,0.7-1.8,0.7c-0.8,0-1.5-0.4-2-1.2c-0.5-0.8-0.7-1.9-0.7-3.3c0-0.6,0-1.1,0.1-1.7c0.1-0.5,0.1-1,0.2-1.5
		c0.1-0.5,0.1-1,0.2-1.4c0.1-0.5,0.1-0.9,0.1-1.3c0-0.5-0.1-0.8-0.2-0.9c-0.1-0.1-0.3-0.2-0.4-0.2c0,0-0.1,0-0.1,0c0,0-0.1,0-0.2,0
		c-0.1,0-0.2,0-0.4,0c-0.2,0-0.4,0.1-0.7,0.1c-0.2,0.4-0.3,0.7-0.4,1c-0.1,0.3-0.2,0.5-0.3,0.7c-0.1,0.2-0.2,0.4-0.2,0.5
		c-0.1,0.1-0.1,0.3-0.2,0.4c-0.1,0.3-0.2,0.5-0.3,0.6s-0.2,0.1-0.3,0.1c-0.1,0-0.2,0-0.3-0.1c-0.1-0.1-0.1-0.2-0.1-0.3
		c0-0.1,0-0.2,0.1-0.4c0-0.1,0.1-0.3,0.2-0.5c0.1-0.2,0.2-0.5,0.2-0.8c0.1-0.3,0.2-0.8,0.3-1.3c-0.3-0.1-0.6-0.5-0.8-1
		c-0.2-0.5-0.4-1.2-0.4-1.9c0-0.6,0.1-1.2,0.3-1.8c0.2-0.6,0.5-1.2,0.8-1.7c0.3-0.5,0.6-0.9,1-1.3c0.3-0.3,0.7-0.5,0.9-0.5
		c0.4,0,0.7,0.2,0.9,0.6c0.3,0.4,0.4,0.9,0.4,1.5c0,0.3,0,0.6-0.1,0.9c-0.1,0.3-0.1,0.6-0.2,0.8c-0.1,0.3-0.1,0.5-0.2,0.7
		c-0.1,0.2-0.1,0.4-0.1,0.5c0,0.1,0.1,0.2,0.2,0.2c0.1,0,0.2,0,0.4-0.1l1.2-0.5c0.4-0.2,0.8-0.3,1.1-0.3c0.5,0,0.9,0.2,1,0.5
		c0.2,0.3,0.3,0.8,0.3,1.4c0,0.3,0,0.8-0.1,1.5c-0.1,0.7-0.1,1.5-0.2,2.3c-0.1,0.8-0.1,1.7-0.2,2.5c-0.1,0.8-0.1,1.5-0.1,2
		c0,0.6,0.1,1,0.2,1.3c0.1,0.3,0.4,0.4,0.8,0.4c0.3,0,0.6-0.2,0.9-0.5c0.3-0.3,0.6-0.8,0.8-1.3c0.3-0.5,0.5-1.1,0.7-1.7
		c0.2-0.6,0.5-1.2,0.6-1.8c0.1-0.4,0.4-0.6,0.6-0.6c0.3,0,0.4,0.1,0.4,0.4c0,0,0,0.1,0,0.1C242.3,50.7,242.3,50.7,242.2,50.8z"/>
	<path id="XMLID_50_" class="st0" d="M258.3,50.7c-0.3,1-0.7,1.9-1,2.7c-0.4,0.9-0.8,1.7-1.2,2.5c-0.5,0.8-1,1.5-1.6,2.3
		c-0.6,0.7-1.3,1.4-2.1,2.1c0,0.8-0.1,1.6-0.2,2.4c-0.1,0.8-0.2,1.6-0.3,2.3c-0.3,2-0.6,3.6-1,4.8c-0.4,1.2-0.8,2.2-1.3,3
		c-0.5,0.7-0.9,1.3-1.4,1.7c-0.5,0.4-0.9,0.6-1.2,0.8c-0.8,0.4-1.5,0.6-2.1,0.6c-0.7,0-1.3-0.4-1.7-1.1c-0.4-0.8-0.6-1.7-0.6-2.9
		c0-1.1,0.2-2.2,0.6-3.2c0.4-1,0.9-1.9,1.5-2.8c0.6-0.9,1.3-1.7,2-2.5c0.7-0.8,1.5-1.5,2.2-2.1c0-0.6,0.1-1.2,0.1-1.7
		c0-0.5,0.1-1,0.1-1.4c0-1,0.1-2,0.1-3c0-1.1,0-2.1,0.1-3c-0.4,1.4-0.7,2.6-1.1,3.6c-0.4,0.9-0.8,1.7-1.1,2.2
		c-0.4,0.6-0.8,0.9-1.2,1.2c-0.4,0.2-0.8,0.3-1.3,0.3c-0.3,0-0.7-0.1-1-0.3s-0.7-0.5-0.9-1c-0.3-0.5-0.5-1.2-0.7-2.1
		c-0.2-0.9-0.3-2.1-0.3-3.6c0-0.6,0-1.2,0.1-1.8c0-0.6,0.1-1.2,0.2-1.8c0.1-0.6,0.2-1.1,0.3-1.6s0.2-1,0.3-1.4
		c0.1-0.2,0.1-0.3,0.2-0.5c0.1-0.1,0.2-0.2,0.2-0.3c0.1-0.1,0.2-0.2,0.2-0.3c0.1-0.1,0.1-0.1,0.2-0.1c0.1,0,0.2,0,0.3,0.1
		c0,0.1,0.1,0.1,0.3,0.1c0,0,0.1,0,0.3-0.1c0.1-0.1,0.3-0.2,0.4-0.3s0.3-0.2,0.4-0.3s0.3-0.1,0.4-0.1c0.2,0,0.3,0.1,0.3,0.4
		c0,0.1,0,0.2,0,0.4c0,0.1-0.1,0.3-0.1,0.5c-0.2,0.7-0.3,1.5-0.3,2.4c0,0.8-0.1,1.8-0.1,2.8c0,0.7,0,1.4,0,2c0,0.6,0,1.1,0.1,1.6
		c0.1,0.4,0.2,0.8,0.3,1c0.1,0.2,0.3,0.4,0.6,0.4c0.3,0,0.6-0.2,0.8-0.6c0.3-0.4,0.5-1,0.7-1.6c0.2-0.7,0.4-1.4,0.7-2.2
		c0.2-0.8,0.4-1.6,0.6-2.4c0.2-0.8,0.4-1.5,0.6-2.2c0.2-0.7,0.4-1.2,0.6-1.6c0.2-0.3,0.5-0.5,0.8-0.8c0.4-0.2,0.7-0.3,1-0.3
		c0.2,0,0.3,0,0.4,0.1c0.1,0,0.2,0.1,0.3,0.2c0.1,0.1,0.1,0.3,0.2,0.5c0,0.2,0.1,0.5,0.1,0.9c0,0.7,0,1.4,0,2.2
		c0,0.8-0.1,1.6-0.1,2.3c0,0.7-0.1,1.4-0.1,2c0,0.6-0.1,1-0.1,1.3c0,0.4-0.1,1-0.1,1.8c0,0.9-0.1,1.8-0.2,2.9c0.6-0.5,1.1-1,1.6-1.6
		c0.5-0.6,0.9-1.2,1.3-1.8c0.4-0.6,0.7-1.3,1-2.1c0.3-0.7,0.6-1.5,1-2.4c0.2-0.4,0.4-0.7,0.7-0.7c0.2,0,0.3,0.1,0.3,0.3
		c0,0,0,0.1,0,0.2C258.3,50.6,258.3,50.6,258.3,50.7z M248.2,65.7c0-0.3,0.1-0.6,0.1-0.9c0-0.3,0.1-0.6,0.1-1
		c-0.5,0.5-0.9,1.1-1.3,1.7c-0.4,0.6-0.7,1.3-1,2c-0.3,0.7-0.5,1.5-0.6,2.3c-0.2,0.8-0.2,1.7-0.2,2.7c0,0.6,0,0.9,0.1,1.2
		c0.1,0.2,0.2,0.3,0.3,0.3c0.2,0,0.3-0.2,0.5-0.5c0.2-0.3,0.3-0.7,0.5-1.2c0.2-0.5,0.3-1,0.5-1.6c0.1-0.6,0.3-1.2,0.4-1.8
		c0.1-0.6,0.2-1.2,0.3-1.8S248.2,66,248.2,65.7z"/>
</g>
<g id="XMLID_1_">
	<path id="XMLID_53_" class="st1" d="M64.9,91.8c0,0.5-0.1,1-0.3,1.5c-0.2,0.4-0.5,0.8-0.9,1.2c-0.4,0.3-0.8,0.6-1.3,0.8
		c-0.5,0.2-1,0.3-1.5,0.3h-6.7V81.3h6.8c0.5,0,0.9,0.1,1.3,0.3s0.7,0.5,1,0.8s0.5,0.7,0.6,1.2c0.2,0.4,0.2,0.9,0.2,1.3
		c0,0.7-0.2,1.4-0.5,2c-0.4,0.6-0.9,1-1.5,1.3c0.8,0.2,1.5,0.7,1.9,1.3C64.7,90.2,64.9,90.9,64.9,91.8z M55.6,82.5v5.2h4.9
		c0.3,0,0.7-0.1,1-0.2c0.3-0.1,0.6-0.3,0.8-0.6s0.4-0.5,0.5-0.8c0.1-0.3,0.2-0.6,0.2-1c0-0.4-0.1-0.7-0.2-1s-0.3-0.6-0.5-0.8
		c-0.2-0.2-0.5-0.4-0.7-0.6c-0.3-0.1-0.6-0.2-0.9-0.2H55.6z M63.5,91.6c0-0.3-0.1-0.7-0.2-1c-0.1-0.3-0.3-0.6-0.5-0.9
		c-0.2-0.2-0.5-0.4-0.8-0.6c-0.3-0.2-0.6-0.2-1-0.2h-5.4v5.4h5.3c0.4,0,0.7-0.1,1-0.2c0.3-0.1,0.6-0.3,0.8-0.6
		c0.2-0.2,0.4-0.5,0.5-0.9C63.4,92.3,63.5,91.9,63.5,91.6z"/>
	<path id="XMLID_57_" class="st1" d="M73.3,94.3c0.9,0,1.6-0.2,2.2-0.5s1.1-0.8,1.4-1.3c0.4-0.6,0.6-1.2,0.7-1.9
		c0.1-0.7,0.2-1.4,0.2-2.1v-7.2h1.4v7.2c0,1-0.1,1.9-0.3,2.7c-0.2,0.9-0.6,1.6-1,2.3s-1.1,1.2-1.9,1.6c-0.8,0.4-1.7,0.6-2.8,0.6
		c-1.1,0-2.1-0.2-2.8-0.6c-0.8-0.4-1.4-0.9-1.9-1.6c-0.5-0.7-0.8-1.4-1-2.3c-0.2-0.9-0.3-1.7-0.3-2.6v-7.2h1.4v7.2
		c0,0.7,0.1,1.5,0.2,2.2c0.1,0.7,0.4,1.3,0.8,1.9c0.4,0.5,0.8,1,1.4,1.3C71.7,94.1,72.4,94.3,73.3,94.3z"/>
	<path id="XMLID_59_" class="st1" d="M82.6,95.5V81.3h6c0.6,0,1.2,0.1,1.7,0.4c0.5,0.3,1,0.6,1.3,1c0.4,0.4,0.7,0.9,0.9,1.4
		c0.2,0.5,0.3,1.1,0.3,1.6c0,0.5-0.1,1-0.2,1.5c-0.2,0.5-0.4,0.9-0.6,1.3s-0.6,0.7-1,1c-0.4,0.3-0.8,0.4-1.3,0.5l3.5,5.5h-1.6
		l-3.3-5.2H84v5.2H82.6z M84,89h4.6c0.4,0,0.8-0.1,1.1-0.3c0.3-0.2,0.6-0.4,0.9-0.7c0.2-0.3,0.4-0.7,0.6-1s0.2-0.8,0.2-1.2
		s-0.1-0.8-0.2-1.2c-0.2-0.4-0.4-0.7-0.6-1c-0.3-0.3-0.6-0.5-0.9-0.7c-0.4-0.2-0.7-0.3-1.1-0.3H84V89z"/>
	<path id="XMLID_62_" class="st1" d="M106,93.4c-1.3,1.5-2.8,2.2-4.6,2.2c-1,0-1.8-0.2-2.6-0.6c-0.8-0.4-1.5-1-2.1-1.6
		s-1.1-1.5-1.4-2.3c-0.3-0.9-0.5-1.7-0.5-2.7c0-0.9,0.2-1.9,0.5-2.7c0.3-0.9,0.8-1.6,1.4-2.3c0.6-0.7,1.3-1.2,2.1-1.6
		c0.8-0.4,1.7-0.6,2.6-0.6c0.7,0,1.3,0.1,1.9,0.2c0.6,0.2,1.1,0.4,1.5,0.6c0.4,0.3,0.8,0.6,1.2,1c0.3,0.4,0.6,0.8,0.8,1.3l-1.1,0.7
		c-0.5-0.9-1.1-1.5-1.8-1.9s-1.6-0.6-2.5-0.6c-0.8,0-1.5,0.2-2.1,0.5s-1.2,0.8-1.6,1.3c-0.4,0.6-0.8,1.2-1,1.9
		c-0.2,0.7-0.4,1.4-0.4,2.2c0,0.8,0.1,1.6,0.4,2.3c0.3,0.7,0.6,1.4,1.1,1.9s1,1,1.7,1.3c0.6,0.3,1.3,0.5,2.1,0.5
		c0.8,0,1.6-0.2,2.3-0.6c0.7-0.4,1.4-1,2.1-1.8v-2.4h-3.2v-1.1h4.3v7H106V93.4z"/>
	<path id="XMLID_64_" class="st1" d="M115.8,94.3c0.9,0,1.6-0.2,2.2-0.5s1.1-0.8,1.4-1.3c0.4-0.6,0.6-1.2,0.7-1.9
		c0.1-0.7,0.2-1.4,0.2-2.1v-7.2h1.4v7.2c0,1-0.1,1.9-0.3,2.7c-0.2,0.9-0.6,1.6-1,2.3s-1.1,1.2-1.9,1.6c-0.8,0.4-1.7,0.6-2.8,0.6
		c-1.1,0-2.1-0.2-2.8-0.6c-0.8-0.4-1.4-0.9-1.9-1.6c-0.5-0.7-0.8-1.4-1-2.3c-0.2-0.9-0.3-1.7-0.3-2.6v-7.2h1.4v7.2
		c0,0.7,0.1,1.5,0.2,2.2c0.1,0.7,0.4,1.3,0.8,1.9c0.4,0.5,0.8,1,1.4,1.3C114.2,94.1,114.9,94.3,115.8,94.3z"/>
	<path id="XMLID_66_" class="st1" d="M134.6,94.2v1.2h-9.5V81.3h9.4v1.2h-8v5.1h6.9v1.2h-6.9v5.4H134.6z"/>
	<path id="XMLID_68_" class="st1" d="M137.3,95.5V81.3h6c0.6,0,1.2,0.1,1.7,0.4c0.5,0.3,1,0.6,1.3,1s0.7,0.9,0.9,1.4
		c0.2,0.5,0.3,1.1,0.3,1.6c0,0.5-0.1,1-0.2,1.5c-0.2,0.5-0.4,0.9-0.6,1.3s-0.6,0.7-1,1c-0.4,0.3-0.8,0.4-1.3,0.5l3.5,5.5h-1.6
		l-3.3-5.2h-4.2v5.2H137.3z M138.7,89h4.6c0.4,0,0.8-0.1,1.1-0.3c0.3-0.2,0.6-0.4,0.9-0.7c0.2-0.3,0.4-0.7,0.6-1
		c0.1-0.4,0.2-0.8,0.2-1.2s-0.1-0.8-0.2-1.2s-0.4-0.7-0.6-1c-0.3-0.3-0.6-0.5-0.9-0.7c-0.4-0.2-0.7-0.3-1.1-0.3h-4.5V89z"/>
	<path id="XMLID_71_" class="st1" d="M165.1,95.5l-1.6-1.7c-0.6,0.6-1.2,1.1-1.9,1.4c-0.7,0.3-1.5,0.5-2.4,0.5
		c-0.6,0-1.2-0.1-1.8-0.3c-0.6-0.2-1-0.5-1.4-0.8c-0.4-0.3-0.7-0.7-1-1.2c-0.2-0.5-0.4-1-0.4-1.6c0-0.5,0.1-0.9,0.2-1.3
		c0.2-0.4,0.4-0.8,0.7-1.1c0.3-0.3,0.6-0.7,1-1c0.4-0.3,0.7-0.6,1.1-0.8c-0.4-0.4-0.7-0.7-0.9-1c-0.2-0.3-0.4-0.6-0.6-0.8
		c-0.2-0.3-0.3-0.5-0.3-0.8c-0.1-0.2-0.1-0.5-0.1-0.7c0-0.4,0.1-0.9,0.3-1.2c0.2-0.4,0.4-0.7,0.8-1c0.3-0.3,0.7-0.5,1.1-0.7
		c0.4-0.2,0.9-0.2,1.4-0.2c0.5,0,0.9,0.1,1.3,0.2c0.4,0.1,0.8,0.3,1,0.6c0.3,0.2,0.5,0.5,0.7,0.9s0.3,0.7,0.3,1.1s-0.1,0.8-0.3,1.1
		s-0.4,0.7-0.7,1c-0.3,0.3-0.6,0.6-1,0.9c-0.4,0.3-0.8,0.6-1.2,0.8l4,4.2c0.3-0.5,0.5-1.1,0.6-1.7c0.2-0.6,0.2-1.2,0.2-1.9h1.2
		c0,0.8-0.1,1.6-0.3,2.3c-0.2,0.7-0.5,1.4-0.9,2l2.7,2.8H165.1z M159.3,94.6c0.7,0,1.3-0.1,1.9-0.4c0.6-0.3,1.1-0.7,1.5-1.2
		l-4.3-4.5c-0.7,0.5-1.3,1-1.8,1.5s-0.7,1.2-0.7,1.9c0,0.4,0.1,0.8,0.3,1.2s0.5,0.6,0.8,0.9s0.7,0.4,1.1,0.5
		C158.5,94.5,158.9,94.6,159.3,94.6z M156.9,84.2c0,0.2,0,0.3,0.1,0.5s0.1,0.3,0.3,0.6c0.1,0.2,0.3,0.4,0.5,0.7
		c0.2,0.3,0.5,0.6,0.9,1c0.8-0.5,1.4-1,1.9-1.4c0.5-0.4,0.7-1,0.7-1.5c0-0.5-0.2-0.9-0.6-1.3c-0.4-0.3-0.9-0.5-1.5-0.5
		c-0.3,0-0.6,0.1-0.9,0.2c-0.3,0.1-0.5,0.3-0.7,0.4s-0.4,0.4-0.5,0.6C157,83.6,156.9,83.9,156.9,84.2z"/>
	<path id="XMLID_75_" class="st1" d="M173.9,95.5V81.3h5.9c0.6,0,1.2,0.1,1.7,0.4c0.5,0.3,1,0.6,1.3,1s0.7,0.9,0.9,1.4
		c0.2,0.5,0.3,1.1,0.3,1.6c0,0.6-0.1,1.2-0.3,1.7c-0.2,0.5-0.5,1-0.8,1.4c-0.4,0.4-0.8,0.7-1.3,1c-0.5,0.3-1.1,0.4-1.7,0.4h-4.6v5.2
		H173.9z M175.3,89h4.5c0.4,0,0.8-0.1,1.1-0.3s0.6-0.4,0.9-0.7s0.4-0.6,0.6-1c0.1-0.4,0.2-0.8,0.2-1.2c0-0.4-0.1-0.9-0.2-1.3
		c-0.2-0.4-0.4-0.7-0.6-1c-0.3-0.3-0.6-0.5-0.9-0.7c-0.4-0.2-0.7-0.3-1.1-0.3h-4.4V89z"/>
	<path id="XMLID_78_" class="st1" d="M186.3,95.5V81.3h1.4v14.2H186.3z"/>
	<path id="XMLID_80_" class="st1" d="M190.1,94.4l9.7-11.9h-9.5v-1.2h11.1v1.1l-9.5,11.9h9.5v1.2h-11.3V94.4z"/>
	<path id="XMLID_82_" class="st1" d="M202.7,94.4l9.7-11.9h-9.5v-1.2H214v1.1l-9.5,11.9h9.5v1.2h-11.3V94.4z"/>
	<path id="XMLID_84_" class="st1" d="M220.8,81.3h1.2l5.9,14.2h-1.5l-1.8-4.4h-6.4l-1.8,4.4h-1.5L220.8,81.3z M224.3,89.9l-2.9-7
		l-2.9,7H224.3z"/>
</g>
<line id="XMLID_5_" class="st2" x1="25" y1="89" x2="45" y2="89"/>
<line id="XMLID_6_" class="st2" x1="235" y1="89" x2="255" y2="89"/>
</svg>
