<?xml version="1.0" encoding="utf-8"?>
<!-- Generator: Adobe Illustrator 19.0.0, SVG Export Plug-In . SVG Version: 6.00 Build 0)  -->
<svg version="1.1" id="Camada_1" xmlns="http://www.w3.org/2000/svg" xmlns:xlink="http://www.w3.org/1999/xlink" x="0px" y="0px"
	 viewBox="0 0 1920 721" style="enable-background:new 0 0 1920 721;" xml:space="preserve">
<style type="text/css">
	.st0{fill:#FFFFFF;}
</style>
<g id="XMLID_22_">
	<g id="XMLID_3_">
		<g id="XMLID_395_">
			<path id="XMLID_396_" class="st0" d="M160,228.5h-29.6v-28h87v28h-29.5v156.8H160V228.5z"/>
			<path id="XMLID_398_" class="st0" d="M287.9,387.3c-12.3,0-22.7-4.3-31.3-12.8c-8.6-8.6-12.8-18.9-12.8-31.1V200.4h27.3v142.6
				c0,4.4,1.6,8.2,4.7,11.3c3.1,3.1,6.9,4.6,11.4,4.6s8.2-1.5,11.3-4.6c3.1-3.1,4.6-6.9,4.6-11.3V200.4h29.1v142.9
				c0,12.4-4.3,22.8-13,31.3C310.5,383.1,300.1,387.3,287.9,387.3z"/>
			<path id="XMLID_400_" class="st0" d="M448.7,341c0,12.2-4.3,22.6-12.8,31.3c-8.6,8.7-18.9,13-31,13h-43.8v-185h43.8
				c12.2,0,22.5,4.3,31,13c8.5,8.7,12.8,19,12.8,31.1V341z M388.9,357.7h16.8c4.4,0,8.2-1.6,11.2-4.8c3-3.2,4.6-7,4.6-11.3v-96.8
				c0-4.4-1.5-8.2-4.6-11.4c-3.1-3.1-6.8-4.7-11.1-4.7h-16.8V357.7z"/>
			<path id="XMLID_403_" class="st0" d="M505.2,385.3h-27.9V200.4h27.9V385.3z"/>
			<path id="XMLID_405_" class="st0" d="M534.3,385.3v-185H576c11,0,20.9,2.9,29.8,8.7c7.6,4.9,13,12.5,16.2,22.9
				c1.8,5.5,2.7,12,2.7,19.6c0,12.4-3.3,22.3-9.9,29.8c-2.8,3.1-6,5.6-9.7,7.2c6.2,2.4,11.5,7,15.8,14c2.9,4.7,5,10.8,6.3,18.3
				c0.7,3.8,1,8.1,1,12.8c0,11.7-2.2,21.6-6.6,29.8c-3.4,6.4-8.3,11.5-14.6,15.3c-7.1,4.3-14.1,6.5-21.1,6.5H534.3z M564.4,275.8
				H576c8.7,0,14.5-4.2,17.4-12.7c1.1-3.1,1.6-7,1.6-11.7c0-7.7-1.9-13.5-5.6-17.4c-3.4-3.6-7.9-5.5-13.4-5.5h-11.7V275.8z
				 M564.4,357.7H576c9.4,0,16-4.9,19.6-14.6c1.3-3.3,1.9-7.2,1.9-11.5c0-10.3-2-17.8-5.9-22.6c-3.5-4.3-8.8-6.5-15.6-6.5h-11.7
				V357.7z"/>
			<path id="XMLID_409_" class="st0" d="M700.2,198.1c12.3,0,22.7,4.3,31.3,13c8.6,8.7,12.9,19.1,12.9,31.3v100.9
				c0,12.3-4.3,22.7-13,31.3c-8.7,8.6-19.1,12.9-31.3,12.9c-12.3,0-22.7-4.3-31.3-13c-8.6-8.7-12.8-19.1-12.8-31.3V242.3
				c0-12.3,4.3-22.7,13-31.3C677.8,202.4,688.1,198.1,700.2,198.1z M715.4,241.7c0-4.4-1.5-8.2-4.6-11.3c-3.1-3.1-6.9-4.6-11.3-4.6
				s-8.2,1.5-11.4,4.6c-3.1,3.1-4.7,6.9-4.7,11.3v101.2c0,4.4,1.6,8.2,4.7,11.3c3.1,3.1,6.9,4.6,11.4,4.6s8.2-1.5,11.3-4.6
				c3.1-3.1,4.6-6.9,4.6-11.3V241.7z"/>
			<path id="XMLID_412_" class="st0" d="M801,385.3h-27.9v-185h40l26,132.9l24.9-132.9h38.4v185h-27.9V269l-24.2,116.2H828
				l-27-115.9V385.3z"/>
			<path id="XMLID_414_" class="st0" d="M1060.1,341c0,12.2-4.3,22.6-12.8,31.3c-8.6,8.7-18.9,13-31,13h-43.8v-185h43.8
				c12.2,0,22.5,4.3,31,13c8.5,8.7,12.8,19,12.8,31.1V341z M1000.3,357.7h16.8c4.4,0,8.2-1.6,11.2-4.8c3-3.2,4.6-7,4.6-11.3v-96.8
				c0-4.4-1.5-8.2-4.6-11.4c-3.1-3.1-6.8-4.7-11.1-4.7h-16.8V357.7z"/>
			<path id="XMLID_417_" class="st0" d="M1088.7,385.3v-185h79.4v28h-51.5v50.4h37.6v28h-37.6v50.4h51.5v28H1088.7z"/>
			<path id="XMLID_419_" class="st0" d="M1267.4,385.3h-76V200.4h27.9v157.1h48.1V385.3z"/>
			<path id="XMLID_421_" class="st0" d="M1318.6,385.3h-27.9V200.4h27.9V385.3z"/>
			<path id="XMLID_423_" class="st0" d="M1379.1,385.3l-33-184.8h29.2l23.2,144.1l23.4-144.1h29.2l-33.6,184.8H1379.1z"/>
			<path id="XMLID_425_" class="st0" d="M1478.5,385.3v-185h79.4v28h-51.5v50.4h37.6v28h-37.6v50.4h51.5v28H1478.5z"/>
			<path id="XMLID_427_" class="st0" d="M1625.1,200.4c15.5,0,26.9,4.3,34.2,12.8c6.4,7.5,9.6,17.9,9.6,31.3v26.8
				c0,13.1-5,24.1-14.9,33.2l20.6,80.7h-30.1l-16.9-69.6c-0.8,0-1.6,0-2.5,0h-16.1v69.6h-27.9V200.4H1625.1z M1641.8,245
				c0-10.7-5.3-16.1-15.9-16.1h-16.8v59.1h16.8c4.4,0,8.2-1.6,11.3-4.7c3.1-3.1,4.6-6.9,4.6-11.4V245z"/>
			<path id="XMLID_430_" class="st0" d="M1723,307.8l-37.3-107.5h30.7l20.7,66.4l20.5-66.4h30.8l-37.5,107.5v77.4H1723V307.8z"/>
		</g>
		<g id="XMLID_325_">
			<path id="XMLID_326_" class="st0" d="M358.7,579.6h-11.5v-31.4h-32.2v31.4h-11.4v-69.8h11.4v28.5h32.2v-28.5h11.5V579.6z"/>
			<path id="XMLID_328_" class="st0" d="M420.4,579.6l-7-19.4h-26.7l-6.8,19.4h-12l26.1-70.1h12.4l26.1,70.1H420.4z M410.4,550.4
				l-6.5-19c-0.5-1.3-1.1-3.3-2-6c-0.8-2.7-1.4-4.7-1.7-6c-0.9,3.9-2.1,8.2-3.8,12.8l-6.3,18.2H410.4z"/>
			<path id="XMLID_331_" class="st0" d="M471.8,579.6l-20.2-58.3h-0.4c0.5,8.7,0.8,16.8,0.8,24.3v33.9h-10.4v-69.8h16.1l19.4,55.5
				h0.3l19.9-55.5h16.1v69.8h-11v-34.5c0-3.5,0.1-8,0.3-13.6c0.2-5.6,0.3-8.9,0.5-10.1h-0.4l-20.9,58.2H471.8z"/>
			<path id="XMLID_333_" class="st0" d="M531.9,509.9h20.7c9.6,0,16.6,1.4,20.8,4.2c4.3,2.8,6.4,7.2,6.4,13.3c0,4.1-1,7.5-3.1,10.2
				c-2.1,2.7-5.1,4.4-9.1,5.1v0.5c4.9,0.9,8.5,2.7,10.8,5.5c2.3,2.7,3.5,6.4,3.5,11c0,6.3-2.2,11.2-6.6,14.7
				c-4.4,3.5-10.5,5.3-18.3,5.3h-25.2V509.9z M543.3,538.7h11c4.8,0,8.3-0.8,10.5-2.3c2.2-1.5,3.3-4.1,3.3-7.7
				c0-3.3-1.2-5.6-3.6-7.1c-2.4-1.5-6.1-2.2-11.3-2.2h-9.9V538.7z M543.3,548V570h12.1c4.8,0,8.4-0.9,10.8-2.7
				c2.4-1.8,3.7-4.7,3.7-8.7c0-3.6-1.2-6.3-3.7-8.1c-2.5-1.7-6.3-2.6-11.3-2.6H543.3z"/>
			<path id="XMLID_337_" class="st0" d="M651.1,509.9V555c0,5.2-1.1,9.7-3.3,13.5c-2.2,3.9-5.4,6.8-9.6,8.9c-4.2,2.1-9.2,3.1-15,3.1
				c-8.7,0-15.4-2.3-20.2-6.9c-4.8-4.6-7.2-10.9-7.2-18.9v-45h11.5V554c0,5.8,1.3,10,4,12.7c2.7,2.7,6.8,4.1,12.3,4.1
				c10.8,0,16.1-5.6,16.1-16.9v-44H651.1z"/>
			<path id="XMLID_339_" class="st0" d="M680.3,551.8v27.9h-11.4v-69.8h19.7c9,0,15.7,1.7,20,5.1c4.3,3.4,6.5,8.5,6.5,15.3
				c0,8.7-4.5,14.9-13.6,18.6l19.7,30.9h-13l-16.7-27.9H680.3z M680.3,542.3h7.9c5.3,0,9.2-1,11.5-3c2.4-2,3.6-4.9,3.6-8.8
				c0-3.9-1.3-6.8-3.9-8.5c-2.6-1.7-6.5-2.6-11.6-2.6h-7.5V542.3z"/>
			<path id="XMLID_342_" class="st0" d="M759.9,541.8h25.7v35c-4.2,1.4-8.2,2.3-12.1,2.9c-3.9,0.6-8,0.9-12.5,0.9
				c-10.6,0-18.7-3.1-24.4-9.4c-5.7-6.3-8.6-15.1-8.6-26.5c0-11.2,3.2-20,9.7-26.4c6.5-6.3,15.4-9.5,26.7-9.5
				c7.3,0,14.2,1.4,20.7,4.2l-4,9.5c-5.7-2.6-11.3-3.9-17-3.9c-7.4,0-13.3,2.3-17.7,7c-4.3,4.7-6.5,11.1-6.5,19.2
				c0,8.5,1.9,15,5.8,19.4c3.9,4.4,9.5,6.7,16.8,6.7c3.7,0,7.6-0.5,11.8-1.4v-18h-14.5V541.8z"/>
			<path id="XMLID_344_" class="st0" d="M857.1,509.9V555c0,5.2-1.1,9.7-3.3,13.5c-2.2,3.9-5.4,6.8-9.6,8.9c-4.2,2.1-9.2,3.1-15,3.1
				c-8.7,0-15.4-2.3-20.2-6.9c-4.8-4.6-7.2-10.9-7.2-18.9v-45h11.5V554c0,5.8,1.3,10,4,12.7c2.7,2.7,6.8,4.1,12.3,4.1
				c10.8,0,16.1-5.6,16.1-16.9v-44H857.1z"/>
			<path id="XMLID_346_" class="st0" d="M914.4,579.6h-39.5v-69.8h39.5v9.6h-28.1v19h26.3v9.5h-26.3v21.9h28.1V579.6z"/>
			<path id="XMLID_348_" class="st0" d="M940.9,551.8v27.9h-11.4v-69.8h19.7c9,0,15.7,1.7,20,5.1c4.3,3.4,6.5,8.5,6.5,15.3
				c0,8.7-4.5,14.9-13.6,18.6l19.7,30.9h-13l-16.7-27.9H940.9z M940.9,542.3h7.9c5.3,0,9.2-1,11.5-3c2.4-2,3.6-4.9,3.6-8.8
				c0-3.9-1.3-6.8-3.9-8.5c-2.6-1.7-6.5-2.6-11.6-2.6h-7.5V542.3z"/>
			<path id="XMLID_351_" class="st0" d="M991.9,579.6v-69.8h11.4v69.8H991.9z"/>
			<path id="XMLID_353_" class="st0" d="M1065,579.6l-7-19.4h-26.7l-6.8,19.4h-12l26.1-70.1h12.4l26.1,70.1H1065z M1055,550.4
				l-6.5-19c-0.5-1.3-1.1-3.3-2-6c-0.8-2.7-1.4-4.7-1.7-6c-0.9,3.9-2.1,8.2-3.8,12.8l-6.3,18.2H1055z"/>
			<path id="XMLID_356_" class="st0" d="M1107.1,561.2c0-4.2,1-7.8,3.1-10.9c2-3.1,5.7-6.2,11-9.2c-3-3.5-5.1-6.5-6.2-8.9
				c-1.1-2.4-1.6-5-1.6-7.6c0-4.8,1.7-8.7,5.2-11.5c3.5-2.8,8.1-4.2,13.9-4.2c5.6,0,10.1,1.4,13.3,4.1c3.2,2.7,4.8,6.4,4.8,11
				c0,3.6-1.1,6.9-3.2,9.9c-2.1,3-5.7,5.9-10.8,8.9l16.5,15.9c2.6-3.4,4.7-8.4,6.4-15h11.5c-2.2,9-5.8,16.4-10.7,22.1l14.4,13.9
				h-14.5l-7.1-6.9c-3.2,2.6-6.7,4.6-10.4,5.9c-3.7,1.3-7.7,2-12.2,2c-7.3,0-13.1-1.7-17.2-5.2
				C1109.2,571.9,1107.1,567.2,1107.1,561.2z M1131.2,571c5.8,0,10.8-1.7,14.9-5.1l-18.3-18c-3.4,2.2-5.7,4.2-7,6.1
				c-1.3,1.9-1.9,4-1.9,6.5c0,3.1,1.1,5.7,3.3,7.6C1124.5,570,1127.4,571,1131.2,571z M1124.1,524.9c0,2,0.5,3.9,1.6,5.7
				c1.1,1.8,2.6,3.7,4.5,5.7c3.6-2,6.1-3.9,7.6-5.7c1.4-1.8,2.2-3.7,2.2-5.9c0-2.1-0.7-3.7-2.1-5c-1.4-1.2-3.2-1.9-5.5-1.9
				c-2.5,0-4.5,0.6-6,1.9C1124.8,521,1124.1,522.7,1124.1,524.9z"/>
			<path id="XMLID_360_" class="st0" d="M1255.7,531c0,7.3-2.4,12.9-7.2,16.7c-4.8,3.9-11.6,5.8-20.4,5.8h-7.3v26.1h-11.4v-69.8
				h20.1c8.7,0,15.2,1.8,19.6,5.3C1253.5,518.8,1255.7,524,1255.7,531z M1220.9,543.9h6.1c5.9,0,10.1-1,12.9-3.1
				c2.7-2,4.1-5.2,4.1-9.5c0-4-1.2-7-3.7-9c-2.4-2-6.3-3-11.5-3h-7.9V543.9z"/>
			<path id="XMLID_363_" class="st0" d="M1269.6,579.6v-69.8h11.4v69.8H1269.6z"/>
			<path id="XMLID_379_" class="st0" d="M1343.3,579.6h-49.9v-7.9l35.2-52.1h-34.2v-9.8h48v8l-35.3,52h36.3V579.6z"/>
			<path id="XMLID_381_" class="st0" d="M1399.5,579.6h-49.9v-7.9l35.2-52.1h-34.2v-9.8h48v8l-35.3,52h36.3V579.6z"/>
			<path id="XMLID_383_" class="st0" d="M1455.1,579.6l-7-19.4h-26.7l-6.8,19.4h-12l26.1-70.1h12.4l26.1,70.1H1455.1z M1445.2,550.4
				l-6.5-19c-0.5-1.3-1.1-3.3-2-6c-0.8-2.7-1.4-4.7-1.7-6c-0.9,3.9-2.1,8.2-3.8,12.8l-6.3,18.2H1445.2z"/>
			<path id="XMLID_386_" class="st0" d="M1487.9,551.8v27.9h-11.4v-69.8h19.7c9,0,15.7,1.7,20,5.1c4.3,3.4,6.5,8.5,6.5,15.3
				c0,8.7-4.5,14.9-13.6,18.6l19.7,30.9h-13l-16.7-27.9H1487.9z M1487.9,542.3h7.9c5.3,0,9.2-1,11.5-3c2.4-2,3.6-4.9,3.6-8.8
				c0-3.9-1.3-6.8-3.9-8.5c-2.6-1.7-6.5-2.6-11.6-2.6h-7.5V542.3z"/>
			<path id="XMLID_389_" class="st0" d="M1538.9,579.6v-69.8h11.4v69.8H1538.9z"/>
			<path id="XMLID_391_" class="st0" d="M1612.1,579.6l-7-19.4h-26.7l-6.8,19.4h-12l26.1-70.1h12.4l26.1,70.1H1612.1z M1602.1,550.4
				l-6.5-19c-0.5-1.3-1.1-3.3-2-6c-0.8-2.7-1.4-4.7-1.7-6c-0.9,3.9-2.1,8.2-3.8,12.8l-6.3,18.2H1602.1z"/>
		</g>
		<g id="XMLID_270_">
			<path id="XMLID_271_" class="st0" d="M272.5,454.1c0-3.3,0.8-5.9,2.3-7.6c1.5-1.7,3.7-2.6,6.5-2.6c2.9,0,5.1,0.9,6.7,2.6
				c1.6,1.7,2.4,4.2,2.4,7.6c0,3.2-0.8,5.7-2.5,7.5c-1.6,1.7-3.9,2.6-6.7,2.6c-2.5,0-4.6-0.8-6.3-2.3
				C273.3,460.3,272.5,457.7,272.5,454.1z"/>
			<path id="XMLID_273_" class="st0" d="M326.7,454.1c0-3.3,0.8-5.9,2.3-7.6c1.5-1.7,3.7-2.6,6.5-2.6c2.9,0,5.1,0.9,6.7,2.6
				c1.6,1.7,2.4,4.2,2.4,7.6c0,3.2-0.8,5.7-2.5,7.5c-1.6,1.7-3.9,2.6-6.7,2.6c-2.5,0-4.6-0.8-6.3-2.3
				C327.5,460.3,326.7,457.7,326.7,454.1z"/>
			<path id="XMLID_275_" class="st0" d="M380.9,454.1c0-3.3,0.8-5.9,2.3-7.6c1.5-1.7,3.7-2.6,6.5-2.6c2.9,0,5.1,0.9,6.7,2.6
				c1.6,1.7,2.4,4.2,2.4,7.6c0,3.2-0.8,5.7-2.5,7.5c-1.6,1.7-3.9,2.6-6.7,2.6c-2.5,0-4.6-0.8-6.3-2.3
				C381.8,460.3,380.9,457.7,380.9,454.1z"/>
			<path id="XMLID_277_" class="st0" d="M435.2,454.1c0-3.3,0.8-5.9,2.3-7.6c1.5-1.7,3.7-2.6,6.5-2.6c2.9,0,5.1,0.9,6.7,2.6
				c1.6,1.7,2.4,4.2,2.4,7.6c0,3.2-0.8,5.7-2.5,7.5c-1.6,1.7-3.9,2.6-6.7,2.6c-2.5,0-4.6-0.8-6.3-2.3
				C436,460.3,435.2,457.7,435.2,454.1z"/>
			<path id="XMLID_279_" class="st0" d="M489.4,454.1c0-3.3,0.8-5.9,2.3-7.6c1.5-1.7,3.7-2.6,6.5-2.6c2.9,0,5.1,0.9,6.7,2.6
				c1.6,1.7,2.4,4.2,2.4,7.6c0,3.2-0.8,5.7-2.5,7.5c-1.6,1.7-3.9,2.6-6.7,2.6c-2.5,0-4.6-0.8-6.3-2.3
				C490.2,460.3,489.4,457.7,489.4,454.1z"/>
			<path id="XMLID_281_" class="st0" d="M543.6,454.1c0-3.3,0.8-5.9,2.3-7.6c1.5-1.7,3.7-2.6,6.5-2.6c2.9,0,5.1,0.9,6.7,2.6
				c1.6,1.7,2.4,4.2,2.4,7.6c0,3.2-0.8,5.7-2.5,7.5c-1.6,1.7-3.9,2.6-6.7,2.6c-2.5,0-4.6-0.8-6.3-2.3
				C544.5,460.3,543.6,457.7,543.6,454.1z"/>
			<path id="XMLID_283_" class="st0" d="M597.8,454.1c0-3.3,0.8-5.9,2.3-7.6c1.5-1.7,3.7-2.6,6.5-2.6c2.9,0,5.1,0.9,6.7,2.6
				c1.6,1.7,2.4,4.2,2.4,7.6c0,3.2-0.8,5.7-2.5,7.5c-1.6,1.7-3.9,2.6-6.7,2.6c-2.5,0-4.6-0.8-6.3-2.3
				C598.7,460.3,597.8,457.7,597.8,454.1z"/>
			<path id="XMLID_285_" class="st0" d="M652.1,454.1c0-3.3,0.8-5.9,2.3-7.6c1.5-1.7,3.7-2.6,6.5-2.6c2.9,0,5.1,0.9,6.7,2.6
				c1.6,1.7,2.4,4.2,2.4,7.6c0,3.2-0.8,5.7-2.5,7.5c-1.6,1.7-3.9,2.6-6.7,2.6c-2.5,0-4.6-0.8-6.3-2.3
				C652.9,460.3,652.1,457.7,652.1,454.1z"/>
			<path id="XMLID_287_" class="st0" d="M706.3,454.1c0-3.3,0.8-5.9,2.3-7.6c1.5-1.7,3.7-2.6,6.5-2.6c2.9,0,5.1,0.9,6.7,2.6
				c1.6,1.7,2.4,4.2,2.4,7.6c0,3.2-0.8,5.7-2.5,7.5c-1.6,1.7-3.9,2.6-6.7,2.6c-2.5,0-4.6-0.8-6.3-2.3
				C707.1,460.3,706.3,457.7,706.3,454.1z"/>
			<path id="XMLID_289_" class="st0" d="M760.5,454.1c0-3.3,0.8-5.9,2.3-7.6c1.5-1.7,3.7-2.6,6.5-2.6c2.9,0,5.1,0.9,6.7,2.6
				c1.6,1.7,2.4,4.2,2.4,7.6c0,3.2-0.8,5.7-2.5,7.5c-1.6,1.7-3.9,2.6-6.7,2.6c-2.5,0-4.6-0.8-6.3-2.3
				C761.4,460.3,760.5,457.7,760.5,454.1z"/>
			<path id="XMLID_291_" class="st0" d="M814.8,454.1c0-3.3,0.8-5.9,2.3-7.6c1.5-1.7,3.7-2.6,6.5-2.6c2.9,0,5.1,0.9,6.7,2.6
				c1.6,1.7,2.4,4.2,2.4,7.6c0,3.2-0.8,5.7-2.5,7.5c-1.6,1.7-3.9,2.6-6.7,2.6c-2.5,0-4.6-0.8-6.3-2.3
				C815.6,460.3,814.8,457.7,814.8,454.1z"/>
			<path id="XMLID_293_" class="st0" d="M869,454.1c0-3.3,0.8-5.9,2.3-7.6c1.5-1.7,3.7-2.6,6.5-2.6c2.9,0,5.1,0.9,6.7,2.6
				c1.6,1.7,2.4,4.2,2.4,7.6c0,3.2-0.8,5.7-2.5,7.5c-1.6,1.7-3.9,2.6-6.7,2.6c-2.5,0-4.6-0.8-6.3-2.3
				C869.8,460.3,869,457.7,869,454.1z"/>
			<path id="XMLID_295_" class="st0" d="M923.2,454.1c0-3.3,0.8-5.9,2.3-7.6c1.5-1.7,3.7-2.6,6.5-2.6c2.9,0,5.1,0.9,6.7,2.6
				c1.6,1.7,2.4,4.2,2.4,7.6c0,3.2-0.8,5.7-2.5,7.5c-1.6,1.7-3.9,2.6-6.7,2.6c-2.5,0-4.6-0.8-6.3-2.3
				C924.1,460.3,923.2,457.7,923.2,454.1z"/>
			<path id="XMLID_297_" class="st0" d="M977.5,454.1c0-3.3,0.8-5.9,2.3-7.6c1.5-1.7,3.7-2.6,6.5-2.6c2.9,0,5.1,0.9,6.7,2.6
				c1.6,1.7,2.4,4.2,2.4,7.6c0,3.2-0.8,5.7-2.5,7.5c-1.6,1.7-3.9,2.6-6.7,2.6c-2.5,0-4.6-0.8-6.3-2.3
				C978.3,460.3,977.5,457.7,977.5,454.1z"/>
			<path id="XMLID_299_" class="st0" d="M1031.7,454.1c0-3.3,0.8-5.9,2.3-7.6c1.5-1.7,3.7-2.6,6.5-2.6c2.9,0,5.1,0.9,6.7,2.6
				c1.6,1.7,2.4,4.2,2.4,7.6c0,3.2-0.8,5.7-2.5,7.5c-1.6,1.7-3.9,2.6-6.7,2.6c-2.5,0-4.6-0.8-6.3-2.3
				C1032.5,460.3,1031.7,457.7,1031.7,454.1z"/>
			<path id="XMLID_301_" class="st0" d="M1085.9,454.1c0-3.3,0.8-5.9,2.3-7.6c1.5-1.7,3.7-2.6,6.5-2.6c2.9,0,5.1,0.9,6.7,2.6
				c1.6,1.7,2.4,4.2,2.4,7.6c0,3.2-0.8,5.7-2.5,7.5c-1.6,1.7-3.9,2.6-6.7,2.6c-2.5,0-4.6-0.8-6.3-2.3
				C1086.7,460.3,1085.9,457.7,1085.9,454.1z"/>
			<path id="XMLID_303_" class="st0" d="M1140.1,454.1c0-3.3,0.8-5.9,2.3-7.6c1.5-1.7,3.7-2.6,6.5-2.6c2.9,0,5.1,0.9,6.7,2.6
				c1.6,1.7,2.4,4.2,2.4,7.6c0,3.2-0.8,5.7-2.5,7.5c-1.6,1.7-3.9,2.6-6.7,2.6c-2.5,0-4.6-0.8-6.3-2.3
				C1141,460.3,1140.1,457.7,1140.1,454.1z"/>
			<path id="XMLID_305_" class="st0" d="M1194.4,454.1c0-3.3,0.8-5.9,2.3-7.6c1.5-1.7,3.7-2.6,6.5-2.6c2.9,0,5.1,0.9,6.7,2.6
				c1.6,1.7,2.4,4.2,2.4,7.6c0,3.2-0.8,5.7-2.5,7.5c-1.6,1.7-3.9,2.6-6.7,2.6c-2.5,0-4.6-0.8-6.3-2.3
				C1195.2,460.3,1194.4,457.7,1194.4,454.1z"/>
			<path id="XMLID_307_" class="st0" d="M1248.6,454.1c0-3.3,0.8-5.9,2.3-7.6c1.5-1.7,3.7-2.6,6.5-2.6c2.9,0,5.1,0.9,6.7,2.6
				c1.6,1.7,2.4,4.2,2.4,7.6c0,3.2-0.8,5.7-2.5,7.5c-1.6,1.7-3.9,2.6-6.7,2.6c-2.5,0-4.6-0.8-6.3-2.3
				C1249.4,460.3,1248.6,457.7,1248.6,454.1z"/>
			<path id="XMLID_309_" class="st0" d="M1302.8,454.1c0-3.3,0.8-5.9,2.3-7.6c1.5-1.7,3.7-2.6,6.5-2.6c2.9,0,5.1,0.9,6.7,2.6
				c1.6,1.7,2.4,4.2,2.4,7.6c0,3.2-0.8,5.7-2.5,7.5c-1.6,1.7-3.9,2.6-6.7,2.6c-2.5,0-4.6-0.8-6.3-2.3
				C1303.7,460.3,1302.8,457.7,1302.8,454.1z"/>
			<path id="XMLID_311_" class="st0" d="M1357.1,454.1c0-3.3,0.8-5.9,2.3-7.6c1.5-1.7,3.7-2.6,6.5-2.6c2.9,0,5.1,0.9,6.7,2.6
				c1.6,1.7,2.4,4.2,2.4,7.6c0,3.2-0.8,5.7-2.5,7.5c-1.6,1.7-3.9,2.6-6.7,2.6c-2.5,0-4.6-0.8-6.3-2.3
				C1357.9,460.3,1357.1,457.7,1357.1,454.1z"/>
			<path id="XMLID_313_" class="st0" d="M1411.3,454.1c0-3.3,0.8-5.9,2.3-7.6c1.5-1.7,3.7-2.6,6.5-2.6c2.9,0,5.1,0.9,6.7,2.6
				c1.6,1.7,2.4,4.2,2.4,7.6c0,3.2-0.8,5.7-2.5,7.5c-1.6,1.7-3.9,2.6-6.7,2.6c-2.5,0-4.6-0.8-6.3-2.3
				C1412.1,460.3,1411.3,457.7,1411.3,454.1z"/>
			<path id="XMLID_315_" class="st0" d="M1465.5,454.1c0-3.3,0.8-5.9,2.3-7.6c1.5-1.7,3.7-2.6,6.5-2.6c2.9,0,5.1,0.9,6.7,2.6
				c1.6,1.7,2.4,4.2,2.4,7.6c0,3.2-0.8,5.7-2.5,7.5c-1.6,1.7-3.9,2.6-6.7,2.6c-2.5,0-4.6-0.8-6.3-2.3
				C1466.3,460.3,1465.5,457.7,1465.5,454.1z"/>
			<path id="XMLID_319_" class="st0" d="M1519.7,454.1c0-3.3,0.8-5.9,2.3-7.6c1.5-1.7,3.7-2.6,6.5-2.6c2.9,0,5.1,0.9,6.7,2.6
				c1.6,1.7,2.4,4.2,2.4,7.6c0,3.2-0.8,5.7-2.5,7.5c-1.6,1.7-3.9,2.6-6.7,2.6c-2.5,0-4.6-0.8-6.3-2.3
				C1520.6,460.3,1519.7,457.7,1519.7,454.1z"/>
			<path id="XMLID_321_" class="st0" d="M1574,454.1c0-3.3,0.8-5.9,2.3-7.6c1.5-1.7,3.7-2.6,6.5-2.6c2.9,0,5.1,0.9,6.7,2.6
				c1.6,1.7,2.4,4.2,2.4,7.6c0,3.2-0.8,5.7-2.5,7.5c-1.6,1.7-3.9,2.6-6.7,2.6c-2.5,0-4.6-0.8-6.3-2.3
				C1574.8,460.3,1574,457.7,1574,454.1z"/>
			<path id="XMLID_323_" class="st0" d="M1628.2,454.1c0-3.3,0.8-5.9,2.3-7.6c1.5-1.7,3.7-2.6,6.5-2.6c2.9,0,5.1,0.9,6.7,2.6
				c1.6,1.7,2.4,4.2,2.4,7.6c0,3.2-0.8,5.7-2.5,7.5c-1.6,1.7-3.9,2.6-6.7,2.6c-2.5,0-4.6-0.8-6.3-2.3
				C1629,460.3,1628.2,457.7,1628.2,454.1z"/>
		</g>
		<g id="XMLID_6_">
			<path id="XMLID_7_" class="st0" d="M272.5,148.7c0-3.3,0.8-5.9,2.3-7.6c1.5-1.7,3.7-2.6,6.5-2.6c2.9,0,5.1,0.9,6.7,2.6
				c1.6,1.7,2.4,4.2,2.4,7.6c0,3.2-0.8,5.7-2.5,7.5c-1.6,1.7-3.9,2.6-6.7,2.6c-2.5,0-4.6-0.8-6.3-2.3
				C273.3,154.8,272.5,152.3,272.5,148.7z"/>
			<path id="XMLID_10_" class="st0" d="M326.7,148.7c0-3.3,0.8-5.9,2.3-7.6c1.5-1.7,3.7-2.6,6.5-2.6c2.9,0,5.1,0.9,6.7,2.6
				c1.6,1.7,2.4,4.2,2.4,7.6c0,3.2-0.8,5.7-2.5,7.5c-1.6,1.7-3.9,2.6-6.7,2.6c-2.5,0-4.6-0.8-6.3-2.3
				C327.5,154.8,326.7,152.3,326.7,148.7z"/>
			<path id="XMLID_31_" class="st0" d="M380.9,148.7c0-3.3,0.8-5.9,2.3-7.6c1.5-1.7,3.7-2.6,6.5-2.6c2.9,0,5.1,0.9,6.7,2.6
				c1.6,1.7,2.4,4.2,2.4,7.6c0,3.2-0.8,5.7-2.5,7.5c-1.6,1.7-3.9,2.6-6.7,2.6c-2.5,0-4.6-0.8-6.3-2.3
				C381.8,154.8,380.9,152.3,380.9,148.7z"/>
			<path id="XMLID_33_" class="st0" d="M435.2,148.7c0-3.3,0.8-5.9,2.3-7.6c1.5-1.7,3.7-2.6,6.5-2.6c2.9,0,5.1,0.9,6.7,2.6
				c1.6,1.7,2.4,4.2,2.4,7.6c0,3.2-0.8,5.7-2.5,7.5c-1.6,1.7-3.9,2.6-6.7,2.6c-2.5,0-4.6-0.8-6.3-2.3
				C436,154.8,435.2,152.3,435.2,148.7z"/>
			<path id="XMLID_35_" class="st0" d="M489.4,148.7c0-3.3,0.8-5.9,2.3-7.6c1.5-1.7,3.7-2.6,6.5-2.6c2.9,0,5.1,0.9,6.7,2.6
				c1.6,1.7,2.4,4.2,2.4,7.6c0,3.2-0.8,5.7-2.5,7.5c-1.6,1.7-3.9,2.6-6.7,2.6c-2.5,0-4.6-0.8-6.3-2.3
				C490.2,154.8,489.4,152.3,489.4,148.7z"/>
			<path id="XMLID_37_" class="st0" d="M543.6,148.7c0-3.3,0.8-5.9,2.3-7.6c1.5-1.7,3.7-2.6,6.5-2.6c2.9,0,5.1,0.9,6.7,2.6
				c1.6,1.7,2.4,4.2,2.4,7.6c0,3.2-0.8,5.7-2.5,7.5c-1.6,1.7-3.9,2.6-6.7,2.6c-2.5,0-4.6-0.8-6.3-2.3
				C544.5,154.8,543.6,152.3,543.6,148.7z"/>
			<path id="XMLID_39_" class="st0" d="M597.8,148.7c0-3.3,0.8-5.9,2.3-7.6c1.5-1.7,3.7-2.6,6.5-2.6c2.9,0,5.1,0.9,6.7,2.6
				c1.6,1.7,2.4,4.2,2.4,7.6c0,3.2-0.8,5.7-2.5,7.5c-1.6,1.7-3.9,2.6-6.7,2.6c-2.5,0-4.6-0.8-6.3-2.3
				C598.7,154.8,597.8,152.3,597.8,148.7z"/>
			<path id="XMLID_41_" class="st0" d="M652.1,148.7c0-3.3,0.8-5.9,2.3-7.6c1.5-1.7,3.7-2.6,6.5-2.6c2.9,0,5.1,0.9,6.7,2.6
				c1.6,1.7,2.4,4.2,2.4,7.6c0,3.2-0.8,5.7-2.5,7.5c-1.6,1.7-3.9,2.6-6.7,2.6c-2.5,0-4.6-0.8-6.3-2.3
				C652.9,154.8,652.1,152.3,652.1,148.7z"/>
			<path id="XMLID_48_" class="st0" d="M706.3,148.7c0-3.3,0.8-5.9,2.3-7.6c1.5-1.7,3.7-2.6,6.5-2.6c2.9,0,5.1,0.9,6.7,2.6
				c1.6,1.7,2.4,4.2,2.4,7.6c0,3.2-0.8,5.7-2.5,7.5c-1.6,1.7-3.9,2.6-6.7,2.6c-2.5,0-4.6-0.8-6.3-2.3
				C707.1,154.8,706.3,152.3,706.3,148.7z"/>
			<path id="XMLID_50_" class="st0" d="M760.5,148.7c0-3.3,0.8-5.9,2.3-7.6c1.5-1.7,3.7-2.6,6.5-2.6c2.9,0,5.1,0.9,6.7,2.6
				c1.6,1.7,2.4,4.2,2.4,7.6c0,3.2-0.8,5.7-2.5,7.5c-1.6,1.7-3.9,2.6-6.7,2.6c-2.5,0-4.6-0.8-6.3-2.3
				C761.4,154.8,760.5,152.3,760.5,148.7z"/>
			<path id="XMLID_52_" class="st0" d="M814.8,148.7c0-3.3,0.8-5.9,2.3-7.6c1.5-1.7,3.7-2.6,6.5-2.6c2.9,0,5.1,0.9,6.7,2.6
				c1.6,1.7,2.4,4.2,2.4,7.6c0,3.2-0.8,5.7-2.5,7.5c-1.6,1.7-3.9,2.6-6.7,2.6c-2.5,0-4.6-0.8-6.3-2.3
				C815.6,154.8,814.8,152.3,814.8,148.7z"/>
			<path id="XMLID_60_" class="st0" d="M869,148.7c0-3.3,0.8-5.9,2.3-7.6c1.5-1.7,3.7-2.6,6.5-2.6c2.9,0,5.1,0.9,6.7,2.6
				c1.6,1.7,2.4,4.2,2.4,7.6c0,3.2-0.8,5.7-2.5,7.5c-1.6,1.7-3.9,2.6-6.7,2.6c-2.5,0-4.6-0.8-6.3-2.3
				C869.8,154.8,869,152.3,869,148.7z"/>
			<path id="XMLID_62_" class="st0" d="M923.2,148.7c0-3.3,0.8-5.9,2.3-7.6c1.5-1.7,3.7-2.6,6.5-2.6c2.9,0,5.1,0.9,6.7,2.6
				c1.6,1.7,2.4,4.2,2.4,7.6c0,3.2-0.8,5.7-2.5,7.5c-1.6,1.7-3.9,2.6-6.7,2.6c-2.5,0-4.6-0.8-6.3-2.3
				C924.1,154.8,923.2,152.3,923.2,148.7z"/>
			<path id="XMLID_64_" class="st0" d="M977.5,148.7c0-3.3,0.8-5.9,2.3-7.6c1.5-1.7,3.7-2.6,6.5-2.6c2.9,0,5.1,0.9,6.7,2.6
				c1.6,1.7,2.4,4.2,2.4,7.6c0,3.2-0.8,5.7-2.5,7.5c-1.6,1.7-3.9,2.6-6.7,2.6c-2.5,0-4.6-0.8-6.3-2.3
				C978.3,154.8,977.5,152.3,977.5,148.7z"/>
			<path id="XMLID_66_" class="st0" d="M1031.7,148.7c0-3.3,0.8-5.9,2.3-7.6c1.5-1.7,3.7-2.6,6.5-2.6c2.9,0,5.1,0.9,6.7,2.6
				c1.6,1.7,2.4,4.2,2.4,7.6c0,3.2-0.8,5.7-2.5,7.5c-1.6,1.7-3.9,2.6-6.7,2.6c-2.5,0-4.6-0.8-6.3-2.3
				C1032.5,154.8,1031.7,152.3,1031.7,148.7z"/>
			<path id="XMLID_68_" class="st0" d="M1085.9,148.7c0-3.3,0.8-5.9,2.3-7.6c1.5-1.7,3.7-2.6,6.5-2.6c2.9,0,5.1,0.9,6.7,2.6
				c1.6,1.7,2.4,4.2,2.4,7.6c0,3.2-0.8,5.7-2.5,7.5c-1.6,1.7-3.9,2.6-6.7,2.6c-2.5,0-4.6-0.8-6.3-2.3
				C1086.7,154.8,1085.9,152.3,1085.9,148.7z"/>
			<path id="XMLID_70_" class="st0" d="M1140.1,148.7c0-3.3,0.8-5.9,2.3-7.6c1.5-1.7,3.7-2.6,6.5-2.6c2.9,0,5.1,0.9,6.7,2.6
				c1.6,1.7,2.4,4.2,2.4,7.6c0,3.2-0.8,5.7-2.5,7.5c-1.6,1.7-3.9,2.6-6.7,2.6c-2.5,0-4.6-0.8-6.3-2.3
				C1141,154.8,1140.1,152.3,1140.1,148.7z"/>
			<path id="XMLID_72_" class="st0" d="M1194.4,148.7c0-3.3,0.8-5.9,2.3-7.6c1.5-1.7,3.7-2.6,6.5-2.6c2.9,0,5.1,0.9,6.7,2.6
				c1.6,1.7,2.4,4.2,2.4,7.6c0,3.2-0.8,5.7-2.5,7.5c-1.6,1.7-3.9,2.6-6.7,2.6c-2.5,0-4.6-0.8-6.3-2.3
				C1195.2,154.8,1194.4,152.3,1194.4,148.7z"/>
			<path id="XMLID_75_" class="st0" d="M1248.6,148.7c0-3.3,0.8-5.9,2.3-7.6c1.5-1.7,3.7-2.6,6.5-2.6c2.9,0,5.1,0.9,6.7,2.6
				c1.6,1.7,2.4,4.2,2.4,7.6c0,3.2-0.8,5.7-2.5,7.5c-1.6,1.7-3.9,2.6-6.7,2.6c-2.5,0-4.6-0.8-6.3-2.3
				C1249.4,154.8,1248.6,152.3,1248.6,148.7z"/>
			<path id="XMLID_77_" class="st0" d="M1302.8,148.7c0-3.3,0.8-5.9,2.3-7.6c1.5-1.7,3.7-2.6,6.5-2.6c2.9,0,5.1,0.9,6.7,2.6
				c1.6,1.7,2.4,4.2,2.4,7.6c0,3.2-0.8,5.7-2.5,7.5c-1.6,1.7-3.9,2.6-6.7,2.6c-2.5,0-4.6-0.8-6.3-2.3
				C1303.7,154.8,1302.8,152.3,1302.8,148.7z"/>
			<path id="XMLID_79_" class="st0" d="M1357.1,148.7c0-3.3,0.8-5.9,2.3-7.6c1.5-1.7,3.7-2.6,6.5-2.6c2.9,0,5.1,0.9,6.7,2.6
				c1.6,1.7,2.4,4.2,2.4,7.6c0,3.2-0.8,5.7-2.5,7.5c-1.6,1.7-3.9,2.6-6.7,2.6c-2.5,0-4.6-0.8-6.3-2.3
				C1357.9,154.8,1357.1,152.3,1357.1,148.7z"/>
			<path id="XMLID_87_" class="st0" d="M1411.3,148.7c0-3.3,0.8-5.9,2.3-7.6c1.5-1.7,3.7-2.6,6.5-2.6c2.9,0,5.1,0.9,6.7,2.6
				c1.6,1.7,2.4,4.2,2.4,7.6c0,3.2-0.8,5.7-2.5,7.5c-1.6,1.7-3.9,2.6-6.7,2.6c-2.5,0-4.6-0.8-6.3-2.3
				C1412.1,154.8,1411.3,152.3,1411.3,148.7z"/>
			<path id="XMLID_231_" class="st0" d="M1465.5,148.7c0-3.3,0.8-5.9,2.3-7.6c1.5-1.7,3.7-2.6,6.5-2.6c2.9,0,5.1,0.9,6.7,2.6
				c1.6,1.7,2.4,4.2,2.4,7.6c0,3.2-0.8,5.7-2.5,7.5c-1.6,1.7-3.9,2.6-6.7,2.6c-2.5,0-4.6-0.8-6.3-2.3
				C1466.3,154.8,1465.5,152.3,1465.5,148.7z"/>
			<path id="XMLID_239_" class="st0" d="M1519.7,148.7c0-3.3,0.8-5.9,2.3-7.6c1.5-1.7,3.7-2.6,6.5-2.6c2.9,0,5.1,0.9,6.7,2.6
				c1.6,1.7,2.4,4.2,2.4,7.6c0,3.2-0.8,5.7-2.5,7.5c-1.6,1.7-3.9,2.6-6.7,2.6c-2.5,0-4.6-0.8-6.3-2.3
				C1520.6,154.8,1519.7,152.3,1519.7,148.7z"/>
			<path id="XMLID_241_" class="st0" d="M1574,148.7c0-3.3,0.8-5.9,2.3-7.6c1.5-1.7,3.7-2.6,6.5-2.6c2.9,0,5.1,0.9,6.7,2.6
				c1.6,1.7,2.4,4.2,2.4,7.6c0,3.2-0.8,5.7-2.5,7.5c-1.6,1.7-3.9,2.6-6.7,2.6c-2.5,0-4.6-0.8-6.3-2.3
				C1574.8,154.8,1574,152.3,1574,148.7z"/>
			<path id="XMLID_243_" class="st0" d="M1628.2,148.7c0-3.3,0.8-5.9,2.3-7.6c1.5-1.7,3.7-2.6,6.5-2.6c2.9,0,5.1,0.9,6.7,2.6
				c1.6,1.7,2.4,4.2,2.4,7.6c0,3.2-0.8,5.7-2.5,7.5c-1.6,1.7-3.9,2.6-6.7,2.6c-2.5,0-4.6-0.8-6.3-2.3
				C1629,154.8,1628.2,152.3,1628.2,148.7z"/>
		</g>
	</g>
</g>
</svg>
