<?xml version="1.0" encoding="utf-8"?>
<!-- Generator: Adobe Illustrator 19.0.0, SVG Export Plug-In . SVG Version: 6.00 Build 0)  -->
<svg version="1.1" id="Camada_1" xmlns="http://www.w3.org/2000/svg" xmlns:xlink="http://www.w3.org/1999/xlink" x="0px" y="0px"
	 viewBox="0 0 1920 721" style="enable-background:new 0 0 1920 721;" xml:space="preserve">
<style type="text/css">
	.st0{fill:#FFFFFF;}
</style>
<g id="XMLID_22_">
	<g id="XMLID_3_">
		<g id="XMLID_395_">
			<path id="XMLID_396_" class="st0" d="M69.3,214.5h-33v-31.2h96.9v31.2h-32.8v174.6h-31V214.5z"/>
			<path id="XMLID_398_" class="st0" d="M211.8,391.4c-13.7,0-25.3-4.8-34.8-14.3c-9.5-9.5-14.3-21.1-14.3-34.7V183.3H193v158.8
				c0,4.9,1.8,9.1,5.3,12.6c3.5,3.4,7.7,5.2,12.6,5.2c4.9,0,9.1-1.7,12.6-5.2c3.4-3.4,5.2-7.6,5.2-12.6V183.3H261v159.1
				c0,13.8-4.8,25.4-14.5,34.8C236.9,386.7,225.3,391.4,211.8,391.4z"/>
			<path id="XMLID_400_" class="st0" d="M390.8,339.8c0,13.6-4.8,25.2-14.3,34.8c-9.5,9.6-21,14.5-34.5,14.5h-48.8v-206H342
				c13.6,0,25.1,4.8,34.6,14.5c9.5,9.6,14.2,21.2,14.2,34.7V339.8z M324.3,358.4H343c4.9,0,9.1-1.8,12.5-5.3
				c3.4-3.6,5.1-7.7,5.1-12.6V232.7c0-4.9-1.7-9.1-5.2-12.6c-3.4-3.5-7.6-5.3-12.4-5.3h-18.7V358.4z"/>
			<path id="XMLID_403_" class="st0" d="M453.7,389.1h-31V183.3h31V389.1z"/>
			<path id="XMLID_405_" class="st0" d="M486.1,389.1v-206h46.5c12.3,0,23.3,3.2,33.2,9.7c8.4,5.5,14.5,14,18.1,25.5
				c2,6.1,3,13.4,3,21.8c0,13.8-3.7,24.9-11,33.2c-3.1,3.5-6.7,6.2-10.8,8c6.9,2.6,12.8,7.8,17.6,15.6c3.2,5.3,5.5,12,7.1,20.4
				c0.8,4.3,1.1,9,1.1,14.3c0,13-2.5,24.1-7.4,33.2c-3.8,7.1-9.3,12.8-16.3,17.1c-7.9,4.8-15.7,7.2-23.5,7.2H486.1z M519.6,267.2h13
				c9.6,0,16.1-4.7,19.4-14.1c1.2-3.5,1.8-7.8,1.8-13c0-8.5-2.1-15-6.2-19.4c-3.8-4-8.8-6.1-14.9-6.1h-13V267.2z M519.6,358.4h13
				c10.5,0,17.8-5.4,21.8-16.3c1.4-3.7,2.1-8,2.1-12.8c0-11.5-2.2-19.9-6.6-25.1c-3.9-4.8-9.7-7.2-17.4-7.2h-13V358.4z"/>
			<path id="XMLID_409_" class="st0" d="M670.9,180.7c13.7,0,25.3,4.8,34.9,14.5c9.6,9.6,14.4,21.2,14.4,34.8v112.3
				c0,13.7-4.8,25.3-14.5,34.9c-9.6,9.6-21.2,14.4-34.8,14.4c-13.7,0-25.3-4.8-34.8-14.5c-9.5-9.6-14.3-21.2-14.3-34.8V230
				c0-13.7,4.8-25.3,14.5-34.9C645.9,185.5,657.4,180.7,670.9,180.7z M687.8,229.3c0-4.9-1.7-9.1-5.2-12.6
				c-3.4-3.4-7.6-5.2-12.6-5.2c-4.9,0-9.1,1.7-12.6,5.2c-3.5,3.4-5.3,7.6-5.3,12.6V342c0,4.9,1.8,9.1,5.3,12.6
				c3.5,3.4,7.7,5.2,12.6,5.2c4.9,0,9.1-1.7,12.6-5.2c3.4-3.4,5.2-7.6,5.2-12.6V229.3z"/>
			<path id="XMLID_412_" class="st0" d="M783.1,389.1h-31v-206h44.5l28.9,147.9l27.8-147.9h42.8v206h-31V259.7l-26.9,129.4h-25
				L783.1,260V389.1z"/>
			<path id="XMLID_414_" class="st0" d="M1071.6,339.8c0,13.6-4.8,25.2-14.3,34.8c-9.5,9.6-21,14.5-34.5,14.5H974v-206h48.8
				c13.6,0,25.1,4.8,34.6,14.5c9.5,9.6,14.2,21.2,14.2,34.7V339.8z M1005,358.4h18.7c4.9,0,9.1-1.8,12.5-5.3
				c3.4-3.6,5.1-7.7,5.1-12.6V232.7c0-4.9-1.7-9.1-5.2-12.6c-3.4-3.5-7.6-5.3-12.4-5.3H1005V358.4z"/>
			<path id="XMLID_417_" class="st0" d="M1103.4,389.1v-206h88.4v31.2h-57.3v56.2h41.9v31.2h-41.9v56.2h57.3v31.2H1103.4z"/>
			<path id="XMLID_419_" class="st0" d="M1302.4,389.1h-84.6V183.3h31v174.9h53.5V389.1z"/>
			<path id="XMLID_421_" class="st0" d="M1359.4,389.1h-31V183.3h31V389.1z"/>
			<path id="XMLID_423_" class="st0" d="M1426.7,389.1l-36.8-205.8h32.5l25.8,160.4l26-160.4h32.6l-37.4,205.8H1426.7z"/>
			<path id="XMLID_425_" class="st0" d="M1537.4,389.1v-206h88.4v31.2h-57.3v56.2h41.9v31.2h-41.9v56.2h57.3v31.2H1537.4z"/>
			<path id="XMLID_427_" class="st0" d="M1700.7,183.3c17.3,0,30,4.8,38.1,14.3c7.1,8.3,10.7,19.9,10.7,34.8v29.9
				c0,14.6-5.5,26.9-16.6,37l23,89.8h-33.6l-18.8-77.5c-0.9,0-1.8,0-2.8,0h-17.9v77.5h-31V183.3H1700.7z M1719.3,232.9
				c0-11.9-5.9-17.9-17.7-17.9h-18.7v65.9h18.7c4.9,0,9.1-1.8,12.6-5.3c3.4-3.5,5.2-7.7,5.2-12.6V232.9z"/>
			<path id="XMLID_430_" class="st0" d="M1809.6,302.9l-41.6-119.7h34.2l23,73.9l22.8-73.9h34.3l-41.7,119.7v86.2h-31V302.9z"/>
		</g>
		<g id="XMLID_325_">
			<path id="XMLID_326_" class="st0" d="M290.6,605.5h-12.8v-35H242v35h-12.7v-77.7H242v31.8h35.8v-31.8h12.8V605.5z"/>
			<path id="XMLID_328_" class="st0" d="M359.3,605.5l-7.8-21.6h-29.7l-7.6,21.6h-13.4l29.1-78h13.8l29.1,78H359.3z M348.2,573
				l-7.3-21.1c-0.5-1.4-1.3-3.6-2.2-6.7c-0.9-3-1.6-5.3-1.9-6.7c-1,4.4-2.4,9.1-4.2,14.3l-7,20.2H348.2z"/>
			<path id="XMLID_331_" class="st0" d="M416.6,605.5l-22.5-64.9h-0.4c0.6,9.6,0.9,18.7,0.9,27.1v37.8H383v-77.7h17.9l21.6,61.8h0.3
				l22.2-61.8h18v77.7h-12.2v-38.4c0-3.9,0.1-8.9,0.3-15.1c0.2-6.2,0.4-10,0.5-11.3h-0.4l-23.3,64.8H416.6z"/>
			<path id="XMLID_333_" class="st0" d="M483.4,527.8h23.1c10.7,0,18.4,1.6,23.2,4.7c4.8,3.1,7.1,8,7.1,14.8c0,4.5-1.2,8.3-3.5,11.3
				c-2.3,3-5.7,4.9-10.1,5.7v0.5c5.5,1,9.5,3.1,12,6.1c2.6,3,3.9,7.1,3.9,12.3c0,7-2.4,12.4-7.3,16.4c-4.9,4-11.6,5.9-20.3,5.9
				h-28.1V527.8z M496.1,559.9h12.2c5.3,0,9.2-0.8,11.6-2.5c2.4-1.7,3.7-4.5,3.7-8.6c0-3.6-1.3-6.3-4-7.9c-2.6-1.6-6.8-2.4-12.6-2.4
				h-11V559.9z M496.1,570.2v24.6h13.5c5.3,0,9.3-1,12-3.1c2.7-2,4.1-5.3,4.1-9.6c0-4-1.4-7-4.1-9c-2.8-1.9-7-2.9-12.6-2.9H496.1z"
				/>
			<path id="XMLID_337_" class="st0" d="M616.2,527.8v50.3c0,5.7-1.2,10.8-3.7,15.1c-2.5,4.3-6,7.6-10.7,9.9
				c-4.7,2.3-10.2,3.5-16.7,3.5c-9.6,0-17.1-2.6-22.5-7.7c-5.3-5.1-8-12.1-8-21v-50.1h12.8V577c0,6.4,1.5,11.1,4.5,14.2
				c3,3,7.5,4.6,13.7,4.6c12,0,18-6.3,18-18.9v-49H616.2z"/>
			<path id="XMLID_339_" class="st0" d="M648.7,574.5v31H636v-77.7H658c10,0,17.4,1.9,22.3,5.6c4.8,3.8,7.2,9.4,7.2,17
				c0,9.7-5,16.6-15.1,20.7l21.9,34.4h-14.5l-18.6-31H648.7z M648.7,564h8.8c5.9,0,10.2-1.1,12.9-3.3c2.7-2.2,4-5.5,4-9.8
				c0-4.4-1.4-7.5-4.3-9.5c-2.9-1.9-7.2-2.9-13-2.9h-8.4V564z"/>
			<path id="XMLID_342_" class="st0" d="M737.4,563.4h28.6v39c-4.7,1.5-9.2,2.6-13.5,3.2s-9,1-13.9,1c-11.8,0-20.8-3.5-27.2-10.4
				c-6.4-7-9.6-16.8-9.6-29.5c0-12.5,3.6-22.3,10.8-29.4c7.2-7.1,17.1-10.6,29.7-10.6c8.1,0,15.8,1.6,23.1,4.7l-4.5,10.6
				c-6.3-2.9-12.6-4.4-18.9-4.4c-8.3,0-14.8,2.6-19.7,7.8c-4.8,5.2-7.2,12.3-7.2,21.4c0,9.5,2.2,16.7,6.5,21.7
				c4.3,4.9,10.6,7.4,18.7,7.4c4.1,0,8.5-0.5,13.2-1.5v-20h-16.1V563.4z"/>
			<path id="XMLID_344_" class="st0" d="M845.5,527.8v50.3c0,5.7-1.2,10.8-3.7,15.1c-2.5,4.3-6,7.6-10.7,9.9
				c-4.7,2.3-10.2,3.5-16.7,3.5c-9.6,0-17.1-2.6-22.5-7.7c-5.3-5.1-8-12.1-8-21v-50.1h12.8V577c0,6.4,1.5,11.1,4.5,14.2
				c3,3,7.5,4.6,13.7,4.6c12,0,18-6.3,18-18.9v-49H845.5z"/>
			<path id="XMLID_346_" class="st0" d="M909.3,605.5h-43.9v-77.7h43.9v10.7h-31.2v21.1h29.3v10.6h-29.3v24.4h31.2V605.5z"/>
			<path id="XMLID_348_" class="st0" d="M938.8,574.5v31h-12.7v-77.7H948c10,0,17.4,1.9,22.3,5.6c4.8,3.8,7.2,9.4,7.2,17
				c0,9.7-5,16.6-15.1,20.7l21.9,34.4h-14.5l-18.6-31H938.8z M938.8,564h8.8c5.9,0,10.2-1.1,12.9-3.3c2.7-2.2,4-5.5,4-9.8
				c0-4.4-1.4-7.5-4.3-9.5c-2.9-1.9-7.2-2.9-13-2.9h-8.4V564z"/>
			<path id="XMLID_351_" class="st0" d="M995.7,605.5v-77.7h12.7v77.7H995.7z"/>
			<path id="XMLID_353_" class="st0" d="M1077.1,605.5l-7.8-21.6h-29.7l-7.6,21.6h-13.4l29.1-78h13.8l29.1,78H1077.1z M1065.9,573
				l-7.3-21.1c-0.5-1.4-1.3-3.6-2.2-6.7c-0.9-3-1.6-5.3-1.9-6.7c-1,4.4-2.4,9.1-4.2,14.3l-7,20.2H1065.9z"/>
			<path id="XMLID_356_" class="st0" d="M1123.9,585c0-4.6,1.1-8.7,3.4-12.1c2.3-3.5,6.4-6.9,12.3-10.3c-3.4-3.9-5.7-7.3-6.9-10
				c-1.2-2.7-1.8-5.5-1.8-8.4c0-5.4,1.9-9.6,5.8-12.8c3.8-3.1,9-4.7,15.5-4.7c6.3,0,11.2,1.5,14.8,4.5c3.6,3,5.4,7.1,5.4,12.2
				c0,4-1.2,7.7-3.6,11c-2.4,3.3-6.4,6.6-12,9.9l18.4,17.7c2.9-3.8,5.3-9.4,7.2-16.7h12.9c-2.5,10.1-6.4,18.3-11.9,24.6l16,15.5
				h-16.1l-7.9-7.7c-3.6,2.9-7.5,5.1-11.6,6.6c-4.1,1.5-8.6,2.2-13.6,2.2c-8.1,0-14.5-1.9-19.2-5.8
				C1126.2,596.9,1123.9,591.7,1123.9,585z M1150.7,595.9c6.5,0,12-1.9,16.6-5.7l-20.4-20c-3.8,2.4-6.3,4.7-7.8,6.8
				c-1.4,2.1-2.1,4.5-2.1,7.2c0,3.5,1.2,6.3,3.7,8.5C1143.3,594.8,1146.6,595.9,1150.7,595.9z M1142.8,544.6c0,2.2,0.6,4.3,1.8,6.3
				c1.2,2,2.8,4.1,5,6.3c4-2.3,6.8-4.4,8.4-6.4c1.6-2,2.4-4.2,2.4-6.6c0-2.3-0.8-4.1-2.3-5.5c-1.5-1.4-3.6-2.1-6.1-2.1
				c-2.8,0-5,0.7-6.7,2.2C1143.6,540.3,1142.8,542.2,1142.8,544.6z"/>
			<path id="XMLID_360_" class="st0" d="M1289.3,551.3c0,8.1-2.7,14.3-8,18.6c-5.3,4.3-12.9,6.5-22.7,6.5h-8.1v29.1h-12.7v-77.7
				h22.4c9.7,0,17,2,21.8,6C1286.9,537.8,1289.3,543.6,1289.3,551.3z M1250.6,565.8h6.7c6.5,0,11.3-1.1,14.3-3.4
				c3-2.3,4.6-5.8,4.6-10.6c0-4.5-1.4-7.8-4.1-10c-2.7-2.2-7-3.3-12.8-3.3h-8.8V565.8z"/>
			<path id="XMLID_363_" class="st0" d="M1304.8,605.5v-77.7h12.7v77.7H1304.8z"/>
			<path id="XMLID_379_" class="st0" d="M1386.9,605.5h-55.6v-8.8l39.2-58h-38.1v-10.9h53.5v8.9l-39.3,57.9h40.4V605.5z"/>
			<path id="XMLID_381_" class="st0" d="M1449.5,605.5h-55.6v-8.8l39.2-58H1395v-10.9h53.5v8.9l-39.3,57.9h40.4V605.5z"/>
			<path id="XMLID_383_" class="st0" d="M1511.4,605.5l-7.8-21.6H1474l-7.6,21.6H1453l29.1-78h13.8l29.1,78H1511.4z M1500.3,573
				l-7.3-21.1c-0.5-1.4-1.3-3.6-2.2-6.7c-0.9-3-1.6-5.3-1.9-6.7c-1,4.4-2.4,9.1-4.2,14.3l-7,20.2H1500.3z"/>
			<path id="XMLID_386_" class="st0" d="M1547.9,574.5v31h-12.7v-77.7h21.9c10,0,17.4,1.9,22.3,5.6c4.8,3.8,7.2,9.4,7.2,17
				c0,9.7-5,16.6-15.1,20.7l21.9,34.4H1579l-18.6-31H1547.9z M1547.9,564h8.8c5.9,0,10.2-1.1,12.9-3.3c2.7-2.2,4-5.5,4-9.8
				c0-4.4-1.4-7.5-4.3-9.5c-2.9-1.9-7.2-2.9-13-2.9h-8.4V564z"/>
			<path id="XMLID_389_" class="st0" d="M1604.7,605.5v-77.7h12.7v77.7H1604.7z"/>
			<path id="XMLID_391_" class="st0" d="M1686.1,605.5l-7.8-21.6h-29.7l-7.6,21.6h-13.4l29.1-78h13.8l29.1,78H1686.1z M1675,573
				l-7.3-21.1c-0.5-1.4-1.3-3.6-2.2-6.7c-0.9-3-1.6-5.3-1.9-6.7c-1,4.4-2.4,9.1-4.2,14.3l-7,20.2H1675z"/>
		</g>
		<g id="XMLID_270_">
			<path id="XMLID_271_" class="st0" d="M194.6,465.8c0-3.7,0.8-6.5,2.5-8.4c1.7-1.9,4.1-2.9,7.3-2.9c3.2,0,5.7,1,7.5,2.9
				c1.8,1.9,2.7,4.7,2.7,8.4c0,3.6-0.9,6.4-2.7,8.3c-1.8,1.9-4.3,2.9-7.5,2.9c-2.8,0-5.2-0.9-7-2.6
				C195.5,472.6,194.6,469.7,194.6,465.8z"/>
			<path id="XMLID_273_" class="st0" d="M255,465.8c0-3.7,0.8-6.5,2.5-8.4c1.7-1.9,4.1-2.9,7.3-2.9c3.2,0,5.7,1,7.5,2.9
				c1.8,1.9,2.7,4.7,2.7,8.4c0,3.6-0.9,6.4-2.7,8.3c-1.8,1.9-4.3,2.9-7.5,2.9c-2.8,0-5.2-0.9-7-2.6C255.9,472.6,255,469.7,255,465.8
				z"/>
			<path id="XMLID_275_" class="st0" d="M315.4,465.8c0-3.7,0.8-6.5,2.5-8.4c1.7-1.9,4.1-2.9,7.3-2.9c3.2,0,5.7,1,7.5,2.9
				c1.8,1.9,2.7,4.7,2.7,8.4c0,3.6-0.9,6.4-2.7,8.3c-1.8,1.9-4.3,2.9-7.5,2.9c-2.8,0-5.2-0.9-7-2.6
				C316.3,472.6,315.4,469.7,315.4,465.8z"/>
			<path id="XMLID_277_" class="st0" d="M375.7,465.8c0-3.7,0.8-6.5,2.5-8.4c1.7-1.9,4.1-2.9,7.3-2.9c3.2,0,5.7,1,7.5,2.9
				c1.8,1.9,2.7,4.7,2.7,8.4c0,3.6-0.9,6.4-2.7,8.3c-1.8,1.9-4.3,2.9-7.5,2.9c-2.8,0-5.2-0.9-7-2.6
				C376.7,472.6,375.7,469.7,375.7,465.8z"/>
			<path id="XMLID_279_" class="st0" d="M436.1,465.8c0-3.7,0.8-6.5,2.5-8.4c1.7-1.9,4.1-2.9,7.3-2.9c3.2,0,5.7,1,7.5,2.9
				c1.8,1.9,2.7,4.7,2.7,8.4c0,3.6-0.9,6.4-2.7,8.3c-1.8,1.9-4.3,2.9-7.5,2.9c-2.8,0-5.2-0.9-7-2.6
				C437,472.6,436.1,469.7,436.1,465.8z"/>
			<path id="XMLID_281_" class="st0" d="M496.5,465.8c0-3.7,0.8-6.5,2.5-8.4c1.7-1.9,4.1-2.9,7.3-2.9c3.2,0,5.7,1,7.5,2.9
				c1.8,1.9,2.7,4.7,2.7,8.4c0,3.6-0.9,6.4-2.7,8.3c-1.8,1.9-4.3,2.9-7.5,2.9c-2.8,0-5.2-0.9-7-2.6
				C497.4,472.6,496.5,469.7,496.5,465.8z"/>
			<path id="XMLID_283_" class="st0" d="M556.9,465.8c0-3.7,0.8-6.5,2.5-8.4c1.7-1.9,4.1-2.9,7.3-2.9c3.2,0,5.7,1,7.5,2.9
				c1.8,1.9,2.7,4.7,2.7,8.4c0,3.6-0.9,6.4-2.7,8.3c-1.8,1.9-4.3,2.9-7.5,2.9c-2.8,0-5.2-0.9-7-2.6
				C557.8,472.6,556.9,469.7,556.9,465.8z"/>
			<path id="XMLID_285_" class="st0" d="M617.3,465.8c0-3.7,0.8-6.5,2.5-8.4c1.7-1.9,4.1-2.9,7.3-2.9c3.2,0,5.7,1,7.5,2.9
				c1.8,1.9,2.7,4.7,2.7,8.4c0,3.6-0.9,6.4-2.7,8.3c-1.8,1.9-4.3,2.9-7.5,2.9c-2.8,0-5.2-0.9-7-2.6
				C618.2,472.6,617.3,469.7,617.3,465.8z"/>
			<path id="XMLID_287_" class="st0" d="M677.6,465.8c0-3.7,0.8-6.5,2.5-8.4c1.7-1.9,4.1-2.9,7.3-2.9c3.2,0,5.7,1,7.5,2.9
				c1.8,1.9,2.7,4.7,2.7,8.4c0,3.6-0.9,6.4-2.7,8.3c-1.8,1.9-4.3,2.9-7.5,2.9c-2.8,0-5.2-0.9-7-2.6
				C678.6,472.6,677.6,469.7,677.6,465.8z"/>
			<path id="XMLID_289_" class="st0" d="M738,465.8c0-3.7,0.8-6.5,2.5-8.4c1.7-1.9,4.1-2.9,7.3-2.9c3.2,0,5.7,1,7.5,2.9
				c1.8,1.9,2.7,4.7,2.7,8.4c0,3.6-0.9,6.4-2.7,8.3c-1.8,1.9-4.3,2.9-7.5,2.9c-2.8,0-5.2-0.9-7-2.6C739,472.6,738,469.7,738,465.8z"
				/>
			<path id="XMLID_291_" class="st0" d="M798.4,465.8c0-3.7,0.8-6.5,2.5-8.4c1.7-1.9,4.1-2.9,7.3-2.9c3.2,0,5.7,1,7.5,2.9
				c1.8,1.9,2.7,4.7,2.7,8.4c0,3.6-0.9,6.4-2.7,8.3c-1.8,1.9-4.3,2.9-7.5,2.9c-2.8,0-5.2-0.9-7-2.6
				C799.3,472.6,798.4,469.7,798.4,465.8z"/>
			<path id="XMLID_293_" class="st0" d="M858.8,465.8c0-3.7,0.8-6.5,2.5-8.4c1.7-1.9,4.1-2.9,7.3-2.9c3.2,0,5.7,1,7.5,2.9
				c1.8,1.9,2.7,4.7,2.7,8.4c0,3.6-0.9,6.4-2.7,8.3c-1.8,1.9-4.3,2.9-7.5,2.9c-2.8,0-5.2-0.9-7-2.6
				C859.7,472.6,858.8,469.7,858.8,465.8z"/>
			<path id="XMLID_295_" class="st0" d="M919.2,465.8c0-3.7,0.8-6.5,2.5-8.4c1.7-1.9,4.1-2.9,7.3-2.9c3.2,0,5.7,1,7.5,2.9
				c1.8,1.9,2.7,4.7,2.7,8.4c0,3.6-0.9,6.4-2.7,8.3c-1.8,1.9-4.3,2.9-7.5,2.9c-2.8,0-5.2-0.9-7-2.6
				C920.1,472.6,919.2,469.7,919.2,465.8z"/>
			<path id="XMLID_297_" class="st0" d="M979.5,465.8c0-3.7,0.8-6.5,2.5-8.4c1.7-1.9,4.1-2.9,7.3-2.9c3.2,0,5.7,1,7.5,2.9
				c1.8,1.9,2.7,4.7,2.7,8.4c0,3.6-0.9,6.4-2.7,8.3c-1.8,1.9-4.3,2.9-7.5,2.9c-2.8,0-5.2-0.9-7-2.6
				C980.5,472.6,979.5,469.7,979.5,465.8z"/>
			<path id="XMLID_299_" class="st0" d="M1039.9,465.8c0-3.7,0.8-6.5,2.5-8.4c1.7-1.9,4.1-2.9,7.3-2.9c3.2,0,5.7,1,7.5,2.9
				c1.8,1.9,2.7,4.7,2.7,8.4c0,3.6-0.9,6.4-2.7,8.3c-1.8,1.9-4.3,2.9-7.5,2.9c-2.8,0-5.2-0.9-7-2.6
				C1040.9,472.6,1039.9,469.7,1039.9,465.8z"/>
			<path id="XMLID_301_" class="st0" d="M1100.3,465.8c0-3.7,0.8-6.5,2.5-8.4c1.7-1.9,4.1-2.9,7.3-2.9c3.2,0,5.7,1,7.5,2.9
				c1.8,1.9,2.7,4.7,2.7,8.4c0,3.6-0.9,6.4-2.7,8.3c-1.8,1.9-4.3,2.9-7.5,2.9c-2.8,0-5.2-0.9-7-2.6
				C1101.2,472.6,1100.3,469.7,1100.3,465.8z"/>
			<path id="XMLID_303_" class="st0" d="M1160.7,465.8c0-3.7,0.8-6.5,2.5-8.4c1.7-1.9,4.1-2.9,7.3-2.9c3.2,0,5.7,1,7.5,2.9
				c1.8,1.9,2.7,4.7,2.7,8.4c0,3.6-0.9,6.4-2.7,8.3c-1.8,1.9-4.3,2.9-7.5,2.9c-2.8,0-5.2-0.9-7-2.6
				C1161.6,472.6,1160.7,469.7,1160.7,465.8z"/>
			<path id="XMLID_305_" class="st0" d="M1221.1,465.8c0-3.7,0.8-6.5,2.5-8.4c1.7-1.9,4.1-2.9,7.3-2.9c3.2,0,5.7,1,7.5,2.9
				c1.8,1.9,2.7,4.7,2.7,8.4c0,3.6-0.9,6.4-2.7,8.3c-1.8,1.9-4.3,2.9-7.5,2.9c-2.8,0-5.2-0.9-7-2.6
				C1222,472.6,1221.1,469.7,1221.1,465.8z"/>
			<path id="XMLID_307_" class="st0" d="M1281.5,465.8c0-3.7,0.8-6.5,2.5-8.4c1.7-1.9,4.1-2.9,7.3-2.9c3.2,0,5.7,1,7.5,2.9
				c1.8,1.9,2.7,4.7,2.7,8.4c0,3.6-0.9,6.4-2.7,8.3c-1.8,1.9-4.3,2.9-7.5,2.9c-2.8,0-5.2-0.9-7-2.6
				C1282.4,472.6,1281.5,469.7,1281.5,465.8z"/>
			<path id="XMLID_309_" class="st0" d="M1341.8,465.8c0-3.7,0.8-6.5,2.5-8.4c1.7-1.9,4.1-2.9,7.3-2.9c3.2,0,5.7,1,7.5,2.9
				c1.8,1.9,2.7,4.7,2.7,8.4c0,3.6-0.9,6.4-2.7,8.3c-1.8,1.9-4.3,2.9-7.5,2.9c-2.8,0-5.2-0.9-7-2.6
				C1342.8,472.6,1341.8,469.7,1341.8,465.8z"/>
			<path id="XMLID_311_" class="st0" d="M1402.2,465.8c0-3.7,0.8-6.5,2.5-8.4c1.7-1.9,4.1-2.9,7.3-2.9c3.2,0,5.7,1,7.5,2.9
				c1.8,1.9,2.7,4.7,2.7,8.4c0,3.6-0.9,6.4-2.7,8.3c-1.8,1.9-4.3,2.9-7.5,2.9c-2.8,0-5.2-0.9-7-2.6
				C1403.1,472.6,1402.2,469.7,1402.2,465.8z"/>
			<path id="XMLID_313_" class="st0" d="M1462.6,465.8c0-3.7,0.8-6.5,2.5-8.4c1.7-1.9,4.1-2.9,7.3-2.9c3.2,0,5.7,1,7.5,2.9
				c1.8,1.9,2.7,4.7,2.7,8.4c0,3.6-0.9,6.4-2.7,8.3c-1.8,1.9-4.3,2.9-7.5,2.9c-2.8,0-5.2-0.9-7-2.6
				C1463.5,472.6,1462.6,469.7,1462.6,465.8z"/>
			<path id="XMLID_315_" class="st0" d="M1523,465.8c0-3.7,0.8-6.5,2.5-8.4c1.7-1.9,4.1-2.9,7.3-2.9c3.2,0,5.7,1,7.5,2.9
				c1.8,1.9,2.7,4.7,2.7,8.4c0,3.6-0.9,6.4-2.7,8.3c-1.8,1.9-4.3,2.9-7.5,2.9c-2.8,0-5.2-0.9-7-2.6
				C1523.9,472.6,1523,469.7,1523,465.8z"/>
			<path id="XMLID_319_" class="st0" d="M1583.4,465.8c0-3.7,0.8-6.5,2.5-8.4c1.7-1.9,4.1-2.9,7.3-2.9c3.2,0,5.7,1,7.5,2.9
				c1.8,1.9,2.7,4.7,2.7,8.4c0,3.6-0.9,6.4-2.7,8.3c-1.8,1.9-4.3,2.9-7.5,2.9c-2.8,0-5.2-0.9-7-2.6
				C1584.3,472.6,1583.4,469.7,1583.4,465.8z"/>
			<path id="XMLID_321_" class="st0" d="M1643.7,465.8c0-3.7,0.8-6.5,2.5-8.4c1.7-1.9,4.1-2.9,7.3-2.9c3.2,0,5.7,1,7.5,2.9
				c1.8,1.9,2.7,4.7,2.7,8.4c0,3.6-0.9,6.4-2.7,8.3c-1.8,1.9-4.3,2.9-7.5,2.9c-2.8,0-5.2-0.9-7-2.6
				C1644.7,472.6,1643.7,469.7,1643.7,465.8z"/>
			<path id="XMLID_323_" class="st0" d="M1704.1,465.8c0-3.7,0.8-6.5,2.5-8.4c1.7-1.9,4.1-2.9,7.3-2.9c3.2,0,5.7,1,7.5,2.9
				c1.8,1.9,2.7,4.7,2.7,8.4c0,3.6-0.9,6.4-2.7,8.3c-1.8,1.9-4.3,2.9-7.5,2.9c-2.8,0-5.2-0.9-7-2.6
				C1705,472.6,1704.1,469.7,1704.1,465.8z"/>
		</g>
		<g id="XMLID_6_">
			<path id="XMLID_7_" class="st0" d="M194.6,125.7c0-3.7,0.8-6.5,2.5-8.4c1.7-1.9,4.1-2.9,7.3-2.9c3.2,0,5.7,1,7.5,2.9
				c1.8,1.9,2.7,4.7,2.7,8.4c0,3.6-0.9,6.4-2.7,8.3c-1.8,1.9-4.3,2.9-7.5,2.9c-2.8,0-5.2-0.9-7-2.6
				C195.5,132.6,194.6,129.7,194.6,125.7z"/>
			<path id="XMLID_10_" class="st0" d="M255,125.7c0-3.7,0.8-6.5,2.5-8.4c1.7-1.9,4.1-2.9,7.3-2.9c3.2,0,5.7,1,7.5,2.9
				c1.8,1.9,2.7,4.7,2.7,8.4c0,3.6-0.9,6.4-2.7,8.3c-1.8,1.9-4.3,2.9-7.5,2.9c-2.8,0-5.2-0.9-7-2.6C255.9,132.6,255,129.7,255,125.7
				z"/>
			<path id="XMLID_31_" class="st0" d="M315.4,125.7c0-3.7,0.8-6.5,2.5-8.4c1.7-1.9,4.1-2.9,7.3-2.9c3.2,0,5.7,1,7.5,2.9
				c1.8,1.9,2.7,4.7,2.7,8.4c0,3.6-0.9,6.4-2.7,8.3c-1.8,1.9-4.3,2.9-7.5,2.9c-2.8,0-5.2-0.9-7-2.6
				C316.3,132.6,315.4,129.7,315.4,125.7z"/>
			<path id="XMLID_33_" class="st0" d="M375.7,125.7c0-3.7,0.8-6.5,2.5-8.4c1.7-1.9,4.1-2.9,7.3-2.9c3.2,0,5.7,1,7.5,2.9
				c1.8,1.9,2.7,4.7,2.7,8.4c0,3.6-0.9,6.4-2.7,8.3c-1.8,1.9-4.3,2.9-7.5,2.9c-2.8,0-5.2-0.9-7-2.6
				C376.7,132.6,375.7,129.7,375.7,125.7z"/>
			<path id="XMLID_35_" class="st0" d="M436.1,125.7c0-3.7,0.8-6.5,2.5-8.4c1.7-1.9,4.1-2.9,7.3-2.9c3.2,0,5.7,1,7.5,2.9
				c1.8,1.9,2.7,4.7,2.7,8.4c0,3.6-0.9,6.4-2.7,8.3c-1.8,1.9-4.3,2.9-7.5,2.9c-2.8,0-5.2-0.9-7-2.6
				C437,132.6,436.1,129.7,436.1,125.7z"/>
			<path id="XMLID_37_" class="st0" d="M496.5,125.7c0-3.7,0.8-6.5,2.5-8.4c1.7-1.9,4.1-2.9,7.3-2.9c3.2,0,5.7,1,7.5,2.9
				c1.8,1.9,2.7,4.7,2.7,8.4c0,3.6-0.9,6.4-2.7,8.3c-1.8,1.9-4.3,2.9-7.5,2.9c-2.8,0-5.2-0.9-7-2.6
				C497.4,132.6,496.5,129.7,496.5,125.7z"/>
			<path id="XMLID_39_" class="st0" d="M556.9,125.7c0-3.7,0.8-6.5,2.5-8.4c1.7-1.9,4.1-2.9,7.3-2.9c3.2,0,5.7,1,7.5,2.9
				c1.8,1.9,2.7,4.7,2.7,8.4c0,3.6-0.9,6.4-2.7,8.3c-1.8,1.9-4.3,2.9-7.5,2.9c-2.8,0-5.2-0.9-7-2.6
				C557.8,132.6,556.9,129.7,556.9,125.7z"/>
			<path id="XMLID_41_" class="st0" d="M617.3,125.7c0-3.7,0.8-6.5,2.5-8.4c1.7-1.9,4.1-2.9,7.3-2.9c3.2,0,5.7,1,7.5,2.9
				c1.8,1.9,2.7,4.7,2.7,8.4c0,3.6-0.9,6.4-2.7,8.3c-1.8,1.9-4.3,2.9-7.5,2.9c-2.8,0-5.2-0.9-7-2.6
				C618.2,132.6,617.3,129.7,617.3,125.7z"/>
			<path id="XMLID_48_" class="st0" d="M677.6,125.7c0-3.7,0.8-6.5,2.5-8.4c1.7-1.9,4.1-2.9,7.3-2.9c3.2,0,5.7,1,7.5,2.9
				c1.8,1.9,2.7,4.7,2.7,8.4c0,3.6-0.9,6.4-2.7,8.3c-1.8,1.9-4.3,2.9-7.5,2.9c-2.8,0-5.2-0.9-7-2.6
				C678.6,132.6,677.6,129.7,677.6,125.7z"/>
			<path id="XMLID_50_" class="st0" d="M738,125.7c0-3.7,0.8-6.5,2.5-8.4c1.7-1.9,4.1-2.9,7.3-2.9c3.2,0,5.7,1,7.5,2.9
				c1.8,1.9,2.7,4.7,2.7,8.4c0,3.6-0.9,6.4-2.7,8.3c-1.8,1.9-4.3,2.9-7.5,2.9c-2.8,0-5.2-0.9-7-2.6C739,132.6,738,129.7,738,125.7z"
				/>
			<path id="XMLID_52_" class="st0" d="M798.4,125.7c0-3.7,0.8-6.5,2.5-8.4c1.7-1.9,4.1-2.9,7.3-2.9c3.2,0,5.7,1,7.5,2.9
				c1.8,1.9,2.7,4.7,2.7,8.4c0,3.6-0.9,6.4-2.7,8.3c-1.8,1.9-4.3,2.9-7.5,2.9c-2.8,0-5.2-0.9-7-2.6
				C799.3,132.6,798.4,129.7,798.4,125.7z"/>
			<path id="XMLID_60_" class="st0" d="M858.8,125.7c0-3.7,0.8-6.5,2.5-8.4c1.7-1.9,4.1-2.9,7.3-2.9c3.2,0,5.7,1,7.5,2.9
				c1.8,1.9,2.7,4.7,2.7,8.4c0,3.6-0.9,6.4-2.7,8.3c-1.8,1.9-4.3,2.9-7.5,2.9c-2.8,0-5.2-0.9-7-2.6
				C859.7,132.6,858.8,129.7,858.8,125.7z"/>
			<path id="XMLID_62_" class="st0" d="M919.2,125.7c0-3.7,0.8-6.5,2.5-8.4c1.7-1.9,4.1-2.9,7.3-2.9c3.2,0,5.7,1,7.5,2.9
				c1.8,1.9,2.7,4.7,2.7,8.4c0,3.6-0.9,6.4-2.7,8.3c-1.8,1.9-4.3,2.9-7.5,2.9c-2.8,0-5.2-0.9-7-2.6
				C920.1,132.6,919.2,129.7,919.2,125.7z"/>
			<path id="XMLID_64_" class="st0" d="M979.5,125.7c0-3.7,0.8-6.5,2.5-8.4c1.7-1.9,4.1-2.9,7.3-2.9c3.2,0,5.7,1,7.5,2.9
				c1.8,1.9,2.7,4.7,2.7,8.4c0,3.6-0.9,6.4-2.7,8.3c-1.8,1.9-4.3,2.9-7.5,2.9c-2.8,0-5.2-0.9-7-2.6
				C980.5,132.6,979.5,129.7,979.5,125.7z"/>
			<path id="XMLID_66_" class="st0" d="M1039.9,125.7c0-3.7,0.8-6.5,2.5-8.4c1.7-1.9,4.1-2.9,7.3-2.9c3.2,0,5.7,1,7.5,2.9
				c1.8,1.9,2.7,4.7,2.7,8.4c0,3.6-0.9,6.4-2.7,8.3c-1.8,1.9-4.3,2.9-7.5,2.9c-2.8,0-5.2-0.9-7-2.6
				C1040.9,132.6,1039.9,129.7,1039.9,125.7z"/>
			<path id="XMLID_68_" class="st0" d="M1100.3,125.7c0-3.7,0.8-6.5,2.5-8.4c1.7-1.9,4.1-2.9,7.3-2.9c3.2,0,5.7,1,7.5,2.9
				c1.8,1.9,2.7,4.7,2.7,8.4c0,3.6-0.9,6.4-2.7,8.3c-1.8,1.9-4.3,2.9-7.5,2.9c-2.8,0-5.2-0.9-7-2.6
				C1101.2,132.6,1100.3,129.7,1100.3,125.7z"/>
			<path id="XMLID_70_" class="st0" d="M1160.7,125.7c0-3.7,0.8-6.5,2.5-8.4c1.7-1.9,4.1-2.9,7.3-2.9c3.2,0,5.7,1,7.5,2.9
				c1.8,1.9,2.7,4.7,2.7,8.4c0,3.6-0.9,6.4-2.7,8.3c-1.8,1.9-4.3,2.9-7.5,2.9c-2.8,0-5.2-0.9-7-2.6
				C1161.6,132.6,1160.7,129.7,1160.7,125.7z"/>
			<path id="XMLID_72_" class="st0" d="M1221.1,125.7c0-3.7,0.8-6.5,2.5-8.4c1.7-1.9,4.1-2.9,7.3-2.9c3.2,0,5.7,1,7.5,2.9
				c1.8,1.9,2.7,4.7,2.7,8.4c0,3.6-0.9,6.4-2.7,8.3c-1.8,1.9-4.3,2.9-7.5,2.9c-2.8,0-5.2-0.9-7-2.6
				C1222,132.6,1221.1,129.7,1221.1,125.7z"/>
			<path id="XMLID_75_" class="st0" d="M1281.5,125.7c0-3.7,0.8-6.5,2.5-8.4c1.7-1.9,4.1-2.9,7.3-2.9c3.2,0,5.7,1,7.5,2.9
				c1.8,1.9,2.7,4.7,2.7,8.4c0,3.6-0.9,6.4-2.7,8.3c-1.8,1.9-4.3,2.9-7.5,2.9c-2.8,0-5.2-0.9-7-2.6
				C1282.4,132.6,1281.5,129.7,1281.5,125.7z"/>
			<path id="XMLID_77_" class="st0" d="M1341.8,125.7c0-3.7,0.8-6.5,2.5-8.4c1.7-1.9,4.1-2.9,7.3-2.9c3.2,0,5.7,1,7.5,2.9
				c1.8,1.9,2.7,4.7,2.7,8.4c0,3.6-0.9,6.4-2.7,8.3c-1.8,1.9-4.3,2.9-7.5,2.9c-2.8,0-5.2-0.9-7-2.6
				C1342.8,132.6,1341.8,129.7,1341.8,125.7z"/>
			<path id="XMLID_79_" class="st0" d="M1402.2,125.7c0-3.7,0.8-6.5,2.5-8.4c1.7-1.9,4.1-2.9,7.3-2.9c3.2,0,5.7,1,7.5,2.9
				c1.8,1.9,2.7,4.7,2.7,8.4c0,3.6-0.9,6.4-2.7,8.3c-1.8,1.9-4.3,2.9-7.5,2.9c-2.8,0-5.2-0.9-7-2.6
				C1403.1,132.6,1402.2,129.7,1402.2,125.7z"/>
			<path id="XMLID_87_" class="st0" d="M1462.6,125.7c0-3.7,0.8-6.5,2.5-8.4c1.7-1.9,4.1-2.9,7.3-2.9c3.2,0,5.7,1,7.5,2.9
				c1.8,1.9,2.7,4.7,2.7,8.4c0,3.6-0.9,6.4-2.7,8.3c-1.8,1.9-4.3,2.9-7.5,2.9c-2.8,0-5.2-0.9-7-2.6
				C1463.5,132.6,1462.6,129.7,1462.6,125.7z"/>
			<path id="XMLID_231_" class="st0" d="M1523,125.7c0-3.7,0.8-6.5,2.5-8.4c1.7-1.9,4.1-2.9,7.3-2.9c3.2,0,5.7,1,7.5,2.9
				c1.8,1.9,2.7,4.7,2.7,8.4c0,3.6-0.9,6.4-2.7,8.3c-1.8,1.9-4.3,2.9-7.5,2.9c-2.8,0-5.2-0.9-7-2.6
				C1523.9,132.6,1523,129.7,1523,125.7z"/>
			<path id="XMLID_239_" class="st0" d="M1583.4,125.7c0-3.7,0.8-6.5,2.5-8.4c1.7-1.9,4.1-2.9,7.3-2.9c3.2,0,5.7,1,7.5,2.9
				c1.8,1.9,2.7,4.7,2.7,8.4c0,3.6-0.9,6.4-2.7,8.3c-1.8,1.9-4.3,2.9-7.5,2.9c-2.8,0-5.2-0.9-7-2.6
				C1584.3,132.6,1583.4,129.7,1583.4,125.7z"/>
			<path id="XMLID_241_" class="st0" d="M1643.7,125.7c0-3.7,0.8-6.5,2.5-8.4c1.7-1.9,4.1-2.9,7.3-2.9c3.2,0,5.7,1,7.5,2.9
				c1.8,1.9,2.7,4.7,2.7,8.4c0,3.6-0.9,6.4-2.7,8.3c-1.8,1.9-4.3,2.9-7.5,2.9c-2.8,0-5.2-0.9-7-2.6
				C1644.7,132.6,1643.7,129.7,1643.7,125.7z"/>
			<path id="XMLID_243_" class="st0" d="M1704.1,125.7c0-3.7,0.8-6.5,2.5-8.4c1.7-1.9,4.1-2.9,7.3-2.9c3.2,0,5.7,1,7.5,2.9
				c1.8,1.9,2.7,4.7,2.7,8.4c0,3.6-0.9,6.4-2.7,8.3c-1.8,1.9-4.3,2.9-7.5,2.9c-2.8,0-5.2-0.9-7-2.6
				C1705,132.6,1704.1,129.7,1704.1,125.7z"/>
		</g>
	</g>
</g>
</svg>
