<?xml version="1.0" encoding="utf-8"?>
<!-- Generator: Adobe Illustrator 19.0.0, SVG Export Plug-In . SVG Version: 6.00 Build 0)  -->
<svg version="1.1" id="Camada_1" xmlns="http://www.w3.org/2000/svg" xmlns:xlink="http://www.w3.org/1999/xlink" x="0px" y="0px"
	 viewBox="0 0 280 120" style="enable-background:new 0 0 280 120;" xml:space="preserve">
<style type="text/css">
	.st0{fill:#BDA882;}
	.st1{fill:#FFFFFF;}
	.st2{fill:#FFFFFF;stroke:#FFFFFF;stroke-width:2;stroke-miterlimit:10;}
</style>
<g id="XMLID_11_">
	<path id="XMLID_12_" class="st0" d="M37,20.7c0,0.2-0.1,0.4-0.2,0.5c-0.1,0.1-0.3,0.3-0.4,0.4c-0.1,0.1-0.3,0.3-0.4,0.4
		c-0.1,0.1-0.2,0.3-0.2,0.5c-0.1,0.4-0.3,0.8-0.7,1.1c-0.4,0.3-0.9,0.4-1.4,0.4c-0.5,0-1.2,0-2.3-0.1s-2.3-0.1-3.6-0.1
		c-1.5,0-3.1,0.1-4.6,0.2c-1.6,0.1-3.1,0.3-4.6,0.5c-1.5,0.2-2.9,0.6-4.3,1s-2.5,0.9-3.5,1.5c-1,0.6-1.8,1.3-2.4,2.1
		c-0.6,0.8-0.9,1.7-0.9,2.7c0,0.9,0.2,1.8,0.5,2.7c0.3,0.9,0.7,1.7,1.2,2.4c0.4,0.7,0.9,1.4,1.4,1.9c0.5,0.5,0.8,0.9,1.1,1.2
		c0.2,0.2,0.3,0.3,0.3,0.5c0,0.4-0.5,0.6-1.4,0.6c-0.2,0-0.6,0-1-0.1c-0.4-0.1-0.9-0.3-1.4-0.5s-1-0.5-1.6-0.9s-1-0.9-1.5-1.5
		c-0.4-0.6-0.8-1.3-1.1-2.2C3.6,35,3.5,34,3.5,32.9c0-1.6,0.4-3.2,1.2-4.7c0.8-1.5,1.9-2.9,3.3-4.1c1.4-1.2,3.1-2.2,4.9-3.1
		s3.9-1.4,6-1.6c1-0.2,2-0.3,3.1-0.4s2.1-0.2,3.1-0.3c1-0.1,2-0.1,3-0.2c1,0,1.8-0.1,2.6-0.1c1.5,0,2.7,0.1,3.6,0.2
		c0.9,0.1,1.5,0.2,1.9,0.4c0.4,0.2,0.7,0.3,0.8,0.5c0.1,0.2,0.2,0.3,0.2,0.5c0,0.1,0,0.2-0.1,0.3C37.1,20.4,37,20.6,37,20.7z
		 M24.5,25.7c0,0.1,0,0.7-0.1,1.6s-0.1,2.2-0.2,3.7c-0.1,1.5-0.1,3.2-0.2,5.1c-0.1,1.9-0.2,3.8-0.3,5.8c-0.1,2-0.2,4-0.3,5.9
		c-0.1,1.9-0.2,3.7-0.2,5.4c-0.1,1.6-0.1,3-0.2,4.1c0,1.1-0.1,1.9-0.1,2.3c0,0.2,0,0.4-0.1,0.6c0,0.2-0.1,0.4-0.3,0.6
		c-0.1,0.2-0.3,0.4-0.6,0.5c-0.2,0.2-0.6,0.3-0.9,0.3c-0.3,0.1-0.6,0.2-0.9,0.3c-0.3,0.1-0.5,0.3-0.7,0.4c-0.2,0.2-0.4,0.3-0.6,0.4
		S18.7,63,18.5,63c-0.1,0-0.2,0-0.2-0.1s-0.1-0.2-0.1-0.3s0-0.2,0-0.4s0-0.2,0-0.3c0-1.2,0.1-3.1,0.2-5.9c0-1.2,0.1-2.6,0.2-4.2
		c0.1-1.6,0.2-3.5,0.3-5.7c0.1-2.2,0.2-4.7,0.4-7.5s0.3-6,0.5-9.5c0-0.8,0.2-1.6,0.5-2.1s0.7-0.9,1.4-1.1c0.3-0.1,0.6-0.2,0.9-0.4
		c0.3-0.2,0.5-0.4,0.8-0.6c0.2-0.2,0.4-0.4,0.6-0.5c0.2-0.2,0.3-0.2,0.4-0.2c0.2,0,0.3,0.1,0.3,0.4C24.5,24.9,24.5,25.2,24.5,25.7z"
		/>
	<path id="XMLID_15_" class="st0" d="M48.7,49.5c-0.6,1.7-1.1,3.2-1.6,4.4s-1,2.3-1.5,3.2c-0.5,0.9-1,1.5-1.6,1.9
		c-0.6,0.4-1.3,0.7-2,0.7c-0.7,0-1.2-0.2-1.7-0.6s-0.8-0.9-1.1-1.5s-0.5-1.3-0.6-2c-0.1-0.7-0.2-1.4-0.2-2.1c0-0.5,0-1,0-1.4
		s0-0.9,0.1-1.3c-0.4,1.7-0.8,3.1-1.3,4.2s-0.9,2-1.3,2.7s-0.9,1.2-1.4,1.5s-1,0.4-1.5,0.4c-0.4,0-0.8-0.1-1.2-0.3
		c-0.4-0.2-0.8-0.6-1.1-1.1s-0.6-1.4-0.8-2.4c-0.2-1-0.3-2.4-0.3-4.1c0-0.4,0-0.9,0-1.5s0.1-1.2,0.1-1.9s0.1-1.3,0.2-1.9
		c0.1-0.6,0.2-1.2,0.3-1.7c0.1-0.2,0.1-0.5,0.2-0.8c0.1-0.3,0.2-0.5,0.3-0.6c0.2-0.2,0.4-0.4,0.5-0.5c0.1-0.2,0.3-0.2,0.4-0.2
		c0.1,0,0.2,0.1,0.3,0.2c0.1,0.1,0.2,0.2,0.3,0.2c0.1,0,0.2,0,0.3-0.1c0.2-0.1,0.3-0.2,0.5-0.3s0.4-0.2,0.6-0.3
		c0.2-0.1,0.3-0.1,0.4-0.1c0.2,0,0.3,0.2,0.3,0.6c0,0.1,0,0.2,0,0.4c0,0.2,0,0.3-0.1,0.5C34.2,44.8,34,46,34,47.1
		c-0.1,1.1-0.1,2.3-0.1,3.6c0,0.7,0,1.4,0,2c0,0.6,0.1,1.1,0.1,1.5c0.1,0.4,0.2,0.8,0.3,1c0.2,0.2,0.4,0.4,0.6,0.4
		c0.4,0,0.7-0.3,1-0.8c0.3-0.5,0.6-1.1,0.9-1.9c0.3-0.8,0.5-1.7,0.8-2.6s0.5-1.9,0.7-2.8c0.2-0.9,0.5-1.8,0.7-2.5
		c0.2-0.8,0.5-1.4,0.7-1.8c0.2-0.4,0.6-0.7,1-0.9c0.4-0.2,0.8-0.4,1.1-0.4c0.4,0,0.7,0.2,0.9,0.5c0.2,0.3,0.3,0.9,0.3,1.8
		c0,0.6,0,1.2-0.1,1.8S43,47,42.9,47.6c0,0.6-0.1,1.3-0.1,1.9c0,0.7-0.1,1.5-0.1,2.3c0,0.8,0,1.4,0.1,1.9c0.1,0.5,0.2,0.9,0.3,1.1
		c0.1,0.3,0.2,0.4,0.4,0.5c0.1,0.1,0.3,0.1,0.4,0.1c0.3,0,0.6-0.1,0.9-0.4s0.6-0.7,0.9-1.2c0.3-0.5,0.6-1.2,0.9-2
		c0.3-0.8,0.7-1.7,1-2.6c0.1-0.2,0.2-0.4,0.3-0.5c0.1-0.1,0.3-0.2,0.4-0.2c0.1,0,0.2,0,0.3,0.1s0.1,0.2,0.1,0.4
		C48.8,49.2,48.8,49.3,48.7,49.5z"/>
	<path id="XMLID_17_" class="st0" d="M65.8,48.6c0.1,0,0.2,0,0.3,0.1c0.1,0.1,0.1,0.2,0.1,0.4c0,0.1,0,0.2-0.1,0.4
		c-0.5,1.5-1,2.8-1.4,4c-0.5,1.2-0.9,2.2-1.3,3.1c-0.5,1-1,1.8-1.6,2.4c-0.6,0.6-1.4,0.9-2.4,0.9c-0.4,0-0.8-0.1-1.2-0.2
		c-0.4-0.1-0.7-0.4-1.1-0.8s-0.6-0.9-0.9-1.5c-0.3-0.6-0.5-1.5-0.6-2.4c-0.3,0.6-0.6,1.2-1,1.8c-0.4,0.6-0.8,1.1-1.2,1.6
		c-0.5,0.5-1,0.9-1.5,1.1s-1.2,0.4-1.8,0.4c-0.5,0-0.9-0.2-1.4-0.5s-0.8-0.7-1.1-1.3c-0.3-0.6-0.6-1.2-0.7-2
		c-0.2-0.8-0.3-1.6-0.3-2.6c0-1,0.1-2,0.3-2.9s0.4-1.9,0.8-2.8c0.3-0.9,0.7-1.7,1.2-2.4c0.5-0.7,1-1.4,1.5-1.9
		c0.9-0.9,1.9-1.6,2.7-2.1c0.9-0.4,1.7-0.7,2.4-0.7c0.1,0,0.2,0,0.2,0s0.1,0,0.3,0c0.1-0.9,0.2-1.9,0.2-2.9c0.1-1,0.2-2.1,0.3-3.3
		c0.2-1.5,0.4-2.7,0.5-3.7s0.3-1.9,0.4-2.6c0.1-0.7,0.3-1.3,0.5-1.9c0.2-0.5,0.4-1,0.6-1.5c0.1-0.3,0.3-0.5,0.4-0.7
		c0.2-0.2,0.3-0.4,0.5-0.5c0.2-0.2,0.4-0.3,0.6-0.5c0.2-0.2,0.5-0.4,0.7-0.7c0.5-0.5,0.9-0.8,1.2-1c0.3-0.2,0.6-0.3,0.8-0.3
		c0.2,0,0.4,0.1,0.5,0.2c0.1,0.1,0.2,0.3,0.2,0.6c0,0.1,0,0.2,0,0.3s0,0.2-0.1,0.4c-0.1,0.3-0.2,0.8-0.4,1.5
		c-0.2,0.7-0.4,1.6-0.6,2.6c-0.2,1-0.4,2.2-0.7,3.5c-0.2,1.3-0.4,2.6-0.6,4c-0.2,1.6-0.4,3.2-0.6,4.7c-0.2,1.6-0.3,3.1-0.4,4.6
		c-0.1,1.5-0.2,2.8-0.2,4.1c-0.1,1.3-0.1,2.4-0.1,3.4c0,0.7,0,1.3,0.1,1.8c0,0.6,0.1,1,0.2,1.5c0.1,0.4,0.3,0.7,0.5,1
		s0.4,0.3,0.7,0.3c0.3,0,0.6-0.1,0.9-0.4c0.3-0.3,0.6-0.7,0.8-1.2s0.6-1.2,0.9-2c0.3-0.8,0.7-1.7,1.1-2.7
		C65.2,48.8,65.5,48.6,65.8,48.6z M55.7,44.2c0-0.8-0.3-1.2-1-1.2c-0.5,0-1.1,0.2-1.6,0.6c-0.5,0.4-0.9,0.9-1.3,1.6
		s-0.7,1.5-0.9,2.4c-0.2,0.9-0.3,2-0.3,3.1c0,1.2,0.2,2.2,0.6,3c0.4,0.8,1,1.2,1.8,1.2c0.5,0,0.8-0.1,1.2-0.4c0.3-0.3,0.6-0.6,0.8-1
		c0.2-0.4,0.3-0.9,0.5-1.3c0.1-0.5,0.2-0.9,0.2-1.4c0-0.6,0-1.3,0-1.9c0-0.6,0-1.2,0-1.8c0-0.6,0-1.1,0.1-1.6
		C55.6,44.9,55.7,44.5,55.7,44.2z"/>
	<path id="XMLID_20_" class="st0" d="M76.3,48.6c0.1,0,0.2,0,0.3,0.1c0.1,0.1,0.1,0.2,0.1,0.4c0,0.1,0,0.3-0.1,0.4
		c-0.4,1.2-0.8,2.4-1.2,3.4c-0.4,1-0.7,1.9-1.1,2.7c-0.5,1.2-1.1,2.1-1.6,2.7c-0.5,0.6-1.1,1.1-1.7,1.3c-0.2,0-0.3,0.1-0.5,0.1
		c-0.2,0-0.4,0.1-0.6,0.1c-0.5,0-1-0.1-1.5-0.3c-0.5-0.2-1-0.5-1.5-1.1c-0.5-0.5-0.8-1.3-1.1-2.2c-0.3-1-0.5-2.2-0.5-3.7
		c0-1.4,0-2.7,0.1-3.9c0.1-1.3,0.2-2.5,0.4-3.8c0.3-0.6,0.6-1.1,1-1.6c0.4-0.5,0.8-0.9,1.2-1.2c0.4-0.3,0.8-0.6,1.1-0.8
		c0.3-0.2,0.6-0.3,0.8-0.3c0.1,0,0.1,0.1,0.1,0.3c0,0.2,0,0.4-0.1,0.8c0,0.4-0.1,0.9-0.2,1.5c-0.1,0.7-0.1,1.5-0.2,2.5
		c-0.1,1-0.1,2.3-0.2,3.8c0,0.8,0.1,1.6,0.2,2.4c0.1,0.7,0.3,1.3,0.5,1.9c0.2,0.5,0.4,0.9,0.7,1.2c0.3,0.3,0.6,0.4,0.9,0.4
		c0.3,0,0.6-0.2,0.9-0.5s0.6-0.7,0.8-1.3c0.3-0.6,0.6-1.2,0.9-2s0.6-1.6,1-2.5C75.7,48.8,76,48.6,76.3,48.6z M72.6,29.7
		c0.1,0.1,0.1,0.2,0.1,0.4c0,0.4-0.2,0.7-0.7,1.1c-0.4,0.3-0.7,0.7-1,1c-0.3,0.3-0.6,0.6-0.9,0.9s-0.5,0.5-0.7,0.6
		c-0.2,0.2-0.4,0.2-0.5,0.2c-0.1,0-0.2,0-0.3-0.1c-0.1,0-0.2-0.1-0.2-0.3c-0.2-0.4-0.5-0.9-0.7-1.4c-0.2-0.5-0.4-0.9-0.6-1.3
		c-0.2-0.4-0.3-0.8-0.4-1.1s-0.2-0.5-0.2-0.6c0-0.2,0.1-0.4,0.3-0.7c0.1-0.1,0.3-0.3,0.5-0.7c0.3-0.3,0.6-0.7,0.9-1
		c0.3-0.4,0.6-0.7,0.9-1c0.3-0.3,0.5-0.5,0.6-0.6c0.2-0.3,0.4-0.4,0.6-0.4c0.2,0,0.3,0.1,0.4,0.4c0.1,0.1,0.2,0.4,0.4,0.8
		c0.2,0.4,0.4,0.9,0.6,1.4c0.2,0.5,0.4,1,0.7,1.4C72.4,29.3,72.5,29.6,72.6,29.7z"/>
	<path id="XMLID_23_" class="st0" d="M92.5,48.6c0.1,0,0.2,0,0.3,0.1c0.1,0.1,0.1,0.2,0.1,0.4c0,0.2,0,0.3-0.1,0.5
		c-0.4,1.2-1.1,2-1.9,2.6C90,52.7,89,52.9,88,52.9H88c-0.3,0.9-0.7,1.8-1.1,2.6c-0.4,0.8-1,1.5-1.6,2.2c-0.6,0.6-1.3,1.1-2,1.5
		c-0.7,0.4-1.6,0.5-2.4,0.5c-0.8,0-1.5-0.2-2-0.5s-1-0.8-1.4-1.3c-0.4-0.5-0.7-1.2-0.9-1.9c-0.2-0.7-0.4-1.4-0.5-2.2
		c-0.1-0.8-0.2-1.5-0.2-2.3c0-0.8,0-1.5,0-2.1c0-0.6,0-1.4,0.1-2.6c0-1.1,0.1-2.4,0.2-3.8c0.1-1.4,0.2-2.9,0.3-4.4
		c0.1-1.5,0.3-3.1,0.5-4.5s0.4-2.7,0.5-3.7s0.3-1.9,0.4-2.6c0.1-0.7,0.3-1.3,0.4-1.8c0.2-0.5,0.3-1,0.5-1.4c0.1-0.3,0.2-0.5,0.4-0.7
		c0.1-0.2,0.3-0.3,0.5-0.5c0.2-0.2,0.4-0.3,0.6-0.5c0.2-0.2,0.5-0.4,0.7-0.6c0.5-0.5,0.9-0.8,1.2-1s0.6-0.3,0.8-0.3
		c0.4,0,0.5,0.3,0.5,0.8c0,0.2,0,0.3,0,0.5c0,0.2,0,0.3-0.1,0.4c-0.1,0.5-0.3,1.3-0.5,2.4c-0.2,1-0.5,2.3-0.7,3.7
		c-0.3,1.4-0.5,2.9-0.8,4.6s-0.5,3.5-0.7,5.4c-0.2,1.9-0.4,3.8-0.5,5.8c-0.1,2-0.2,4-0.2,6c0,1.2,0.1,2.2,0.2,3
		c0.1,0.8,0.2,1.5,0.4,2c0.2,0.5,0.4,0.9,0.7,1.1c0.3,0.2,0.5,0.4,0.9,0.4c0.4,0,0.8-0.1,1.1-0.4c0.3-0.3,0.6-0.7,0.8-1.2
		c0.2-0.5,0.4-1.1,0.6-1.7c0.2-0.6,0.3-1.3,0.3-2c-0.5-0.4-1.1-0.8-1.5-1.4c-0.5-0.5-0.9-1.1-1.2-1.7c-0.3-0.6-0.6-1.2-0.8-1.9
		c-0.2-0.6-0.3-1.3-0.3-1.9c0-0.6,0.1-1.1,0.3-1.7s0.4-1,0.8-1.4c0.3-0.4,0.7-0.7,1.2-1c0.5-0.2,1.1-0.4,1.7-0.4
		c0.5,0,1.1,0.1,1.5,0.4c0.5,0.2,0.9,0.6,1.3,1.1c0.4,0.5,0.7,1.1,0.9,1.8s0.3,1.5,0.3,2.5c0,0.8-0.1,1.7-0.2,2.6
		c-0.1,0.9-0.3,1.8-0.5,2.7c0.7,0,1.4-0.3,2-0.7s1-1,1.3-1.6C91.8,48.8,92.1,48.6,92.5,48.6z M84.4,49.3c0.1,0.2,0.2,0.3,0.3,0.4
		c0.1,0.1,0.2,0.3,0.3,0.4c0-0.2,0-0.3,0-0.5s0-0.3,0-0.5c0-1,0-1.8-0.1-2.4c-0.1-0.6-0.2-1.2-0.4-1.6c-0.2-0.4-0.3-0.7-0.5-0.9
		s-0.4-0.3-0.7-0.4c-0.3,0.3-0.4,0.8-0.4,1.3c0,0.7,0.2,1.4,0.5,2.1C83.7,48,84,48.7,84.4,49.3z"/>
	<path id="XMLID_26_" class="st0" d="M97.9,57.3c0.5,0,0.8-0.2,1.2-0.5c0.3-0.3,0.6-0.7,0.9-1.2c0.2-0.5,0.4-1.1,0.6-1.7
		s0.3-1.3,0.3-2c-0.5-0.4-1.1-0.9-1.6-1.5c-0.5-0.6-1-1.3-1.4-2.2c-0.2-0.5-0.4-1-0.5-1.6s-0.2-1.1-0.2-1.5c0-0.6,0.1-1.2,0.3-1.8
		c0.2-0.5,0.4-1,0.8-1.4c0.3-0.4,0.7-0.7,1.2-0.9c0.5-0.2,1.1-0.4,1.7-0.4c0.8,0,1.5,0.2,2,0.6c0.5,0.4,0.9,0.9,1.2,1.5
		s0.5,1.2,0.6,1.9c0.1,0.7,0.2,1.4,0.2,2c0,0.8-0.1,1.6-0.2,2.4c-0.1,0.8-0.3,1.7-0.5,2.5c0.7-0.1,1.3-0.3,1.9-0.6
		c0.5-0.3,1-0.9,1.4-1.7c0.2-0.5,0.5-0.7,0.7-0.7c0.1,0,0.3,0,0.4,0.1c0.1,0.1,0.2,0.2,0.2,0.4c0,0.1,0,0.3-0.1,0.4
		c-0.4,1.1-1,1.9-1.9,2.5c-0.9,0.6-1.9,0.9-2.9,0.9c-0.3,0.9-0.7,1.8-1.2,2.6c-0.5,0.8-1,1.5-1.6,2.2s-1.3,1.1-2.1,1.5
		s-1.7,0.5-2.6,0.5c-0.5,0-1.1-0.1-1.7-0.2c-0.6-0.2-1.2-0.5-1.8-0.9s-1-1.2-1.4-2c-0.4-0.9-0.6-2-0.6-3.5c0-1.2,0.2-2.4,0.7-3.8
		c0.4-1.3,1.2-2.6,2.2-3.9c0.4-0.5,0.8-0.8,1.1-1c0.3-0.2,0.6-0.3,0.8-0.3c0.4,0,0.6,0.3,0.6,0.8c0,0.2-0.1,0.5-0.2,0.8
		s-0.3,0.8-0.5,1.3c-0.2,0.5-0.3,1.2-0.5,1.9c-0.2,0.7-0.2,1.6-0.2,2.6c0,1.9,0.3,3.4,0.8,4.4C96.3,56.8,97,57.3,97.9,57.3z M101,49
		c0-1.9-0.2-3.3-0.5-4.1c-0.4-0.8-0.8-1.2-1.2-1c-0.2,0.1-0.3,0.2-0.3,0.5c0,0.3,0,0.5,0,0.8c0,0.4,0.1,0.8,0.2,1.3s0.3,0.9,0.4,1.4
		c0.2,0.5,0.4,0.9,0.7,1.3c0.3,0.4,0.5,0.8,0.8,1.1c0-0.2,0-0.4,0-0.6C101,49.4,101,49.2,101,49z"/>
	<path id="XMLID_29_" class="st0" d="M134.9,48.6c0.3,0,0.4,0.2,0.4,0.5c0,0.1,0,0.3-0.1,0.4c-0.4,1.3-0.8,2.4-1.2,3.5
		c-0.4,1.1-0.8,2-1.1,2.8c-0.2,0.5-0.5,1-0.7,1.5c-0.3,0.5-0.6,0.9-0.9,1.3s-0.7,0.7-1.2,0.9s-0.9,0.3-1.5,0.3
		c-0.4,0-0.7-0.1-1.1-0.2c-0.4-0.1-0.7-0.3-1-0.6c-0.3-0.3-0.6-0.6-0.8-1.1s-0.3-1-0.4-1.7c0-0.4-0.1-0.8-0.1-1.3s0-0.9,0-1.4
		c0-1,0-2,0.1-2.9c0.1-0.9,0.1-1.6,0.1-2.1c0-0.4-0.1-0.7-0.2-0.8c-0.1-0.2-0.3-0.3-0.4-0.3c-0.2,0-0.4,0.1-0.5,0.2
		c-0.1,0.2-0.2,0.3-0.3,0.6c-0.1,0.2-0.2,0.6-0.4,1.2c-0.2,0.6-0.4,1.2-0.6,1.9c-0.2,0.7-0.5,1.4-0.8,2.2s-0.5,1.5-0.7,2.1
		c-0.3,0.8-0.6,1.5-0.8,2c-0.3,0.5-0.5,0.9-0.7,1.2c-0.2,0.3-0.5,0.5-0.7,0.6s-0.5,0.1-0.7,0.1c-0.2,0-0.4,0-0.6-0.1
		c-0.2-0.1-0.4-0.2-0.6-0.4c-0.2-0.2-0.3-0.4-0.5-0.7c-0.1-0.3-0.2-0.7-0.2-1.1c0-0.3,0-0.6,0-0.9s0-0.6,0-0.9c0-0.7,0-1.4,0-2.1
		c0-0.7,0-1.3,0.1-2c0-0.6,0.1-1.2,0.1-1.6c0-0.5,0-0.9,0-1.1c0-0.4-0.1-0.7-0.2-0.8c-0.1-0.2-0.3-0.3-0.4-0.3
		c-0.2,0-0.3,0.1-0.4,0.2c-0.1,0.2-0.2,0.3-0.3,0.5c-0.1,0.2-0.2,0.6-0.4,1.2c-0.2,0.6-0.4,1.2-0.6,2c-0.2,0.7-0.5,1.5-0.8,2.3
		c-0.3,0.8-0.5,1.5-0.7,2.1c-0.3,0.8-0.6,1.5-0.8,2c-0.3,0.5-0.5,0.9-0.8,1.2s-0.5,0.5-0.7,0.6c-0.2,0.1-0.4,0.1-0.7,0.1
		c-0.2,0-0.4,0-0.6-0.1c-0.2-0.1-0.4-0.2-0.6-0.4c-0.2-0.2-0.3-0.4-0.5-0.7c-0.1-0.3-0.2-0.7-0.2-1.1c0-0.6,0-1.1,0-1.6
		c0-0.5,0-0.9,0-1.4c0-0.7,0-1.3,0-2.1c0-0.7,0-1.5,0.1-2.5c0-0.8,0.1-1.7,0.2-2.4c0.1-0.8,0.2-1.4,0.4-2c0.1-0.6,0.3-1.1,0.4-1.4
		c0.1-0.4,0.2-0.6,0.3-0.7c0.1-0.2,0.3-0.3,0.4-0.5c0.2-0.2,0.3-0.2,0.5-0.2s0.3,0,0.3,0.1s0.2,0.1,0.3,0.1c0.1,0,0.3-0.1,0.4-0.2
		c0.2-0.1,0.4-0.2,0.6-0.4c0.1-0.1,0.3-0.2,0.4-0.2s0.3-0.1,0.4-0.1c0.2,0,0.3,0.2,0.3,0.7c0,0.2,0,0.5-0.1,0.9
		c0,0.5-0.1,0.9-0.1,1.4c-0.1,0.8-0.1,1.6-0.2,2.4c-0.1,0.8-0.1,1.5-0.2,2.2c0,0.7-0.1,1.3-0.1,1.8c0,0.5,0,0.8,0,1
		c0,0.3,0,0.5,0.1,0.5c0,0,0.1-0.2,0.2-0.6c0.1-0.4,0.3-0.8,0.5-1.4c0.2-0.6,0.5-1.3,0.7-2c0.3-0.7,0.6-1.5,0.9-2.2
		c0.3-0.7,0.6-1.4,0.9-2.1c0.3-0.7,0.6-1.2,0.9-1.6c0.4-0.5,0.8-0.9,1.2-1.2c0.4-0.3,0.8-0.4,1.2-0.4c0.8,0,1.3,0.5,1.5,1.5
		c0.2,1,0.3,2.5,0.3,4.4c0,0.8,0,1.7-0.1,2.6s-0.1,1.8-0.1,2.7c0,0.1,0,0.2,0.1,0.2c0,0,0.1-0.2,0.2-0.6s0.3-0.8,0.5-1.4
		c0.2-0.6,0.5-1.3,0.8-2s0.6-1.5,0.9-2.2c0.3-0.7,0.6-1.4,0.9-2.1c0.3-0.6,0.6-1.2,0.9-1.6c0.4-0.5,0.8-0.9,1.2-1.2s0.8-0.4,1.2-0.4
		c0.3,0,0.6,0.1,0.9,0.3c0.2,0.2,0.4,0.5,0.6,0.9c0.1,0.4,0.2,0.8,0.3,1.4c0.1,0.5,0.1,1.1,0.1,1.7c0,0.3,0,0.8,0,1.2
		c0,0.5-0.1,1-0.1,1.6c0,0.5-0.1,1.1-0.1,1.7c0,0.6,0,1.1,0,1.6c0,0.7,0,1.3,0.1,1.8c0.1,0.5,0.2,0.8,0.3,1.1
		c0.1,0.3,0.2,0.4,0.4,0.5c0.2,0.1,0.3,0.1,0.5,0.1c0.3,0,0.6-0.2,0.9-0.5c0.3-0.3,0.5-0.7,0.8-1.3c0.3-0.5,0.6-1.2,0.8-1.9
		c0.3-0.7,0.6-1.6,1-2.4C134.2,48.8,134.5,48.6,134.9,48.6z"/>
	<path id="XMLID_31_" class="st0" d="M179.8,40.3c0,2.6-0.2,5-0.7,7.1c-0.5,2.1-1.1,4-1.8,5.7s-1.7,3.1-2.7,4.3
		c-1,1.2-2.1,2.2-3.2,3c-1.1,0.8-2.2,1.4-3.4,1.8s-2.2,0.6-3.2,0.6c-0.8,0-1.5-0.1-2.2-0.4c-0.7-0.3-1.3-0.7-1.9-1.2
		s-0.9-1.1-1.3-1.9c-0.3-0.7-0.5-1.6-0.5-2.5c0-0.4,0-0.6,0.1-0.8c0.1-0.2,0.2-0.2,0.4-0.2c0.2,0,0.4,0.2,0.5,0.6
		c0.4,1.1,0.9,2,1.7,2.5c0.7,0.6,1.7,0.9,2.8,0.9c1.4,0,2.7-0.5,3.9-1.4c1.2-1,2.2-2.3,3-4.1c0.8-1.8,1.5-4,1.9-6.7
		c0.5-2.6,0.7-5.7,0.7-9.1c0-2.2-0.2-4.2-0.7-6.1c-0.5-1.9-1.2-3.5-2.2-4.8c-1-1.3-2.3-2.4-3.9-3.2c-1.6-0.8-3.4-1.1-5.6-1.1
		c-1.3,0-2.7,0.2-4.1,0.5c-1.4,0.3-2.6,0.9-3.7,1.6c-1.1,0.7-2,1.6-2.7,2.7c-0.7,1.1-1,2.4-1,3.9c0,0.8,0.1,1.6,0.3,2.4
		c0.2,0.8,0.5,1.5,0.8,2.1c0.3,0.6,0.6,1.2,0.9,1.6c0.3,0.5,0.5,0.8,0.6,0.9c0.2,0.2,0.3,0.5,0.3,0.7c0,0.2-0.1,0.3-0.2,0.4
		c-0.1,0.1-0.3,0.2-0.7,0.2c-0.1,0-0.2,0-0.3,0s-0.2,0-0.3-0.1c-0.4-0.1-0.9-0.3-1.6-0.6c-0.7-0.3-1.3-0.8-2-1.5
		c-0.7-0.6-1.2-1.4-1.7-2.4c-0.5-1-0.7-2.1-0.7-3.4c0-0.9,0.2-1.8,0.5-2.8c0.3-1,0.8-2.1,1.4-3.1c0.6-1,1.4-2,2.3-2.9
		c0.9-0.9,2-1.8,3.2-2.5c1.2-0.7,2.6-1.3,4.1-1.7c1.5-0.4,3.2-0.7,5-0.7c2.6,0,4.9,0.4,6.8,1.1c1.9,0.8,3.5,1.8,4.8,3
		c1.3,1.2,2.4,2.6,3.2,4.2c0.8,1.6,1.4,3.1,1.9,4.7c0.4,1.6,0.7,3.1,0.9,4.6C179.8,37.9,179.8,39.2,179.8,40.3z M158.5,28
		c0.2-0.4,0.5-0.8,0.8-1s0.7-0.4,1.2-0.4c0.2,0,0.3,0,0.6,0.1c0.2,0.1,0.4,0.2,0.4,0.5c0,0.2,0,0.3,0,0.4c0,0.1-0.1,0.3-0.1,0.5
		c-0.3,1.6-0.6,3.2-0.9,4.9c-0.3,1.7-0.5,3.3-0.7,4.9c-0.2,1.6-0.3,3.1-0.5,4.6c-0.1,1.5-0.2,2.9-0.3,4.1c-0.1,1.3-0.1,2.4-0.1,3.4
		c0,1,0,1.8,0,2.3c0,1.9,0,3.4,0,4.5s0,1.9,0,2.5c0,0.1,0,0.2,0,0.3c0,0.1,0,0.3-0.1,0.4c0,0.1-0.1,0.2-0.2,0.3
		c-0.1,0.1-0.2,0.1-0.4,0.1c-0.2,0-0.5,0-0.7-0.1c-0.2-0.1-0.4-0.2-0.6-0.3c-0.2-0.1-0.4-0.2-0.6-0.3c-0.2-0.1-0.4-0.1-0.5-0.1
		c-0.2,0-0.4,0.1-0.5,0.2c-0.1,0.1-0.3,0.2-0.5,0.2c-0.2,0-0.4-0.1-0.5-0.2s-0.2-0.3-0.3-0.4s-0.1-0.3-0.1-0.5c0-0.2,0-0.4,0-0.5
		c0-0.7,0-1.8,0.1-3.2c0-1.4,0.1-3,0.2-4.9c0.1-1.1,0.1-2.3,0.2-3.5c0.1-1.3,0.2-2.5,0.3-3.8s0.2-2.5,0.4-3.6
		c0.1-1.2,0.2-2.3,0.3-3.2c0.1-1,0.2-1.8,0.3-2.5c0.1-0.7,0.1-1.2,0.2-1.4c0.1-0.8,0.3-1.5,0.4-2.1c0.1-0.6,0.3-1,0.5-1.2
		c0.1-0.2,0.3-0.3,0.5-0.5c0.2-0.1,0.3-0.2,0.6-0.3C157.9,28,158.2,28,158.5,28z"/>
	<path id="XMLID_34_" class="st0" d="M195.4,48.6c0.1,0,0.2,0,0.3,0.1c0.1,0.1,0.1,0.2,0.1,0.3c0,0.2,0,0.3-0.1,0.4
		c-0.3,0.8-0.6,1.5-0.9,2.2c-0.3,0.7-0.6,1.3-0.9,1.9c-0.3,0.6-0.7,1.2-1,1.8c-0.4,0.6-0.8,1.2-1.3,1.8c-0.5,0.6-1,1-1.6,1.5
		s-1.2,0.8-1.8,1c-0.7,0.2-1.4,0.4-2.1,0.4c-0.5,0-1.1-0.1-1.8-0.3c-0.7-0.2-1.3-0.5-1.8-1c-0.6-0.5-1-1.2-1.4-2.1
		c-0.4-0.9-0.6-2-0.6-3.4c0-0.6,0.1-1.3,0.2-2c0.1-0.7,0.3-1.3,0.5-1.9c0.2-0.6,0.5-1.2,0.7-1.7c0.3-0.5,0.6-1,0.8-1.4
		c0.5-0.7,1-1.3,1.6-1.9s1.1-1.1,1.7-1.6c0.6-0.4,1.1-0.8,1.6-1c0.5-0.2,1-0.4,1.5-0.4c0.7,0,1.3,0.3,1.9,0.8
		c0.5,0.5,0.8,1.3,0.8,2.4c0,0.9-0.2,1.8-0.7,2.8c-0.5,1-1,1.9-1.7,2.8s-1.4,1.7-2.2,2.5c-0.8,0.8-1.5,1.4-2.1,1.9
		c0.3,0.8,0.8,1.5,1.3,1.9s1.1,0.6,1.6,0.6c0.8,0,1.6-0.3,2.3-0.8c0.7-0.5,1.3-1.2,1.8-2c0.5-0.8,1-1.6,1.4-2.5
		c0.4-0.9,0.8-1.6,1.1-2.3c0.1-0.2,0.2-0.4,0.3-0.5C195.1,48.6,195.3,48.6,195.4,48.6z M184.4,49.9c0,1.1,0.1,2.1,0.3,2.9
		c0.4-0.4,0.8-0.8,1.1-1.3c0.4-0.5,0.7-1,1-1.5c0.3-0.5,0.6-1,0.8-1.6c0.2-0.5,0.3-1,0.3-1.5c0-0.8-0.2-1.3-0.5-1.8
		c-0.3-0.4-0.6-0.6-1-0.6c-0.2,0-0.4,0.1-0.6,0.4c-0.2,0.2-0.5,0.6-0.7,1c-0.2,0.5-0.4,1-0.5,1.7C184.5,48.3,184.4,49.1,184.4,49.9z
		"/>
	<path id="XMLID_37_" class="st0" d="M205.3,48.6c0.1,0,0.2,0,0.3,0.1c0.1,0.1,0.1,0.2,0.1,0.4c0,0.1,0,0.3-0.1,0.4
		c-0.4,1.1-0.7,2.1-1.1,3c-0.3,0.9-0.7,1.8-1,2.5c-0.3,0.7-0.6,1.4-0.9,1.9c-0.3,0.5-0.6,1-0.8,1.3c-0.3,0.4-0.5,0.6-0.8,0.9
		c-0.3,0.2-0.6,0.4-0.8,0.5c-0.3,0.1-0.6,0.1-1,0.1c-0.4,0-0.9-0.1-1.4-0.3s-0.9-0.5-1.4-1c-0.4-0.5-0.8-1.2-1.1-2.1
		c-0.3-0.9-0.4-2.1-0.4-3.6c0-0.4,0-1.1,0.1-2c0-0.9,0.1-2.1,0.2-3.4c0.1-1.3,0.2-2.8,0.3-4.5c0.1-1.7,0.3-3.5,0.4-5.3
		c0.1-1.2,0.2-2.4,0.4-3.8c0.1-1.4,0.3-2.7,0.4-4s0.3-2.5,0.5-3.6c0.2-1.1,0.3-2,0.4-2.6c0.1-0.7,0.4-1.2,0.8-1.6
		c0.4-0.4,0.8-0.8,1.3-1.2c0.2-0.2,0.3-0.4,0.5-0.6s0.4-0.4,0.6-0.6s0.4-0.3,0.6-0.4c0.2-0.1,0.4-0.2,0.5-0.2c0.3,0,0.4,0.1,0.4,0.4
		c0,0.2,0,0.6-0.1,1.1c-0.1,0.5-0.2,1.4-0.4,2.6c-0.2,1.2-0.4,2.8-0.6,4.9c-0.2,2-0.5,4.7-0.8,7.9c-0.1,0.6-0.1,1.4-0.2,2.3
		c-0.1,0.9-0.2,1.8-0.2,2.8s-0.1,2-0.2,3c-0.1,1-0.1,2-0.2,2.9c-0.1,0.9-0.1,1.8-0.1,2.5c0,0.8-0.1,1.4-0.1,1.8
		c0,1.3,0.1,2.3,0.4,3.1c0.3,0.7,0.7,1.1,1.4,1.1c0.4,0,0.7-0.2,1-0.5c0.3-0.3,0.6-0.8,0.8-1.3c0.3-0.6,0.5-1.2,0.8-2
		c0.3-0.7,0.6-1.6,0.9-2.4c0.1-0.2,0.2-0.4,0.3-0.5C205.1,48.6,205.2,48.6,205.3,48.6z"/>
	<path id="XMLID_39_" class="st0" d="M215.9,48.6c0.1,0,0.2,0,0.3,0.1c0.1,0.1,0.1,0.2,0.1,0.4c0,0.1,0,0.3-0.1,0.4
		c-0.4,1.2-0.8,2.4-1.2,3.4c-0.4,1-0.7,1.9-1.1,2.7c-0.5,1.2-1.1,2.1-1.6,2.7c-0.5,0.6-1.1,1.1-1.7,1.3c-0.2,0-0.3,0.1-0.5,0.1
		c-0.2,0-0.4,0.1-0.6,0.1c-0.5,0-1-0.1-1.5-0.3c-0.5-0.2-1-0.5-1.5-1.1c-0.5-0.5-0.8-1.3-1.1-2.2c-0.3-1-0.5-2.2-0.5-3.7
		c0-1.4,0-2.7,0.1-3.9c0.1-1.3,0.2-2.5,0.4-3.8c0.3-0.6,0.6-1.1,1-1.6c0.4-0.5,0.8-0.9,1.2-1.2c0.4-0.3,0.8-0.6,1.1-0.8
		c0.3-0.2,0.6-0.3,0.8-0.3c0.1,0,0.1,0.1,0.1,0.3c0,0.2,0,0.4-0.1,0.8c0,0.4-0.1,0.9-0.2,1.5c-0.1,0.7-0.1,1.5-0.2,2.5
		c-0.1,1-0.1,2.3-0.2,3.8c0,0.8,0.1,1.6,0.2,2.4c0.1,0.7,0.3,1.3,0.5,1.9c0.2,0.5,0.4,0.9,0.7,1.2c0.3,0.3,0.6,0.4,0.9,0.4
		c0.3,0,0.6-0.2,0.9-0.5s0.6-0.7,0.8-1.3c0.3-0.6,0.6-1.2,0.9-2s0.6-1.6,1-2.5C215.3,48.8,215.5,48.6,215.9,48.6z M212.1,29.7
		c0.1,0.1,0.1,0.2,0.1,0.4c0,0.4-0.2,0.7-0.7,1.1c-0.4,0.3-0.7,0.7-1,1c-0.3,0.3-0.6,0.6-0.9,0.9s-0.5,0.5-0.7,0.6
		c-0.2,0.2-0.4,0.2-0.5,0.2c-0.1,0-0.2,0-0.3-0.1c-0.1,0-0.2-0.1-0.2-0.3c-0.2-0.4-0.5-0.9-0.7-1.4c-0.2-0.5-0.4-0.9-0.6-1.3
		c-0.2-0.4-0.3-0.8-0.4-1.1s-0.2-0.5-0.2-0.6c0-0.2,0.1-0.4,0.3-0.7c0.1-0.1,0.3-0.3,0.5-0.7c0.3-0.3,0.6-0.7,0.9-1
		c0.3-0.4,0.6-0.7,0.9-1c0.3-0.3,0.5-0.5,0.6-0.6c0.2-0.3,0.4-0.4,0.6-0.4c0.2,0,0.3,0.1,0.4,0.4c0.1,0.1,0.2,0.4,0.4,0.8
		c0.2,0.4,0.4,0.9,0.6,1.4c0.2,0.5,0.4,1,0.7,1.4C211.9,29.3,212,29.6,212.1,29.7z"/>
	<path id="XMLID_42_" class="st0" d="M232.5,49.5c-0.4,1.1-0.9,1.9-1.7,2.6c-0.8,0.6-1.6,0.9-2.6,0.9c-0.5,0-1-0.1-1.4-0.2
		c-0.5,1.1-1,2-1.6,2.9c-0.6,0.9-1.3,1.6-1.9,2.3c-0.7,0.6-1.3,1.1-2,1.5s-1.3,0.5-1.8,0.5c-0.3,0-0.5-0.1-0.7-0.2s-0.4-0.4-0.6-0.6
		c-0.2-0.3-0.5-0.8-0.8-1.4s-0.7-1.4-1-2.3c-0.3-0.9-0.6-2-0.8-3.3c-0.2-1.3-0.3-2.7-0.3-4.4c0-0.8,0-1.4,0.1-1.9
		c0.1-0.5,0.2-0.9,0.3-1.3s0.2-0.6,0.4-0.8s0.3-0.4,0.4-0.5s0.2-0.2,0.3-0.3s0.2-0.1,0.3-0.1c0.1,0,0.2,0.1,0.3,0.2
		c0.1,0.1,0.2,0.2,0.3,0.2c0.1,0,0.2,0,0.3-0.1c0.2-0.1,0.3-0.2,0.5-0.3c0.2-0.1,0.3-0.2,0.5-0.3c0.2-0.1,0.3-0.1,0.4-0.1
		s0.2,0.1,0.3,0.2c0.1,0.1,0.1,0.3,0.1,0.6c0,0.3,0,0.5-0.1,0.7c0,0.2-0.1,0.5-0.1,0.8c0,0.3-0.1,0.7-0.1,1.1s-0.1,1-0.1,1.8
		c0,2.1,0.2,4.1,0.7,5.9c0.4,1.8,1,3.3,1.8,4.5c0.2-0.3,0.4-0.6,0.6-0.9c0.2-0.4,0.5-0.8,0.7-1.3c0.2-0.5,0.5-1.1,0.7-1.8
		c0.2-0.7,0.4-1.5,0.5-2.4c-0.3-0.4-0.7-0.8-1-1.3c-0.3-0.5-0.6-1-0.9-1.6c-0.2-0.5-0.4-1-0.5-1.6s-0.2-1.1-0.2-1.5
		c0-0.6,0.1-1.1,0.2-1.7c0.2-0.5,0.4-1,0.7-1.4c0.3-0.4,0.6-0.7,1-0.9s0.8-0.3,1.2-0.3c1,0,1.9,0.5,2.6,1.4c0.7,0.9,1,2.2,1,3.9
		c0,0.9-0.1,1.9-0.3,2.8c-0.2,0.9-0.4,1.8-0.7,2.6c0.3,0.1,0.7,0.1,1,0.1c0.7,0,1.3-0.2,1.8-0.6s1-1,1.3-1.8
		c0.2-0.5,0.4-0.7,0.7-0.7c0.1,0,0.2,0,0.3,0.1c0.1,0.1,0.2,0.2,0.2,0.3C232.6,49.1,232.6,49.3,232.5,49.5z M223.1,45.1
		c0,0.6,0.1,1.3,0.4,2c0.2,0.7,0.6,1.4,1,2c0-0.4,0.1-0.8,0.1-1.2s0-0.9,0-1.3c0-0.9-0.1-1.7-0.2-2.4c-0.1-0.6-0.3-0.9-0.6-0.9
		c-0.2,0-0.3,0.1-0.4,0.2c-0.1,0.1-0.2,0.3-0.2,0.5c0,0.2-0.1,0.4-0.1,0.6C223.1,44.8,223.1,45,223.1,45.1z"/>
	<path id="XMLID_45_" class="st0" d="M245.5,48.6c0.1,0,0.2,0,0.3,0.1c0.1,0.1,0.1,0.2,0.1,0.3c0,0.2,0,0.3-0.1,0.4
		c-0.3,0.8-0.6,1.5-0.9,2.2c-0.3,0.7-0.6,1.3-0.9,1.9c-0.3,0.6-0.7,1.2-1,1.8c-0.4,0.6-0.8,1.2-1.3,1.8c-0.5,0.6-1,1-1.6,1.5
		s-1.2,0.8-1.8,1c-0.7,0.2-1.4,0.4-2.1,0.4c-0.5,0-1.1-0.1-1.8-0.3c-0.7-0.2-1.3-0.5-1.8-1c-0.6-0.5-1-1.2-1.4-2.1
		c-0.4-0.9-0.6-2-0.6-3.4c0-0.6,0.1-1.3,0.2-2c0.1-0.7,0.3-1.3,0.5-1.9c0.2-0.6,0.5-1.2,0.7-1.7c0.3-0.5,0.6-1,0.8-1.4
		c0.5-0.7,1-1.3,1.6-1.9s1.1-1.1,1.7-1.6c0.6-0.4,1.1-0.8,1.6-1c0.5-0.2,1-0.4,1.5-0.4c0.7,0,1.3,0.3,1.9,0.8
		c0.5,0.5,0.8,1.3,0.8,2.4c0,0.9-0.2,1.8-0.7,2.8c-0.5,1-1,1.9-1.7,2.8s-1.4,1.7-2.2,2.5c-0.8,0.8-1.5,1.4-2.1,1.9
		c0.3,0.8,0.8,1.5,1.3,1.9s1.1,0.6,1.6,0.6c0.8,0,1.6-0.3,2.3-0.8c0.7-0.5,1.3-1.2,1.8-2c0.5-0.8,1-1.6,1.4-2.5
		c0.4-0.9,0.8-1.6,1.1-2.3c0.1-0.2,0.2-0.4,0.3-0.5C245.2,48.6,245.4,48.6,245.5,48.6z M234.5,49.9c0,1.1,0.1,2.1,0.3,2.9
		c0.4-0.4,0.8-0.8,1.1-1.3c0.4-0.5,0.7-1,1-1.5c0.3-0.5,0.6-1,0.8-1.6c0.2-0.5,0.3-1,0.3-1.5c0-0.8-0.2-1.3-0.5-1.8
		c-0.3-0.4-0.6-0.6-1-0.6c-0.2,0-0.4,0.1-0.6,0.4c-0.2,0.2-0.5,0.6-0.7,1c-0.2,0.5-0.4,1-0.5,1.7C234.6,48.3,234.5,49.1,234.5,49.9z
		"/>
	<path id="XMLID_48_" class="st0" d="M258.6,49.5c-0.4,1.5-0.9,2.8-1.3,4.1s-0.9,2.3-1.4,3.2s-1.1,1.6-1.7,2.1
		c-0.6,0.5-1.3,0.8-2.1,0.8c-0.9,0-1.7-0.5-2.3-1.4c-0.6-1-0.9-2.2-0.9-3.8c0-0.7,0-1.3,0.1-1.9c0.1-0.6,0.1-1.2,0.2-1.8
		c0.1-0.6,0.2-1.1,0.2-1.6c0.1-0.5,0.1-1,0.1-1.6c0-0.5-0.1-0.9-0.2-1.1s-0.3-0.3-0.5-0.3c0,0-0.1,0-0.1,0c0,0-0.1,0-0.2,0
		c-0.1,0-0.3,0-0.5,0.1c-0.2,0-0.5,0.1-0.8,0.1c-0.2,0.5-0.4,0.8-0.5,1.1s-0.2,0.6-0.3,0.8s-0.2,0.4-0.2,0.6
		c-0.1,0.2-0.1,0.3-0.2,0.5c-0.2,0.4-0.3,0.6-0.4,0.7s-0.2,0.1-0.4,0.1c-0.1,0-0.2,0-0.3-0.1c-0.1-0.1-0.1-0.2-0.1-0.4
		c0-0.1,0-0.3,0.1-0.4c0.1-0.2,0.1-0.4,0.2-0.6c0.1-0.3,0.2-0.6,0.3-1c0.1-0.4,0.2-0.9,0.3-1.5c-0.4-0.2-0.7-0.6-1-1.2
		c-0.3-0.6-0.4-1.4-0.4-2.2c0-0.7,0.1-1.4,0.4-2.1c0.2-0.7,0.5-1.4,0.9-2c0.3-0.6,0.7-1.1,1.1-1.5c0.4-0.4,0.8-0.6,1.1-0.6
		c0.4,0,0.8,0.3,1.1,0.8c0.3,0.5,0.4,1.1,0.4,1.7c0,0.3,0,0.7-0.1,1c-0.1,0.3-0.2,0.7-0.2,1c-0.1,0.3-0.2,0.6-0.2,0.8
		c-0.1,0.2-0.1,0.4-0.1,0.6c0,0.2,0.1,0.3,0.2,0.3c0.1,0,0.3,0,0.5-0.1l1.4-0.6c0.5-0.2,0.9-0.3,1.3-0.3c0.6,0,1,0.2,1.2,0.6
		c0.2,0.4,0.3,0.9,0.3,1.7c0,0.3,0,0.9-0.1,1.7c-0.1,0.8-0.2,1.7-0.2,2.7c-0.1,1-0.2,1.9-0.2,2.9c-0.1,1-0.1,1.7-0.1,2.4
		c0,0.7,0.1,1.1,0.2,1.5c0.1,0.3,0.4,0.5,0.9,0.5c0.3,0,0.7-0.2,1-0.6c0.3-0.4,0.6-0.9,0.9-1.5c0.3-0.6,0.6-1.3,0.9-2
		c0.3-0.7,0.5-1.4,0.8-2.1c0.2-0.5,0.4-0.7,0.7-0.7c0.3,0,0.5,0.2,0.5,0.5c0,0.1,0,0.1,0,0.2C258.6,49.3,258.6,49.4,258.6,49.5z"/>
	<path id="XMLID_50_" class="st0" d="M277.2,49.3c-0.4,1.1-0.8,2.2-1.2,3.2c-0.4,1-0.9,2-1.4,2.9c-0.5,0.9-1.2,1.8-1.9,2.6
		c-0.7,0.8-1.5,1.7-2.4,2.4c-0.1,0.9-0.1,1.8-0.2,2.7c-0.1,0.9-0.2,1.8-0.3,2.7c-0.3,2.3-0.7,4.2-1.2,5.6c-0.5,1.4-1,2.6-1.5,3.5
		c-0.5,0.9-1.1,1.5-1.6,1.9c-0.5,0.4-1,0.7-1.4,0.9c-0.9,0.5-1.7,0.7-2.4,0.7c-0.9,0-1.5-0.4-2-1.3c-0.5-0.9-0.7-2-0.7-3.4
		c0-1.3,0.2-2.5,0.7-3.7c0.4-1.2,1-2.2,1.7-3.3c0.7-1,1.5-2,2.3-2.8c0.9-0.9,1.7-1.7,2.6-2.4c0.1-0.7,0.1-1.4,0.1-2
		c0-0.6,0.1-1.2,0.1-1.6c0.1-1.1,0.1-2.3,0.1-3.5c0-1.2,0-2.4,0.1-3.4c-0.4,1.7-0.9,3-1.3,4.1c-0.4,1.1-0.9,2-1.3,2.6
		c-0.4,0.6-0.9,1.1-1.4,1.4s-1,0.4-1.5,0.4c-0.4,0-0.8-0.1-1.2-0.3s-0.8-0.6-1.1-1.2c-0.3-0.6-0.6-1.4-0.8-2.5
		c-0.2-1.1-0.3-2.4-0.3-4.1c0-0.7,0-1.4,0.1-2.1c0-0.7,0.1-1.4,0.2-2.1c0.1-0.7,0.2-1.3,0.3-1.9s0.2-1.1,0.4-1.6
		c0.1-0.2,0.2-0.4,0.3-0.5c0.1-0.1,0.2-0.2,0.3-0.3c0.1-0.1,0.2-0.2,0.2-0.3c0.1-0.1,0.1-0.1,0.2-0.1c0.2,0,0.3,0.1,0.3,0.2
		c0.1,0.1,0.2,0.2,0.3,0.2c0.1,0,0.2,0,0.3-0.1s0.3-0.2,0.5-0.3s0.3-0.2,0.5-0.3s0.3-0.1,0.4-0.1c0.2,0,0.3,0.2,0.3,0.5
		c0,0.1,0,0.3,0,0.5c0,0.2-0.1,0.4-0.1,0.6c-0.2,0.9-0.3,1.8-0.4,2.7c0,1-0.1,2.1-0.1,3.3c0,0.8,0,1.6,0,2.3c0,0.7,0.1,1.3,0.1,1.8
		s0.2,0.9,0.4,1.2c0.2,0.3,0.4,0.4,0.7,0.4c0.3,0,0.7-0.2,0.9-0.7c0.3-0.5,0.6-1.1,0.8-1.9s0.5-1.6,0.8-2.6c0.2-0.9,0.5-1.9,0.7-2.8
		c0.2-0.9,0.5-1.8,0.7-2.5c0.2-0.8,0.5-1.4,0.8-1.9c0.2-0.3,0.5-0.6,1-0.9c0.4-0.2,0.8-0.4,1.2-0.4c0.2,0,0.3,0,0.5,0.1
		c0.1,0,0.2,0.1,0.3,0.3s0.2,0.3,0.2,0.6c0,0.3,0.1,0.6,0.1,1.1c0,0.8,0,1.6,0,2.5c0,0.9-0.1,1.8-0.1,2.7c0,0.9-0.1,1.6-0.1,2.3
		s-0.1,1.2-0.1,1.5c0,0.4-0.1,1.1-0.1,2.1c0,1-0.1,2.1-0.2,3.4c0.7-0.6,1.3-1.2,1.9-1.9c0.5-0.7,1-1.3,1.5-2.1
		c0.4-0.7,0.8-1.5,1.2-2.4s0.7-1.8,1.1-2.7c0.2-0.5,0.5-0.8,0.8-0.8c0.3,0,0.4,0.1,0.4,0.4c0,0.1,0,0.1,0,0.2
		C277.2,49.2,277.2,49.2,277.2,49.3z M265.6,66.7c0.1-0.3,0.1-0.7,0.2-1c0.1-0.4,0.1-0.7,0.1-1.1c-0.5,0.6-1,1.3-1.5,2
		c-0.4,0.7-0.8,1.5-1.1,2.3c-0.3,0.8-0.6,1.7-0.7,2.7c-0.2,1-0.3,2-0.3,3.1c0,0.6,0.1,1.1,0.2,1.4c0.1,0.3,0.2,0.4,0.3,0.4
		c0.2,0,0.4-0.2,0.6-0.5c0.2-0.4,0.4-0.8,0.6-1.4c0.2-0.6,0.4-1.2,0.5-1.9c0.2-0.7,0.3-1.4,0.5-2.1c0.1-0.7,0.3-1.4,0.4-2.1
		C265.4,67.6,265.5,67.1,265.6,66.7z"/>
</g>
<g id="XMLID_1_">
	<path id="XMLID_53_" class="st1" d="M61.1,91.6c0,0.6-0.1,1.1-0.3,1.5c-0.2,0.5-0.5,0.9-0.9,1.2c-0.4,0.3-0.8,0.6-1.3,0.8
		c-0.5,0.2-1,0.3-1.6,0.3h-7V80.6h7.2c0.5,0,1,0.1,1.4,0.3c0.4,0.2,0.8,0.5,1.1,0.9c0.3,0.4,0.5,0.8,0.7,1.2
		c0.2,0.5,0.2,0.9,0.2,1.4c0,0.8-0.2,1.4-0.6,2.1c-0.4,0.6-0.9,1.1-1.6,1.4c0.9,0.3,1.5,0.7,2,1.4C60.9,89.9,61.1,90.7,61.1,91.6z
		 M51.4,81.8v5.5h5.1c0.4,0,0.7-0.1,1-0.2c0.3-0.2,0.6-0.4,0.8-0.6c0.2-0.3,0.4-0.5,0.5-0.9c0.1-0.3,0.2-0.7,0.2-1
		c0-0.4-0.1-0.7-0.2-1.1c-0.1-0.3-0.3-0.6-0.5-0.9c-0.2-0.2-0.5-0.4-0.8-0.6c-0.3-0.1-0.6-0.2-1-0.2H51.4z M59.7,91.4
		c0-0.4-0.1-0.7-0.2-1.1s-0.3-0.6-0.5-0.9c-0.2-0.3-0.5-0.5-0.8-0.6s-0.7-0.2-1-0.2h-5.7v5.6H57c0.4,0,0.7-0.1,1.1-0.2
		s0.6-0.4,0.9-0.6c0.2-0.3,0.4-0.6,0.6-0.9S59.7,91.7,59.7,91.4z"/>
	<path id="XMLID_57_" class="st1" d="M70,94.3c0.9,0,1.7-0.2,2.3-0.5c0.6-0.4,1.1-0.8,1.5-1.4c0.4-0.6,0.6-1.2,0.8-2
		s0.2-1.5,0.2-2.2v-7.5h1.5v7.5c0,1-0.1,2-0.3,2.9s-0.6,1.7-1.1,2.4c-0.5,0.7-1.1,1.2-1.9,1.6s-1.8,0.6-2.9,0.6
		c-1.2,0-2.2-0.2-3-0.6s-1.5-1-1.9-1.7c-0.5-0.7-0.8-1.5-1-2.4c-0.2-0.9-0.3-1.8-0.3-2.8v-7.5h1.4v7.5c0,0.8,0.1,1.5,0.2,2.3
		c0.2,0.7,0.4,1.4,0.8,2c0.4,0.6,0.9,1,1.5,1.4C68.3,94.1,69,94.3,70,94.3z"/>
	<path id="XMLID_59_" class="st1" d="M79.8,95.5V80.6h6.3c0.6,0,1.2,0.1,1.8,0.4c0.5,0.3,1,0.6,1.4,1.1c0.4,0.4,0.7,0.9,0.9,1.5
		c0.2,0.6,0.3,1.1,0.3,1.7c0,0.5-0.1,1.1-0.2,1.6c-0.2,0.5-0.4,0.9-0.7,1.3c-0.3,0.4-0.6,0.7-1,1c-0.4,0.3-0.9,0.5-1.4,0.6l3.7,5.8
		h-1.7L85.6,90h-4.4v5.5H79.8z M81.2,88.7h4.9c0.4,0,0.8-0.1,1.2-0.3c0.4-0.2,0.7-0.4,0.9-0.8c0.3-0.3,0.4-0.7,0.6-1.1
		c0.1-0.4,0.2-0.8,0.2-1.3s-0.1-0.9-0.2-1.3c-0.2-0.4-0.4-0.8-0.7-1.1c-0.3-0.3-0.6-0.6-1-0.7c-0.4-0.2-0.8-0.3-1.2-0.3h-4.7V88.7z"
		/>
	<path id="XMLID_62_" class="st1" d="M104.2,93.3c-1.4,1.5-3,2.3-4.8,2.3c-1,0-1.9-0.2-2.8-0.7s-1.6-1-2.2-1.7
		c-0.6-0.7-1.1-1.5-1.5-2.4c-0.4-0.9-0.5-1.8-0.5-2.8c0-1,0.2-1.9,0.5-2.9c0.3-0.9,0.8-1.7,1.4-2.4c0.6-0.7,1.3-1.2,2.2-1.7
		s1.8-0.6,2.8-0.6c0.7,0,1.4,0.1,2,0.2c0.6,0.2,1.1,0.4,1.6,0.7c0.5,0.3,0.9,0.6,1.2,1c0.3,0.4,0.6,0.8,0.9,1.3l-1.1,0.8
		c-0.5-0.9-1.1-1.6-1.9-2c-0.8-0.4-1.7-0.7-2.7-0.7c-0.8,0-1.6,0.2-2.2,0.5c-0.7,0.4-1.2,0.8-1.7,1.4c-0.5,0.6-0.8,1.2-1.1,2
		S94,87.2,94,88c0,0.8,0.1,1.6,0.4,2.4c0.3,0.8,0.7,1.4,1.2,2c0.5,0.6,1.1,1,1.8,1.4c0.7,0.3,1.4,0.5,2.2,0.5c0.9,0,1.7-0.2,2.4-0.6
		c0.8-0.4,1.5-1,2.2-1.9v-2.5h-3.3v-1.1h4.6v7.3h-1.2V93.3z"/>
	<path id="XMLID_64_" class="st1" d="M114.6,94.3c0.9,0,1.7-0.2,2.3-0.5c0.6-0.4,1.1-0.8,1.5-1.4c0.4-0.6,0.6-1.2,0.8-2
		s0.2-1.5,0.2-2.2v-7.5h1.5v7.5c0,1-0.1,2-0.3,2.9s-0.6,1.7-1.1,2.4c-0.5,0.7-1.1,1.2-1.9,1.6s-1.8,0.6-2.9,0.6
		c-1.2,0-2.2-0.2-3-0.6s-1.5-1-1.9-1.7c-0.5-0.7-0.8-1.5-1-2.4c-0.2-0.9-0.3-1.8-0.3-2.8v-7.5h1.4v7.5c0,0.8,0.1,1.5,0.2,2.3
		c0.2,0.7,0.4,1.4,0.8,2c0.4,0.6,0.9,1,1.5,1.4C112.9,94.1,113.6,94.3,114.6,94.3z"/>
	<path id="XMLID_66_" class="st1" d="M134.4,94.2v1.3h-10V80.6h9.8v1.3h-8.4v5.4h7.3v1.2h-7.3v5.7H134.4z"/>
	<path id="XMLID_68_" class="st1" d="M137.2,95.5V80.6h6.3c0.6,0,1.2,0.1,1.8,0.4c0.5,0.3,1,0.6,1.4,1.1c0.4,0.4,0.7,0.9,0.9,1.5
		c0.2,0.6,0.3,1.1,0.3,1.7c0,0.5-0.1,1.1-0.2,1.6c-0.2,0.5-0.4,0.9-0.7,1.3c-0.3,0.4-0.6,0.7-1,1s-0.9,0.5-1.4,0.6l3.7,5.8h-1.7
		L143,90h-4.4v5.5H137.2z M138.6,88.7h4.9c0.4,0,0.8-0.1,1.2-0.3c0.4-0.2,0.7-0.4,0.9-0.8c0.3-0.3,0.4-0.7,0.6-1.1
		c0.1-0.4,0.2-0.8,0.2-1.3s-0.1-0.9-0.2-1.3c-0.2-0.4-0.4-0.8-0.7-1.1c-0.3-0.3-0.6-0.6-1-0.7c-0.4-0.2-0.8-0.3-1.2-0.3h-4.7V88.7z"
		/>
	<path id="XMLID_71_" class="st1" d="M166.3,95.5l-1.7-1.8c-0.6,0.6-1.3,1.1-2,1.5c-0.8,0.4-1.6,0.5-2.5,0.5c-0.7,0-1.3-0.1-1.9-0.3
		s-1.1-0.5-1.5-0.8c-0.4-0.4-0.8-0.8-1-1.3s-0.4-1-0.4-1.6c0-0.5,0.1-1,0.3-1.4c0.2-0.4,0.4-0.8,0.7-1.2s0.6-0.7,1-1
		c0.4-0.3,0.8-0.6,1.2-0.9c-0.4-0.4-0.7-0.8-1-1.1c-0.3-0.3-0.5-0.6-0.6-0.9c-0.2-0.3-0.3-0.5-0.3-0.8s-0.1-0.5-0.1-0.8
		c0-0.5,0.1-0.9,0.3-1.3c0.2-0.4,0.5-0.7,0.8-1s0.7-0.5,1.2-0.7s0.9-0.3,1.5-0.3c0.5,0,0.9,0.1,1.4,0.2s0.8,0.3,1.1,0.6
		c0.3,0.3,0.6,0.6,0.7,0.9c0.2,0.4,0.3,0.8,0.3,1.2c0,0.4-0.1,0.8-0.3,1.2c-0.2,0.4-0.4,0.7-0.7,1s-0.6,0.6-1,0.9s-0.8,0.6-1.3,0.9
		l4.2,4.4c0.3-0.5,0.5-1.1,0.7-1.7c0.2-0.6,0.2-1.3,0.2-2h1.2c0,0.9-0.1,1.7-0.3,2.5c-0.2,0.8-0.5,1.5-0.9,2.1l2.8,2.9H166.3z
		 M160.3,94.5c0.7,0,1.4-0.2,2-0.5s1.1-0.7,1.6-1.3l-4.5-4.8c-0.7,0.5-1.4,1.1-1.8,1.6c-0.5,0.6-0.7,1.2-0.7,2
		c0,0.5,0.1,0.9,0.3,1.2c0.2,0.4,0.5,0.7,0.8,0.9c0.3,0.2,0.7,0.4,1.1,0.5S159.8,94.5,160.3,94.5z M157.8,83.6c0,0.2,0,0.3,0.1,0.5
		c0,0.2,0.1,0.4,0.3,0.6c0.1,0.2,0.3,0.5,0.6,0.8c0.2,0.3,0.5,0.6,0.9,1c0.8-0.5,1.5-1,2-1.5c0.5-0.5,0.8-1,0.8-1.6
		c0-0.5-0.2-1-0.6-1.3c-0.4-0.3-0.9-0.5-1.6-0.5c-0.3,0-0.7,0.1-1,0.2c-0.3,0.1-0.5,0.3-0.8,0.5c-0.2,0.2-0.4,0.4-0.5,0.7
		S157.8,83.3,157.8,83.6z"/>
	<path id="XMLID_75_" class="st1" d="M175.6,95.5V80.6h6.2c0.6,0,1.2,0.1,1.8,0.4c0.5,0.3,1,0.6,1.4,1.1c0.4,0.4,0.7,0.9,0.9,1.5
		s0.3,1.1,0.3,1.7c0,0.6-0.1,1.2-0.3,1.8c-0.2,0.6-0.5,1.1-0.9,1.5c-0.4,0.4-0.8,0.8-1.4,1c-0.5,0.3-1.1,0.4-1.8,0.4h-4.8v5.5H175.6
		z M177.1,88.7h4.8c0.4,0,0.8-0.1,1.2-0.3c0.4-0.2,0.7-0.4,0.9-0.8c0.3-0.3,0.4-0.7,0.6-1.1c0.1-0.4,0.2-0.8,0.2-1.3
		c0-0.5-0.1-0.9-0.2-1.3c-0.2-0.4-0.4-0.8-0.7-1.1c-0.3-0.3-0.6-0.5-1-0.7c-0.4-0.2-0.8-0.3-1.2-0.3h-4.6V88.7z"/>
	<path id="XMLID_78_" class="st1" d="M188.6,95.5V80.6h1.5v14.9H188.6z"/>
	<path id="XMLID_80_" class="st1" d="M192.6,94.3l10.1-12.5h-10v-1.3h11.7v1.2l-10,12.5h10v1.3h-11.8V94.3z"/>
	<path id="XMLID_82_" class="st1" d="M205.8,94.3L216,81.9h-10v-1.3h11.7v1.2l-10,12.5h10v1.3h-11.8V94.3z"/>
	<path id="XMLID_84_" class="st1" d="M224.9,80.6h1.2l6.2,14.9h-1.6l-1.9-4.7h-6.7l-1.9,4.7h-1.6L224.9,80.6z M228.5,89.7l-3-7.4
		l-3,7.4H228.5z"/>
</g>
<line id="XMLID_5_" class="st2" x1="3" y1="89" x2="43" y2="89"/>
<line id="XMLID_6_" class="st2" x1="237" y1="89" x2="277" y2="89"/>
</svg>
